<svg width="290" height="160" viewBox="0 0 290 160" fill="none" xmlns="http://www.w3.org/2000/svg">
<rect x="20" y="80" width="250" height="14" fill="white"/>
<rect x="20" y="94" width="250" height="0.4" fill="#EBF0F4"/>
<path d="M25.236 85.876C24.924 85.876 24.696 86.008 24.548 86.272V85.932H24.248V88.792H24.568V87.624C24.728 87.912 24.956 88.056 25.252 88.056C25.548 88.056 25.776 87.944 25.944 87.728C26.096 87.528 26.176 87.276 26.176 86.972C26.176 86.66 26.096 86.408 25.94 86.208C25.768 85.984 25.532 85.876 25.236 85.876ZM25.196 86.14C25.416 86.14 25.584 86.22 25.7 86.388C25.796 86.532 25.848 86.728 25.848 86.972C25.848 87.22 25.796 87.416 25.692 87.56C25.576 87.712 25.408 87.792 25.184 87.792C24.992 87.792 24.844 87.716 24.732 87.572C24.612 87.424 24.556 87.232 24.556 86.992V86.952C24.556 86.72 24.608 86.528 24.712 86.384C24.824 86.22 24.988 86.14 25.196 86.14ZM27.4998 85.876C27.3558 85.876 27.2318 85.92 27.1238 86.008C27.0358 86.076 26.9638 86.172 26.9078 86.292V85.932H26.5918V88H26.9078V86.904C26.9078 86.712 26.9598 86.548 27.0718 86.412C27.1798 86.268 27.3158 86.2 27.4758 86.2C27.5758 86.2 27.6798 86.212 27.7838 86.244V85.924C27.7078 85.892 27.6118 85.876 27.4998 85.876ZM28.9767 85.876C28.6647 85.876 28.4207 85.98 28.2367 86.196C28.0607 86.4 27.9727 86.656 27.9727 86.968C27.9727 87.276 28.0607 87.532 28.2367 87.732C28.4207 87.948 28.6647 88.056 28.9767 88.056C29.2847 88.056 29.5327 87.948 29.7207 87.732C29.8927 87.532 29.9807 87.276 29.9807 86.968C29.9807 86.656 29.8927 86.4 29.7167 86.196C29.5327 85.98 29.2847 85.876 28.9767 85.876ZM28.9767 86.144C29.1927 86.144 29.3647 86.228 29.4927 86.396C29.6007 86.548 29.6567 86.736 29.6567 86.968C29.6567 87.192 29.6007 87.384 29.4927 87.536C29.3647 87.704 29.1927 87.788 28.9767 87.788C28.7567 87.788 28.5847 87.704 28.4647 87.536C28.3527 87.384 28.3007 87.196 28.3007 86.968C28.3007 86.736 28.3527 86.548 28.4647 86.396C28.5847 86.228 28.7567 86.144 28.9767 86.144ZM31.3844 85.876C31.0724 85.876 30.8444 86.008 30.6964 86.272V85.932H30.3964V88.792H30.7164V87.624C30.8764 87.912 31.1044 88.056 31.4004 88.056C31.6964 88.056 31.9244 87.944 32.0924 87.728C32.2444 87.528 32.3244 87.276 32.3244 86.972C32.3244 86.66 32.2444 86.408 32.0884 86.208C31.9164 85.984 31.6804 85.876 31.3844 85.876ZM31.3444 86.14C31.5644 86.14 31.7324 86.22 31.8484 86.388C31.9444 86.532 31.9964 86.728 31.9964 86.972C31.9964 87.22 31.9444 87.416 31.8404 87.56C31.7244 87.712 31.5564 87.792 31.3324 87.792C31.1404 87.792 30.9924 87.716 30.8804 87.572C30.7604 87.424 30.7044 87.232 30.7044 86.992V86.952C30.7044 86.72 30.7564 86.528 30.8604 86.384C30.9724 86.22 31.1364 86.14 31.3444 86.14ZM33.5922 85.876C33.2922 85.876 33.0562 85.984 32.8802 86.2C32.7042 86.404 32.6202 86.66 32.6202 86.964C32.6202 87.3 32.7082 87.564 32.8922 87.764C33.0682 87.956 33.3082 88.056 33.6042 88.056C33.8722 88.056 34.0922 87.976 34.2642 87.824C34.4042 87.696 34.4962 87.536 34.5442 87.336H34.2242C34.1722 87.48 34.1042 87.588 34.0162 87.66C33.9122 87.744 33.7722 87.788 33.6042 87.788C33.4082 87.788 33.2522 87.724 33.1402 87.596C33.0282 87.468 32.9682 87.288 32.9522 87.056H34.5842C34.5762 86.696 34.4962 86.412 34.3442 86.212C34.1762 85.988 33.9242 85.876 33.5922 85.876ZM33.6002 86.144C33.9922 86.144 34.2122 86.364 34.2522 86.808H32.9602C32.9802 86.604 33.0442 86.444 33.1562 86.324C33.2682 86.204 33.4162 86.144 33.6002 86.144ZM35.8669 85.876C35.7229 85.876 35.5989 85.92 35.4909 86.008C35.4029 86.076 35.3309 86.172 35.2749 86.292V85.932H34.9589V88H35.2749V86.904C35.2749 86.712 35.3269 86.548 35.4389 86.412C35.5469 86.268 35.6829 86.2 35.8429 86.2C35.9429 86.2 36.0469 86.212 36.1509 86.244V85.924C36.0749 85.892 35.9789 85.876 35.8669 85.876ZM36.9719 85.264L36.6559 85.396V85.932H36.2399V86.2H36.6559V87.516C36.6559 87.672 36.6879 87.788 36.7559 87.868C36.8279 87.956 36.9519 88 37.1199 88H37.4319V87.732H37.1679C37.0959 87.732 37.0439 87.712 37.0159 87.68C36.9839 87.648 36.9719 87.592 36.9719 87.516V86.2H37.4839V85.932H36.9719V85.264ZM37.6138 85.932L38.4338 87.952L38.0778 88.792H38.4258L39.5578 85.932H39.2058L38.5938 87.564L37.9618 85.932H37.6138ZM41.8302 85.144C41.7342 85.252 41.6222 85.348 41.4862 85.436C41.3502 85.516 41.2142 85.572 41.0862 85.608V85.936C41.3542 85.856 41.5782 85.728 41.7582 85.544V88H42.0862V85.144H41.8302Z" fill="#999999"/>
<path d="M115.236 85.876C114.924 85.876 114.696 86.008 114.548 86.272V85.932H114.248V88.792H114.568V87.624C114.728 87.912 114.956 88.056 115.252 88.056C115.548 88.056 115.776 87.944 115.944 87.728C116.096 87.528 116.176 87.276 116.176 86.972C116.176 86.66 116.096 86.408 115.94 86.208C115.768 85.984 115.532 85.876 115.236 85.876ZM115.196 86.14C115.416 86.14 115.584 86.22 115.7 86.388C115.796 86.532 115.848 86.728 115.848 86.972C115.848 87.22 115.796 87.416 115.692 87.56C115.576 87.712 115.408 87.792 115.184 87.792C114.992 87.792 114.844 87.716 114.732 87.572C114.612 87.424 114.556 87.232 114.556 86.992V86.952C114.556 86.72 114.608 86.528 114.712 86.384C114.824 86.22 114.988 86.14 115.196 86.14ZM117.5 85.876C117.356 85.876 117.232 85.92 117.124 86.008C117.036 86.076 116.964 86.172 116.908 86.292V85.932H116.592V88H116.908V86.904C116.908 86.712 116.96 86.548 117.072 86.412C117.18 86.268 117.316 86.2 117.476 86.2C117.576 86.2 117.68 86.212 117.784 86.244V85.924C117.708 85.892 117.612 85.876 117.5 85.876ZM118.977 85.876C118.665 85.876 118.421 85.98 118.237 86.196C118.061 86.4 117.973 86.656 117.973 86.968C117.973 87.276 118.061 87.532 118.237 87.732C118.421 87.948 118.665 88.056 118.977 88.056C119.285 88.056 119.533 87.948 119.721 87.732C119.893 87.532 119.981 87.276 119.981 86.968C119.981 86.656 119.893 86.4 119.717 86.196C119.533 85.98 119.285 85.876 118.977 85.876ZM118.977 86.144C119.193 86.144 119.365 86.228 119.493 86.396C119.601 86.548 119.657 86.736 119.657 86.968C119.657 87.192 119.601 87.384 119.493 87.536C119.365 87.704 119.193 87.788 118.977 87.788C118.757 87.788 118.585 87.704 118.465 87.536C118.353 87.384 118.301 87.196 118.301 86.968C118.301 86.736 118.353 86.548 118.465 86.396C118.585 86.228 118.757 86.144 118.977 86.144ZM121.384 85.876C121.072 85.876 120.844 86.008 120.696 86.272V85.932H120.396V88.792H120.716V87.624C120.876 87.912 121.104 88.056 121.4 88.056C121.696 88.056 121.924 87.944 122.092 87.728C122.244 87.528 122.324 87.276 122.324 86.972C122.324 86.66 122.244 86.408 122.088 86.208C121.916 85.984 121.68 85.876 121.384 85.876ZM121.344 86.14C121.564 86.14 121.732 86.22 121.848 86.388C121.944 86.532 121.996 86.728 121.996 86.972C121.996 87.22 121.944 87.416 121.84 87.56C121.724 87.712 121.556 87.792 121.332 87.792C121.14 87.792 120.992 87.716 120.88 87.572C120.76 87.424 120.704 87.232 120.704 86.992V86.952C120.704 86.72 120.756 86.528 120.86 86.384C120.972 86.22 121.136 86.14 121.344 86.14ZM123.592 85.876C123.292 85.876 123.056 85.984 122.88 86.2C122.704 86.404 122.62 86.66 122.62 86.964C122.62 87.3 122.708 87.564 122.892 87.764C123.068 87.956 123.308 88.056 123.604 88.056C123.872 88.056 124.092 87.976 124.264 87.824C124.404 87.696 124.496 87.536 124.544 87.336H124.224C124.172 87.48 124.104 87.588 124.016 87.66C123.912 87.744 123.772 87.788 123.604 87.788C123.408 87.788 123.252 87.724 123.14 87.596C123.028 87.468 122.968 87.288 122.952 87.056H124.584C124.576 86.696 124.496 86.412 124.344 86.212C124.176 85.988 123.924 85.876 123.592 85.876ZM123.6 86.144C123.992 86.144 124.212 86.364 124.252 86.808H122.96C122.98 86.604 123.044 86.444 123.156 86.324C123.268 86.204 123.416 86.144 123.6 86.144ZM125.867 85.876C125.723 85.876 125.599 85.92 125.491 86.008C125.403 86.076 125.331 86.172 125.275 86.292V85.932H124.959V88H125.275V86.904C125.275 86.712 125.327 86.548 125.439 86.412C125.547 86.268 125.683 86.2 125.843 86.2C125.943 86.2 126.047 86.212 126.151 86.244V85.924C126.075 85.892 125.979 85.876 125.867 85.876ZM126.972 85.264L126.656 85.396V85.932H126.24V86.2H126.656V87.516C126.656 87.672 126.688 87.788 126.756 87.868C126.828 87.956 126.952 88 127.12 88H127.432V87.732H127.168C127.096 87.732 127.044 87.712 127.016 87.68C126.984 87.648 126.972 87.592 126.972 87.516V86.2H127.484V85.932H126.972V85.264ZM127.614 85.932L128.434 87.952L128.078 88.792H128.426L129.558 85.932H129.206L128.594 87.564L127.962 85.932H127.614ZM132.15 85.088C131.862 85.088 131.626 85.184 131.45 85.376C131.274 85.564 131.182 85.82 131.182 86.14H131.51C131.514 85.888 131.574 85.696 131.686 85.568C131.79 85.432 131.942 85.368 132.138 85.368C132.322 85.368 132.47 85.416 132.574 85.512C132.678 85.608 132.73 85.74 132.73 85.916C132.73 86.1 132.654 86.272 132.51 86.428C132.434 86.508 132.286 86.624 132.062 86.784C131.758 86.992 131.554 87.164 131.442 87.292C131.25 87.504 131.158 87.74 131.158 88H133.062V87.708H131.562C131.614 87.516 131.822 87.296 132.186 87.052C132.482 86.852 132.678 86.696 132.778 86.592C132.962 86.392 133.058 86.168 133.058 85.92C133.058 85.672 132.97 85.468 132.802 85.316C132.63 85.164 132.414 85.088 132.15 85.088Z" fill="#999999"/>
<path d="M205.236 85.876C204.924 85.876 204.696 86.008 204.548 86.272V85.932H204.248V88.792H204.568V87.624C204.728 87.912 204.956 88.056 205.252 88.056C205.548 88.056 205.776 87.944 205.944 87.728C206.096 87.528 206.176 87.276 206.176 86.972C206.176 86.66 206.096 86.408 205.94 86.208C205.768 85.984 205.532 85.876 205.236 85.876ZM205.196 86.14C205.416 86.14 205.584 86.22 205.7 86.388C205.796 86.532 205.848 86.728 205.848 86.972C205.848 87.22 205.796 87.416 205.692 87.56C205.576 87.712 205.408 87.792 205.184 87.792C204.992 87.792 204.844 87.716 204.732 87.572C204.612 87.424 204.556 87.232 204.556 86.992V86.952C204.556 86.72 204.608 86.528 204.712 86.384C204.824 86.22 204.988 86.14 205.196 86.14ZM207.5 85.876C207.356 85.876 207.232 85.92 207.124 86.008C207.036 86.076 206.964 86.172 206.908 86.292V85.932H206.592V88H206.908V86.904C206.908 86.712 206.96 86.548 207.072 86.412C207.18 86.268 207.316 86.2 207.476 86.2C207.576 86.2 207.68 86.212 207.784 86.244V85.924C207.708 85.892 207.612 85.876 207.5 85.876ZM208.977 85.876C208.665 85.876 208.421 85.98 208.237 86.196C208.061 86.4 207.973 86.656 207.973 86.968C207.973 87.276 208.061 87.532 208.237 87.732C208.421 87.948 208.665 88.056 208.977 88.056C209.285 88.056 209.533 87.948 209.721 87.732C209.893 87.532 209.981 87.276 209.981 86.968C209.981 86.656 209.893 86.4 209.717 86.196C209.533 85.98 209.285 85.876 208.977 85.876ZM208.977 86.144C209.193 86.144 209.365 86.228 209.493 86.396C209.601 86.548 209.657 86.736 209.657 86.968C209.657 87.192 209.601 87.384 209.493 87.536C209.365 87.704 209.193 87.788 208.977 87.788C208.757 87.788 208.585 87.704 208.465 87.536C208.353 87.384 208.301 87.196 208.301 86.968C208.301 86.736 208.353 86.548 208.465 86.396C208.585 86.228 208.757 86.144 208.977 86.144ZM211.384 85.876C211.072 85.876 210.844 86.008 210.696 86.272V85.932H210.396V88.792H210.716V87.624C210.876 87.912 211.104 88.056 211.4 88.056C211.696 88.056 211.924 87.944 212.092 87.728C212.244 87.528 212.324 87.276 212.324 86.972C212.324 86.66 212.244 86.408 212.088 86.208C211.916 85.984 211.68 85.876 211.384 85.876ZM211.344 86.14C211.564 86.14 211.732 86.22 211.848 86.388C211.944 86.532 211.996 86.728 211.996 86.972C211.996 87.22 211.944 87.416 211.84 87.56C211.724 87.712 211.556 87.792 211.332 87.792C211.14 87.792 210.992 87.716 210.88 87.572C210.76 87.424 210.704 87.232 210.704 86.992V86.952C210.704 86.72 210.756 86.528 210.86 86.384C210.972 86.22 211.136 86.14 211.344 86.14ZM213.592 85.876C213.292 85.876 213.056 85.984 212.88 86.2C212.704 86.404 212.62 86.66 212.62 86.964C212.62 87.3 212.708 87.564 212.892 87.764C213.068 87.956 213.308 88.056 213.604 88.056C213.872 88.056 214.092 87.976 214.264 87.824C214.404 87.696 214.496 87.536 214.544 87.336H214.224C214.172 87.48 214.104 87.588 214.016 87.66C213.912 87.744 213.772 87.788 213.604 87.788C213.408 87.788 213.252 87.724 213.14 87.596C213.028 87.468 212.968 87.288 212.952 87.056H214.584C214.576 86.696 214.496 86.412 214.344 86.212C214.176 85.988 213.924 85.876 213.592 85.876ZM213.6 86.144C213.992 86.144 214.212 86.364 214.252 86.808H212.96C212.98 86.604 213.044 86.444 213.156 86.324C213.268 86.204 213.416 86.144 213.6 86.144ZM215.867 85.876C215.723 85.876 215.599 85.92 215.491 86.008C215.403 86.076 215.331 86.172 215.275 86.292V85.932H214.959V88H215.275V86.904C215.275 86.712 215.327 86.548 215.439 86.412C215.547 86.268 215.683 86.2 215.843 86.2C215.943 86.2 216.047 86.212 216.151 86.244V85.924C216.075 85.892 215.979 85.876 215.867 85.876ZM216.972 85.264L216.656 85.396V85.932H216.24V86.2H216.656V87.516C216.656 87.672 216.688 87.788 216.756 87.868C216.828 87.956 216.952 88 217.12 88H217.432V87.732H217.168C217.096 87.732 217.044 87.712 217.016 87.68C216.984 87.648 216.972 87.592 216.972 87.516V86.2H217.484V85.932H216.972V85.264ZM217.614 85.932L218.434 87.952L218.078 88.792H218.426L219.558 85.932H219.206L218.594 87.564L217.962 85.932H217.614ZM222.138 85.088C221.866 85.088 221.646 85.164 221.478 85.32C221.302 85.476 221.198 85.692 221.174 85.968H221.498C221.518 85.776 221.582 85.628 221.694 85.524C221.802 85.42 221.95 85.372 222.142 85.372C222.326 85.372 222.474 85.416 222.578 85.512C222.674 85.6 222.726 85.724 222.726 85.884C222.726 86.044 222.674 86.168 222.574 86.256C222.474 86.34 222.33 86.384 222.138 86.384H221.918V86.64H222.15C222.35 86.64 222.502 86.684 222.614 86.78C222.726 86.876 222.782 87.008 222.782 87.18C222.782 87.348 222.722 87.488 222.61 87.6C222.486 87.716 222.322 87.776 222.118 87.776C221.938 87.776 221.79 87.724 221.67 87.628C221.53 87.512 221.454 87.34 221.446 87.116H221.114C221.138 87.436 221.25 87.68 221.454 87.848C221.626 87.984 221.846 88.056 222.118 88.056C222.414 88.056 222.654 87.972 222.838 87.804C223.018 87.64 223.11 87.428 223.11 87.168C223.11 87 223.062 86.86 222.966 86.748C222.878 86.636 222.75 86.556 222.582 86.504C222.894 86.4 223.05 86.184 223.05 85.864C223.05 85.624 222.966 85.436 222.802 85.296C222.634 85.156 222.41 85.088 222.138 85.088Z" fill="#999999"/>
<path d="M48.236 85.876C47.924 85.876 47.696 86.008 47.548 86.272V85.932H47.248V88.792H47.568V87.624C47.728 87.912 47.956 88.056 48.252 88.056C48.548 88.056 48.776 87.944 48.944 87.728C49.096 87.528 49.176 87.276 49.176 86.972C49.176 86.66 49.096 86.408 48.94 86.208C48.768 85.984 48.532 85.876 48.236 85.876ZM48.196 86.14C48.416 86.14 48.584 86.22 48.7 86.388C48.796 86.532 48.848 86.728 48.848 86.972C48.848 87.22 48.796 87.416 48.692 87.56C48.576 87.712 48.408 87.792 48.184 87.792C47.992 87.792 47.844 87.716 47.732 87.572C47.612 87.424 47.556 87.232 47.556 86.992V86.952C47.556 86.72 47.608 86.528 47.712 86.384C47.824 86.22 47.988 86.14 48.196 86.14ZM50.4998 85.876C50.3558 85.876 50.2318 85.92 50.1238 86.008C50.0358 86.076 49.9638 86.172 49.9078 86.292V85.932H49.5918V88H49.9078V86.904C49.9078 86.712 49.9598 86.548 50.0718 86.412C50.1798 86.268 50.3158 86.2 50.4758 86.2C50.5758 86.2 50.6798 86.212 50.7838 86.244V85.924C50.7078 85.892 50.6118 85.876 50.4998 85.876ZM51.9767 85.876C51.6647 85.876 51.4207 85.98 51.2367 86.196C51.0607 86.4 50.9727 86.656 50.9727 86.968C50.9727 87.276 51.0607 87.532 51.2367 87.732C51.4207 87.948 51.6647 88.056 51.9767 88.056C52.2847 88.056 52.5327 87.948 52.7207 87.732C52.8927 87.532 52.9807 87.276 52.9807 86.968C52.9807 86.656 52.8927 86.4 52.7167 86.196C52.5327 85.98 52.2847 85.876 51.9767 85.876ZM51.9767 86.144C52.1927 86.144 52.3647 86.228 52.4927 86.396C52.6007 86.548 52.6567 86.736 52.6567 86.968C52.6567 87.192 52.6007 87.384 52.4927 87.536C52.3647 87.704 52.1927 87.788 51.9767 87.788C51.7567 87.788 51.5847 87.704 51.4647 87.536C51.3527 87.384 51.3007 87.196 51.3007 86.968C51.3007 86.736 51.3527 86.548 51.4647 86.396C51.5847 86.228 51.7567 86.144 51.9767 86.144ZM54.3844 85.876C54.0724 85.876 53.8444 86.008 53.6964 86.272V85.932H53.3964V88.792H53.7164V87.624C53.8764 87.912 54.1044 88.056 54.4004 88.056C54.6964 88.056 54.9244 87.944 55.0924 87.728C55.2444 87.528 55.3244 87.276 55.3244 86.972C55.3244 86.66 55.2444 86.408 55.0884 86.208C54.9164 85.984 54.6804 85.876 54.3844 85.876ZM54.3444 86.14C54.5644 86.14 54.7324 86.22 54.8484 86.388C54.9444 86.532 54.9964 86.728 54.9964 86.972C54.9964 87.22 54.9444 87.416 54.8404 87.56C54.7244 87.712 54.5564 87.792 54.3324 87.792C54.1404 87.792 53.9924 87.716 53.8804 87.572C53.7604 87.424 53.7044 87.232 53.7044 86.992V86.952C53.7044 86.72 53.7564 86.528 53.8604 86.384C53.9724 86.22 54.1364 86.14 54.3444 86.14ZM56.5922 85.876C56.2922 85.876 56.0562 85.984 55.8802 86.2C55.7042 86.404 55.6202 86.66 55.6202 86.964C55.6202 87.3 55.7082 87.564 55.8922 87.764C56.0682 87.956 56.3082 88.056 56.6042 88.056C56.8722 88.056 57.0922 87.976 57.2642 87.824C57.4042 87.696 57.4962 87.536 57.5442 87.336H57.2242C57.1722 87.48 57.1042 87.588 57.0162 87.66C56.9122 87.744 56.7722 87.788 56.6042 87.788C56.4082 87.788 56.2522 87.724 56.1402 87.596C56.0282 87.468 55.9682 87.288 55.9522 87.056H57.5842C57.5762 86.696 57.4962 86.412 57.3442 86.212C57.1762 85.988 56.9242 85.876 56.5922 85.876ZM56.6002 86.144C56.9922 86.144 57.2122 86.364 57.2522 86.808H55.9602C55.9802 86.604 56.0442 86.444 56.1562 86.324C56.2682 86.204 56.4162 86.144 56.6002 86.144ZM58.8669 85.876C58.7229 85.876 58.5989 85.92 58.4909 86.008C58.4029 86.076 58.3309 86.172 58.2749 86.292V85.932H57.9589V88H58.2749V86.904C58.2749 86.712 58.3269 86.548 58.4389 86.412C58.5469 86.268 58.6829 86.2 58.8429 86.2C58.9429 86.2 59.0469 86.212 59.1509 86.244V85.924C59.0749 85.892 58.9789 85.876 58.8669 85.876ZM59.9719 85.264L59.6559 85.396V85.932H59.2399V86.2H59.6559V87.516C59.6559 87.672 59.6879 87.788 59.7559 87.868C59.8279 87.956 59.9519 88 60.1199 88H60.4319V87.732H60.1679C60.0959 87.732 60.0439 87.712 60.0159 87.68C59.9839 87.648 59.9719 87.592 59.9719 87.516V86.2H60.4839V85.932H59.9719V85.264ZM60.6138 85.932L61.4338 87.952L61.0778 88.792H61.4258L62.5578 85.932H62.2058L61.5938 87.564L60.9618 85.932H60.6138ZM64.8302 85.144C64.7342 85.252 64.6222 85.348 64.4862 85.436C64.3502 85.516 64.2142 85.572 64.0862 85.608V85.936C64.3542 85.856 64.5782 85.728 64.7582 85.544V88H65.0862V85.144H64.8302Z" fill="#333333"/>
<path d="M138.236 85.876C137.924 85.876 137.696 86.008 137.548 86.272V85.932H137.248V88.792H137.568V87.624C137.728 87.912 137.956 88.056 138.252 88.056C138.548 88.056 138.776 87.944 138.944 87.728C139.096 87.528 139.176 87.276 139.176 86.972C139.176 86.66 139.096 86.408 138.94 86.208C138.768 85.984 138.532 85.876 138.236 85.876ZM138.196 86.14C138.416 86.14 138.584 86.22 138.7 86.388C138.796 86.532 138.848 86.728 138.848 86.972C138.848 87.22 138.796 87.416 138.692 87.56C138.576 87.712 138.408 87.792 138.184 87.792C137.992 87.792 137.844 87.716 137.732 87.572C137.612 87.424 137.556 87.232 137.556 86.992V86.952C137.556 86.72 137.608 86.528 137.712 86.384C137.824 86.22 137.988 86.14 138.196 86.14ZM140.5 85.876C140.356 85.876 140.232 85.92 140.124 86.008C140.036 86.076 139.964 86.172 139.908 86.292V85.932H139.592V88H139.908V86.904C139.908 86.712 139.96 86.548 140.072 86.412C140.18 86.268 140.316 86.2 140.476 86.2C140.576 86.2 140.68 86.212 140.784 86.244V85.924C140.708 85.892 140.612 85.876 140.5 85.876ZM141.977 85.876C141.665 85.876 141.421 85.98 141.237 86.196C141.061 86.4 140.973 86.656 140.973 86.968C140.973 87.276 141.061 87.532 141.237 87.732C141.421 87.948 141.665 88.056 141.977 88.056C142.285 88.056 142.533 87.948 142.721 87.732C142.893 87.532 142.981 87.276 142.981 86.968C142.981 86.656 142.893 86.4 142.717 86.196C142.533 85.98 142.285 85.876 141.977 85.876ZM141.977 86.144C142.193 86.144 142.365 86.228 142.493 86.396C142.601 86.548 142.657 86.736 142.657 86.968C142.657 87.192 142.601 87.384 142.493 87.536C142.365 87.704 142.193 87.788 141.977 87.788C141.757 87.788 141.585 87.704 141.465 87.536C141.353 87.384 141.301 87.196 141.301 86.968C141.301 86.736 141.353 86.548 141.465 86.396C141.585 86.228 141.757 86.144 141.977 86.144ZM144.384 85.876C144.072 85.876 143.844 86.008 143.696 86.272V85.932H143.396V88.792H143.716V87.624C143.876 87.912 144.104 88.056 144.4 88.056C144.696 88.056 144.924 87.944 145.092 87.728C145.244 87.528 145.324 87.276 145.324 86.972C145.324 86.66 145.244 86.408 145.088 86.208C144.916 85.984 144.68 85.876 144.384 85.876ZM144.344 86.14C144.564 86.14 144.732 86.22 144.848 86.388C144.944 86.532 144.996 86.728 144.996 86.972C144.996 87.22 144.944 87.416 144.84 87.56C144.724 87.712 144.556 87.792 144.332 87.792C144.14 87.792 143.992 87.716 143.88 87.572C143.76 87.424 143.704 87.232 143.704 86.992V86.952C143.704 86.72 143.756 86.528 143.86 86.384C143.972 86.22 144.136 86.14 144.344 86.14ZM146.592 85.876C146.292 85.876 146.056 85.984 145.88 86.2C145.704 86.404 145.62 86.66 145.62 86.964C145.62 87.3 145.708 87.564 145.892 87.764C146.068 87.956 146.308 88.056 146.604 88.056C146.872 88.056 147.092 87.976 147.264 87.824C147.404 87.696 147.496 87.536 147.544 87.336H147.224C147.172 87.48 147.104 87.588 147.016 87.66C146.912 87.744 146.772 87.788 146.604 87.788C146.408 87.788 146.252 87.724 146.14 87.596C146.028 87.468 145.968 87.288 145.952 87.056H147.584C147.576 86.696 147.496 86.412 147.344 86.212C147.176 85.988 146.924 85.876 146.592 85.876ZM146.6 86.144C146.992 86.144 147.212 86.364 147.252 86.808H145.96C145.98 86.604 146.044 86.444 146.156 86.324C146.268 86.204 146.416 86.144 146.6 86.144ZM148.867 85.876C148.723 85.876 148.599 85.92 148.491 86.008C148.403 86.076 148.331 86.172 148.275 86.292V85.932H147.959V88H148.275V86.904C148.275 86.712 148.327 86.548 148.439 86.412C148.547 86.268 148.683 86.2 148.843 86.2C148.943 86.2 149.047 86.212 149.151 86.244V85.924C149.075 85.892 148.979 85.876 148.867 85.876ZM149.972 85.264L149.656 85.396V85.932H149.24V86.2H149.656V87.516C149.656 87.672 149.688 87.788 149.756 87.868C149.828 87.956 149.952 88 150.12 88H150.432V87.732H150.168C150.096 87.732 150.044 87.712 150.016 87.68C149.984 87.648 149.972 87.592 149.972 87.516V86.2H150.484V85.932H149.972V85.264ZM150.614 85.932L151.434 87.952L151.078 88.792H151.426L152.558 85.932H152.206L151.594 87.564L150.962 85.932H150.614ZM155.15 85.088C154.862 85.088 154.626 85.184 154.45 85.376C154.274 85.564 154.182 85.82 154.182 86.14H154.51C154.514 85.888 154.574 85.696 154.686 85.568C154.79 85.432 154.942 85.368 155.138 85.368C155.322 85.368 155.47 85.416 155.574 85.512C155.678 85.608 155.73 85.74 155.73 85.916C155.73 86.1 155.654 86.272 155.51 86.428C155.434 86.508 155.286 86.624 155.062 86.784C154.758 86.992 154.554 87.164 154.442 87.292C154.25 87.504 154.158 87.74 154.158 88H156.062V87.708H154.562C154.614 87.516 154.822 87.296 155.186 87.052C155.482 86.852 155.678 86.696 155.778 86.592C155.962 86.392 156.058 86.168 156.058 85.92C156.058 85.672 155.97 85.468 155.802 85.316C155.63 85.164 155.414 85.088 155.15 85.088Z" fill="#333333"/>
<path d="M228.236 85.876C227.924 85.876 227.696 86.008 227.548 86.272V85.932H227.248V88.792H227.568V87.624C227.728 87.912 227.956 88.056 228.252 88.056C228.548 88.056 228.776 87.944 228.944 87.728C229.096 87.528 229.176 87.276 229.176 86.972C229.176 86.66 229.096 86.408 228.94 86.208C228.768 85.984 228.532 85.876 228.236 85.876ZM228.196 86.14C228.416 86.14 228.584 86.22 228.7 86.388C228.796 86.532 228.848 86.728 228.848 86.972C228.848 87.22 228.796 87.416 228.692 87.56C228.576 87.712 228.408 87.792 228.184 87.792C227.992 87.792 227.844 87.716 227.732 87.572C227.612 87.424 227.556 87.232 227.556 86.992V86.952C227.556 86.72 227.608 86.528 227.712 86.384C227.824 86.22 227.988 86.14 228.196 86.14ZM230.5 85.876C230.356 85.876 230.232 85.92 230.124 86.008C230.036 86.076 229.964 86.172 229.908 86.292V85.932H229.592V88H229.908V86.904C229.908 86.712 229.96 86.548 230.072 86.412C230.18 86.268 230.316 86.2 230.476 86.2C230.576 86.2 230.68 86.212 230.784 86.244V85.924C230.708 85.892 230.612 85.876 230.5 85.876ZM231.977 85.876C231.665 85.876 231.421 85.98 231.237 86.196C231.061 86.4 230.973 86.656 230.973 86.968C230.973 87.276 231.061 87.532 231.237 87.732C231.421 87.948 231.665 88.056 231.977 88.056C232.285 88.056 232.533 87.948 232.721 87.732C232.893 87.532 232.981 87.276 232.981 86.968C232.981 86.656 232.893 86.4 232.717 86.196C232.533 85.98 232.285 85.876 231.977 85.876ZM231.977 86.144C232.193 86.144 232.365 86.228 232.493 86.396C232.601 86.548 232.657 86.736 232.657 86.968C232.657 87.192 232.601 87.384 232.493 87.536C232.365 87.704 232.193 87.788 231.977 87.788C231.757 87.788 231.585 87.704 231.465 87.536C231.353 87.384 231.301 87.196 231.301 86.968C231.301 86.736 231.353 86.548 231.465 86.396C231.585 86.228 231.757 86.144 231.977 86.144ZM234.384 85.876C234.072 85.876 233.844 86.008 233.696 86.272V85.932H233.396V88.792H233.716V87.624C233.876 87.912 234.104 88.056 234.4 88.056C234.696 88.056 234.924 87.944 235.092 87.728C235.244 87.528 235.324 87.276 235.324 86.972C235.324 86.66 235.244 86.408 235.088 86.208C234.916 85.984 234.68 85.876 234.384 85.876ZM234.344 86.14C234.564 86.14 234.732 86.22 234.848 86.388C234.944 86.532 234.996 86.728 234.996 86.972C234.996 87.22 234.944 87.416 234.84 87.56C234.724 87.712 234.556 87.792 234.332 87.792C234.14 87.792 233.992 87.716 233.88 87.572C233.76 87.424 233.704 87.232 233.704 86.992V86.952C233.704 86.72 233.756 86.528 233.86 86.384C233.972 86.22 234.136 86.14 234.344 86.14ZM236.592 85.876C236.292 85.876 236.056 85.984 235.88 86.2C235.704 86.404 235.62 86.66 235.62 86.964C235.62 87.3 235.708 87.564 235.892 87.764C236.068 87.956 236.308 88.056 236.604 88.056C236.872 88.056 237.092 87.976 237.264 87.824C237.404 87.696 237.496 87.536 237.544 87.336H237.224C237.172 87.48 237.104 87.588 237.016 87.66C236.912 87.744 236.772 87.788 236.604 87.788C236.408 87.788 236.252 87.724 236.14 87.596C236.028 87.468 235.968 87.288 235.952 87.056H237.584C237.576 86.696 237.496 86.412 237.344 86.212C237.176 85.988 236.924 85.876 236.592 85.876ZM236.6 86.144C236.992 86.144 237.212 86.364 237.252 86.808H235.96C235.98 86.604 236.044 86.444 236.156 86.324C236.268 86.204 236.416 86.144 236.6 86.144ZM238.867 85.876C238.723 85.876 238.599 85.92 238.491 86.008C238.403 86.076 238.331 86.172 238.275 86.292V85.932H237.959V88H238.275V86.904C238.275 86.712 238.327 86.548 238.439 86.412C238.547 86.268 238.683 86.2 238.843 86.2C238.943 86.2 239.047 86.212 239.151 86.244V85.924C239.075 85.892 238.979 85.876 238.867 85.876ZM239.972 85.264L239.656 85.396V85.932H239.24V86.2H239.656V87.516C239.656 87.672 239.688 87.788 239.756 87.868C239.828 87.956 239.952 88 240.12 88H240.432V87.732H240.168C240.096 87.732 240.044 87.712 240.016 87.68C239.984 87.648 239.972 87.592 239.972 87.516V86.2H240.484V85.932H239.972V85.264ZM240.614 85.932L241.434 87.952L241.078 88.792H241.426L242.558 85.932H242.206L241.594 87.564L240.962 85.932H240.614ZM245.138 85.088C244.866 85.088 244.646 85.164 244.478 85.32C244.302 85.476 244.198 85.692 244.174 85.968H244.498C244.518 85.776 244.582 85.628 244.694 85.524C244.802 85.42 244.95 85.372 245.142 85.372C245.326 85.372 245.474 85.416 245.578 85.512C245.674 85.6 245.726 85.724 245.726 85.884C245.726 86.044 245.674 86.168 245.574 86.256C245.474 86.34 245.33 86.384 245.138 86.384H244.918V86.64H245.15C245.35 86.64 245.502 86.684 245.614 86.78C245.726 86.876 245.782 87.008 245.782 87.18C245.782 87.348 245.722 87.488 245.61 87.6C245.486 87.716 245.322 87.776 245.118 87.776C244.938 87.776 244.79 87.724 244.67 87.628C244.53 87.512 244.454 87.34 244.446 87.116H244.114C244.138 87.436 244.25 87.68 244.454 87.848C244.626 87.984 244.846 88.056 245.118 88.056C245.414 88.056 245.654 87.972 245.838 87.804C246.018 87.64 246.11 87.428 246.11 87.168C246.11 87 246.062 86.86 245.966 86.748C245.878 86.636 245.75 86.556 245.582 86.504C245.894 86.4 246.05 86.184 246.05 85.864C246.05 85.624 245.966 85.436 245.802 85.296C245.634 85.156 245.41 85.088 245.138 85.088Z" fill="#333333"/>
<rect x="20" y="66" width="250" height="14" fill="#F7F8FA"/>
<rect x="20" y="80.1816" width="250" height="0.4" fill="#E0E8EC"/>
<path d="M24.308 70.992V71.312H24.984V72.564H24.248V72.892H25.012C24.828 73.084 24.56 73.244 24.2 73.372L24.396 73.692C24.64 73.572 24.852 73.44 25.028 73.292V73.612H25.816V73.928H24.448V74.28H27.524V73.928H26.184V73.612H26.964V73.284C27.148 73.44 27.376 73.576 27.652 73.696L27.808 73.368C27.456 73.248 27.18 73.092 26.984 72.892H27.748V72.564H27.012V71.312H27.688V70.992H27.012V70.716H26.644V70.992H25.352V70.716H24.984V70.992H24.308ZM25.044 73.276C25.18 73.156 25.292 73.028 25.384 72.892H26.608C26.696 73.028 26.812 73.156 26.956 73.276H26.184V72.996H25.816V73.276H25.044ZM25.352 72.564V72.348H26.644V72.564H25.352ZM25.352 72.052V71.836H26.644V72.052H25.352ZM25.352 71.54V71.312H26.644V71.54H25.352ZM28.276 71.424V71.788H29.508C29.22 72.452 28.76 73 28.128 73.424L28.348 73.78C29.028 73.26 29.516 72.596 29.804 71.788H29.808V73.26H29.016V73.624H29.808V74.412H30.192V73.624H31.016V73.26H30.192V71.788H30.196C30.464 72.504 30.932 73.152 31.6 73.728L31.86 73.4C31.212 72.928 30.756 72.388 30.492 71.788H31.72V71.424H30.192V70.732H29.808V71.424H28.276ZM32.572 72.304V74.42H32.944V71.708C33.088 71.432 33.204 71.144 33.296 70.848L32.94 70.68C32.76 71.296 32.484 71.84 32.116 72.304L32.24 72.712C32.36 72.576 32.468 72.44 32.572 72.304ZM33.224 71.204V71.56H35.852V71.204H34.772C34.728 71.052 34.664 70.888 34.58 70.708L34.216 70.808C34.284 70.936 34.344 71.068 34.396 71.204H33.224ZM33.588 71.804V72.144H35.512V71.804H33.588ZM33.588 72.368V72.712H35.512V72.368H33.588ZM35.596 72.964H33.5V74.412H33.868V74.204H35.228V74.412H35.596V72.964ZM33.868 73.848V73.316H35.228V73.848H33.868ZM36.736 70.992V73.012H39.296V70.992H38.028C38.068 70.912 38.104 70.828 38.128 70.74L37.732 70.688C37.704 70.792 37.668 70.892 37.62 70.992H36.736ZM38.928 72.688H37.104V72.428H38.928V72.688ZM37.104 72.124V71.872H38.928V72.124H37.104ZM37.104 71.572V71.316H38.928V71.572H37.104ZM36.52 73.244C36.452 73.54 36.336 73.82 36.168 74.076L36.488 74.28C36.656 74.008 36.784 73.688 36.88 73.316L36.52 73.244ZM38.512 74.352C38.672 74.352 38.788 74.32 38.868 74.26C38.952 74.188 39.012 73.984 39.044 73.644L38.68 73.528C38.668 73.764 38.64 73.904 38.596 73.952C38.568 73.992 38.516 74.012 38.44 74.012H37.604C37.524 74.012 37.484 73.968 37.484 73.888V73.236H37.1V73.968C37.1 74.224 37.232 74.352 37.496 74.352H38.512ZM38.02 73.08L37.74 73.252C37.928 73.452 38.076 73.636 38.188 73.804L38.472 73.604C38.368 73.452 38.216 73.28 38.02 73.08ZM39.3 73.164L39.004 73.348C39.232 73.66 39.412 73.94 39.548 74.196L39.848 73.984C39.72 73.752 39.54 73.476 39.3 73.164Z" fill="#666666"/>
</svg>
