<svg width="290" height="160" viewBox="0 0 290 160" fill="none" xmlns="http://www.w3.org/2000/svg">
<rect x="20" y="88" width="250" height="14" fill="white"/>
<rect x="20" y="102" width="250" height="0.4" fill="#EBF0F4"/>
<path d="M25.0158 94.088C24.7438 94.088 24.5238 94.164 24.3558 94.32C24.1798 94.476 24.0758 94.692 24.0518 94.968H24.3758C24.3958 94.776 24.4598 94.628 24.5718 94.524C24.6798 94.42 24.8278 94.372 25.0198 94.372C25.2038 94.372 25.3518 94.416 25.4558 94.512C25.5518 94.6 25.6038 94.724 25.6038 94.884C25.6038 95.044 25.5518 95.168 25.4518 95.256C25.3518 95.34 25.2078 95.384 25.0158 95.384H24.7958V95.64H25.0278C25.2278 95.64 25.3798 95.684 25.4918 95.78C25.6038 95.876 25.6598 96.008 25.6598 96.18C25.6598 96.348 25.5998 96.488 25.4878 96.6C25.3638 96.716 25.1998 96.776 24.9958 96.776C24.8158 96.776 24.6678 96.724 24.5478 96.628C24.4078 96.512 24.3318 96.34 24.3238 96.116H23.9918C24.0158 96.436 24.1278 96.68 24.3318 96.848C24.5038 96.984 24.7238 97.056 24.9958 97.056C25.2918 97.056 25.5318 96.972 25.7158 96.804C25.8958 96.64 25.9878 96.428 25.9878 96.168C25.9878 96 25.9398 95.86 25.8438 95.748C25.7558 95.636 25.6278 95.556 25.4598 95.504C25.7718 95.4 25.9278 95.184 25.9278 94.864C25.9278 94.624 25.8438 94.436 25.6798 94.296C25.5118 94.156 25.2878 94.088 25.0158 94.088Z" fill="#333333"/>
<path d="M149.948 93.876C149.636 93.876 149.408 94.008 149.26 94.272V93.932H148.96V96.792H149.28V95.624C149.44 95.912 149.668 96.056 149.964 96.056C150.26 96.056 150.488 95.944 150.656 95.728C150.808 95.528 150.888 95.276 150.888 94.972C150.888 94.66 150.808 94.408 150.652 94.208C150.48 93.984 150.244 93.876 149.948 93.876ZM149.908 94.14C150.128 94.14 150.296 94.22 150.412 94.388C150.508 94.532 150.56 94.728 150.56 94.972C150.56 95.22 150.508 95.416 150.404 95.56C150.288 95.712 150.12 95.792 149.896 95.792C149.704 95.792 149.556 95.716 149.444 95.572C149.324 95.424 149.268 95.232 149.268 94.992V94.952C149.268 94.72 149.32 94.528 149.424 94.384C149.536 94.22 149.7 94.14 149.908 94.14ZM152.212 93.876C152.068 93.876 151.944 93.92 151.836 94.008C151.748 94.076 151.676 94.172 151.62 94.292V93.932H151.304V96H151.62V94.904C151.62 94.712 151.672 94.548 151.784 94.412C151.892 94.268 152.028 94.2 152.188 94.2C152.288 94.2 152.392 94.212 152.496 94.244V93.924C152.42 93.892 152.324 93.876 152.212 93.876ZM153.689 93.876C153.377 93.876 153.133 93.98 152.949 94.196C152.773 94.4 152.685 94.656 152.685 94.968C152.685 95.276 152.773 95.532 152.949 95.732C153.133 95.948 153.377 96.056 153.689 96.056C153.997 96.056 154.245 95.948 154.433 95.732C154.605 95.532 154.693 95.276 154.693 94.968C154.693 94.656 154.605 94.4 154.429 94.196C154.245 93.98 153.997 93.876 153.689 93.876ZM153.689 94.144C153.905 94.144 154.077 94.228 154.205 94.396C154.313 94.548 154.369 94.736 154.369 94.968C154.369 95.192 154.313 95.384 154.205 95.536C154.077 95.704 153.905 95.788 153.689 95.788C153.469 95.788 153.297 95.704 153.177 95.536C153.065 95.384 153.013 95.196 153.013 94.968C153.013 94.736 153.065 94.548 153.177 94.396C153.297 94.228 153.469 94.144 153.689 94.144ZM156.097 93.876C155.785 93.876 155.557 94.008 155.409 94.272V93.932H155.109V96.792H155.429V95.624C155.589 95.912 155.817 96.056 156.113 96.056C156.409 96.056 156.637 95.944 156.805 95.728C156.957 95.528 157.037 95.276 157.037 94.972C157.037 94.66 156.957 94.408 156.801 94.208C156.629 93.984 156.393 93.876 156.097 93.876ZM156.057 94.14C156.277 94.14 156.445 94.22 156.561 94.388C156.657 94.532 156.709 94.728 156.709 94.972C156.709 95.22 156.657 95.416 156.553 95.56C156.437 95.712 156.269 95.792 156.045 95.792C155.853 95.792 155.705 95.716 155.593 95.572C155.473 95.424 155.417 95.232 155.417 94.992V94.952C155.417 94.72 155.469 94.528 155.573 94.384C155.685 94.22 155.849 94.14 156.057 94.14ZM158.304 93.876C158.004 93.876 157.768 93.984 157.592 94.2C157.416 94.404 157.332 94.66 157.332 94.964C157.332 95.3 157.42 95.564 157.604 95.764C157.78 95.956 158.02 96.056 158.316 96.056C158.584 96.056 158.804 95.976 158.976 95.824C159.116 95.696 159.208 95.536 159.256 95.336H158.936C158.884 95.48 158.816 95.588 158.728 95.66C158.624 95.744 158.484 95.788 158.316 95.788C158.12 95.788 157.964 95.724 157.852 95.596C157.74 95.468 157.68 95.288 157.664 95.056H159.296C159.288 94.696 159.208 94.412 159.056 94.212C158.888 93.988 158.636 93.876 158.304 93.876ZM158.312 94.144C158.704 94.144 158.924 94.364 158.964 94.808H157.672C157.692 94.604 157.756 94.444 157.868 94.324C157.98 94.204 158.128 94.144 158.312 94.144ZM160.579 93.876C160.435 93.876 160.311 93.92 160.203 94.008C160.115 94.076 160.043 94.172 159.987 94.292V93.932H159.671V96H159.987V94.904C159.987 94.712 160.039 94.548 160.151 94.412C160.259 94.268 160.395 94.2 160.555 94.2C160.655 94.2 160.759 94.212 160.863 94.244V93.924C160.787 93.892 160.691 93.876 160.579 93.876ZM161.684 93.264L161.368 93.396V93.932H160.952V94.2H161.368V95.516C161.368 95.672 161.4 95.788 161.468 95.868C161.54 95.956 161.664 96 161.832 96H162.144V95.732H161.88C161.808 95.732 161.756 95.712 161.728 95.68C161.696 95.648 161.684 95.592 161.684 95.516V94.2H162.196V93.932H161.684V93.264ZM162.326 93.932L163.146 95.952L162.79 96.792H163.138L164.27 93.932H163.918L163.306 95.564L162.674 93.932H162.326ZM166.542 93.144C166.446 93.252 166.334 93.348 166.198 93.436C166.062 93.516 165.926 93.572 165.798 93.608V93.936C166.066 93.856 166.29 93.728 166.47 93.544V96H166.798V93.144H166.542Z" fill="#333333"/>
<path d="M195.259 93.876C194.947 93.876 194.719 94.008 194.571 94.272V93.932H194.271V96.792H194.591V95.624C194.751 95.912 194.979 96.056 195.275 96.056C195.571 96.056 195.799 95.944 195.967 95.728C196.119 95.528 196.199 95.276 196.199 94.972C196.199 94.66 196.119 94.408 195.963 94.208C195.791 93.984 195.555 93.876 195.259 93.876ZM195.219 94.14C195.439 94.14 195.607 94.22 195.723 94.388C195.819 94.532 195.871 94.728 195.871 94.972C195.871 95.22 195.819 95.416 195.715 95.56C195.599 95.712 195.431 95.792 195.207 95.792C195.015 95.792 194.867 95.716 194.755 95.572C194.635 95.424 194.579 95.232 194.579 94.992V94.952C194.579 94.72 194.631 94.528 194.735 94.384C194.847 94.22 195.011 94.14 195.219 94.14ZM197.522 93.876C197.378 93.876 197.254 93.92 197.146 94.008C197.058 94.076 196.986 94.172 196.93 94.292V93.932H196.614V96H196.93V94.904C196.93 94.712 196.982 94.548 197.094 94.412C197.202 94.268 197.338 94.2 197.498 94.2C197.598 94.2 197.702 94.212 197.806 94.244V93.924C197.73 93.892 197.634 93.876 197.522 93.876ZM198.999 93.876C198.687 93.876 198.443 93.98 198.259 94.196C198.083 94.4 197.995 94.656 197.995 94.968C197.995 95.276 198.083 95.532 198.259 95.732C198.443 95.948 198.687 96.056 198.999 96.056C199.307 96.056 199.555 95.948 199.743 95.732C199.915 95.532 200.003 95.276 200.003 94.968C200.003 94.656 199.915 94.4 199.739 94.196C199.555 93.98 199.307 93.876 198.999 93.876ZM198.999 94.144C199.215 94.144 199.387 94.228 199.515 94.396C199.623 94.548 199.679 94.736 199.679 94.968C199.679 95.192 199.623 95.384 199.515 95.536C199.387 95.704 199.215 95.788 198.999 95.788C198.779 95.788 198.607 95.704 198.487 95.536C198.375 95.384 198.323 95.196 198.323 94.968C198.323 94.736 198.375 94.548 198.487 94.396C198.607 94.228 198.779 94.144 198.999 94.144ZM201.407 93.876C201.095 93.876 200.867 94.008 200.719 94.272V93.932H200.419V96.792H200.739V95.624C200.899 95.912 201.127 96.056 201.423 96.056C201.719 96.056 201.947 95.944 202.115 95.728C202.267 95.528 202.347 95.276 202.347 94.972C202.347 94.66 202.267 94.408 202.111 94.208C201.939 93.984 201.703 93.876 201.407 93.876ZM201.367 94.14C201.587 94.14 201.755 94.22 201.871 94.388C201.967 94.532 202.019 94.728 202.019 94.972C202.019 95.22 201.967 95.416 201.863 95.56C201.747 95.712 201.579 95.792 201.355 95.792C201.163 95.792 201.015 95.716 200.903 95.572C200.783 95.424 200.727 95.232 200.727 94.992V94.952C200.727 94.72 200.779 94.528 200.883 94.384C200.995 94.22 201.159 94.14 201.367 94.14ZM203.615 93.876C203.315 93.876 203.079 93.984 202.903 94.2C202.727 94.404 202.643 94.66 202.643 94.964C202.643 95.3 202.731 95.564 202.915 95.764C203.091 95.956 203.331 96.056 203.627 96.056C203.895 96.056 204.115 95.976 204.287 95.824C204.427 95.696 204.519 95.536 204.567 95.336H204.247C204.195 95.48 204.127 95.588 204.039 95.66C203.935 95.744 203.795 95.788 203.627 95.788C203.431 95.788 203.275 95.724 203.163 95.596C203.051 95.468 202.991 95.288 202.975 95.056H204.607C204.599 94.696 204.519 94.412 204.367 94.212C204.199 93.988 203.947 93.876 203.615 93.876ZM203.623 94.144C204.015 94.144 204.235 94.364 204.275 94.808H202.983C203.003 94.604 203.067 94.444 203.179 94.324C203.291 94.204 203.439 94.144 203.623 94.144ZM205.89 93.876C205.746 93.876 205.622 93.92 205.514 94.008C205.426 94.076 205.354 94.172 205.298 94.292V93.932H204.982V96H205.298V94.904C205.298 94.712 205.35 94.548 205.462 94.412C205.57 94.268 205.706 94.2 205.866 94.2C205.966 94.2 206.07 94.212 206.174 94.244V93.924C206.098 93.892 206.002 93.876 205.89 93.876ZM206.995 93.264L206.679 93.396V93.932H206.263V94.2H206.679V95.516C206.679 95.672 206.711 95.788 206.779 95.868C206.851 95.956 206.975 96 207.143 96H207.455V95.732H207.191C207.119 95.732 207.067 95.712 207.039 95.68C207.007 95.648 206.995 95.592 206.995 95.516V94.2H207.507V93.932H206.995V93.264ZM207.636 93.932L208.456 95.952L208.1 96.792H208.448L209.58 93.932H209.228L208.616 95.564L207.984 93.932H207.636ZM212.173 93.088C211.885 93.088 211.649 93.184 211.473 93.376C211.297 93.564 211.205 93.82 211.205 94.14H211.533C211.537 93.888 211.597 93.696 211.709 93.568C211.813 93.432 211.965 93.368 212.161 93.368C212.345 93.368 212.493 93.416 212.597 93.512C212.701 93.608 212.753 93.74 212.753 93.916C212.753 94.1 212.677 94.272 212.533 94.428C212.457 94.508 212.309 94.624 212.085 94.784C211.781 94.992 211.577 95.164 211.465 95.292C211.273 95.504 211.181 95.74 211.181 96H213.085V95.708H211.585C211.637 95.516 211.845 95.296 212.209 95.052C212.505 94.852 212.701 94.696 212.801 94.592C212.985 94.392 213.081 94.168 213.081 93.92C213.081 93.672 212.993 93.468 212.825 93.316C212.653 93.164 212.437 93.088 212.173 93.088Z" fill="#333333"/>
<path d="M241.138 93.876C240.826 93.876 240.598 94.008 240.45 94.272V93.932H240.15V96.792H240.47V95.624C240.63 95.912 240.858 96.056 241.154 96.056C241.45 96.056 241.678 95.944 241.846 95.728C241.998 95.528 242.078 95.276 242.078 94.972C242.078 94.66 241.998 94.408 241.842 94.208C241.67 93.984 241.434 93.876 241.138 93.876ZM241.098 94.14C241.318 94.14 241.486 94.22 241.602 94.388C241.698 94.532 241.75 94.728 241.75 94.972C241.75 95.22 241.698 95.416 241.594 95.56C241.478 95.712 241.31 95.792 241.086 95.792C240.894 95.792 240.746 95.716 240.634 95.572C240.514 95.424 240.458 95.232 240.458 94.992V94.952C240.458 94.72 240.51 94.528 240.614 94.384C240.726 94.22 240.89 94.14 241.098 94.14ZM243.401 93.876C243.257 93.876 243.133 93.92 243.025 94.008C242.937 94.076 242.865 94.172 242.809 94.292V93.932H242.493V96H242.809V94.904C242.809 94.712 242.861 94.548 242.973 94.412C243.081 94.268 243.217 94.2 243.377 94.2C243.477 94.2 243.581 94.212 243.685 94.244V93.924C243.609 93.892 243.513 93.876 243.401 93.876ZM244.878 93.876C244.566 93.876 244.322 93.98 244.138 94.196C243.962 94.4 243.874 94.656 243.874 94.968C243.874 95.276 243.962 95.532 244.138 95.732C244.322 95.948 244.566 96.056 244.878 96.056C245.186 96.056 245.434 95.948 245.622 95.732C245.794 95.532 245.882 95.276 245.882 94.968C245.882 94.656 245.794 94.4 245.618 94.196C245.434 93.98 245.186 93.876 244.878 93.876ZM244.878 94.144C245.094 94.144 245.266 94.228 245.394 94.396C245.502 94.548 245.558 94.736 245.558 94.968C245.558 95.192 245.502 95.384 245.394 95.536C245.266 95.704 245.094 95.788 244.878 95.788C244.658 95.788 244.486 95.704 244.366 95.536C244.254 95.384 244.202 95.196 244.202 94.968C244.202 94.736 244.254 94.548 244.366 94.396C244.486 94.228 244.658 94.144 244.878 94.144ZM247.286 93.876C246.974 93.876 246.746 94.008 246.598 94.272V93.932H246.298V96.792H246.618V95.624C246.778 95.912 247.006 96.056 247.302 96.056C247.598 96.056 247.826 95.944 247.994 95.728C248.146 95.528 248.226 95.276 248.226 94.972C248.226 94.66 248.146 94.408 247.99 94.208C247.818 93.984 247.582 93.876 247.286 93.876ZM247.246 94.14C247.466 94.14 247.634 94.22 247.75 94.388C247.846 94.532 247.898 94.728 247.898 94.972C247.898 95.22 247.846 95.416 247.742 95.56C247.626 95.712 247.458 95.792 247.234 95.792C247.042 95.792 246.894 95.716 246.782 95.572C246.662 95.424 246.606 95.232 246.606 94.992V94.952C246.606 94.72 246.658 94.528 246.762 94.384C246.874 94.22 247.038 94.14 247.246 94.14ZM249.494 93.876C249.194 93.876 248.958 93.984 248.782 94.2C248.606 94.404 248.522 94.66 248.522 94.964C248.522 95.3 248.61 95.564 248.794 95.764C248.97 95.956 249.21 96.056 249.506 96.056C249.774 96.056 249.994 95.976 250.166 95.824C250.306 95.696 250.398 95.536 250.446 95.336H250.126C250.074 95.48 250.006 95.588 249.918 95.66C249.814 95.744 249.674 95.788 249.506 95.788C249.31 95.788 249.154 95.724 249.042 95.596C248.93 95.468 248.87 95.288 248.854 95.056H250.486C250.478 94.696 250.398 94.412 250.246 94.212C250.078 93.988 249.826 93.876 249.494 93.876ZM249.502 94.144C249.894 94.144 250.114 94.364 250.154 94.808H248.862C248.882 94.604 248.946 94.444 249.058 94.324C249.17 94.204 249.318 94.144 249.502 94.144ZM251.769 93.876C251.625 93.876 251.501 93.92 251.393 94.008C251.305 94.076 251.233 94.172 251.177 94.292V93.932H250.861V96H251.177V94.904C251.177 94.712 251.229 94.548 251.341 94.412C251.449 94.268 251.585 94.2 251.745 94.2C251.845 94.2 251.949 94.212 252.053 94.244V93.924C251.977 93.892 251.881 93.876 251.769 93.876ZM252.873 93.264L252.557 93.396V93.932H252.141V94.2H252.557V95.516C252.557 95.672 252.589 95.788 252.657 95.868C252.729 95.956 252.853 96 253.021 96H253.333V95.732H253.069C252.997 95.732 252.945 95.712 252.917 95.68C252.885 95.648 252.873 95.592 252.873 95.516V94.2H253.385V93.932H252.873V93.264ZM253.515 93.932L254.335 95.952L253.979 96.792H254.327L255.459 93.932H255.107L254.495 95.564L253.863 93.932H253.515ZM258.04 93.088C257.768 93.088 257.548 93.164 257.38 93.32C257.204 93.476 257.1 93.692 257.076 93.968H257.4C257.42 93.776 257.484 93.628 257.596 93.524C257.704 93.42 257.852 93.372 258.044 93.372C258.228 93.372 258.376 93.416 258.48 93.512C258.576 93.6 258.628 93.724 258.628 93.884C258.628 94.044 258.576 94.168 258.476 94.256C258.376 94.34 258.232 94.384 258.04 94.384H257.82V94.64H258.052C258.252 94.64 258.404 94.684 258.516 94.78C258.628 94.876 258.684 95.008 258.684 95.18C258.684 95.348 258.624 95.488 258.512 95.6C258.388 95.716 258.224 95.776 258.02 95.776C257.84 95.776 257.692 95.724 257.572 95.628C257.432 95.512 257.356 95.34 257.348 95.116H257.016C257.04 95.436 257.152 95.68 257.356 95.848C257.528 95.984 257.748 96.056 258.02 96.056C258.316 96.056 258.556 95.972 258.74 95.804C258.92 95.64 259.012 95.428 259.012 95.168C259.012 95 258.964 94.86 258.868 94.748C258.78 94.636 258.652 94.556 258.484 94.504C258.796 94.4 258.952 94.184 258.952 93.864C258.952 93.624 258.868 93.436 258.704 93.296C258.536 93.156 258.312 93.088 258.04 93.088Z" fill="#333333"/>
<path d="M53.2703 93.088C52.9823 93.088 52.7463 93.184 52.5703 93.376C52.3943 93.564 52.3023 93.82 52.3023 94.14H52.6303C52.6343 93.888 52.6943 93.696 52.8063 93.568C52.9103 93.432 53.0623 93.368 53.2583 93.368C53.4423 93.368 53.5903 93.416 53.6943 93.512C53.7983 93.608 53.8503 93.74 53.8503 93.916C53.8503 94.1 53.7743 94.272 53.6303 94.428C53.5543 94.508 53.4063 94.624 53.1823 94.784C52.8783 94.992 52.6743 95.164 52.5623 95.292C52.3703 95.504 52.2783 95.74 52.2783 96H54.1823V95.708H52.6823C52.7343 95.516 52.9423 95.296 53.3063 95.052C53.6023 94.852 53.7983 94.696 53.8983 94.592C54.0823 94.392 54.1783 94.168 54.1783 93.92C54.1783 93.672 54.0903 93.468 53.9223 93.316C53.7503 93.164 53.5343 93.088 53.2703 93.088ZM55.6287 93.088C55.2847 93.088 55.0287 93.236 54.8567 93.54C54.7047 93.796 54.6287 94.14 54.6287 94.572C54.6287 95.004 54.7047 95.348 54.8567 95.604C55.0287 95.904 55.2847 96.056 55.6287 96.056C55.9687 96.056 56.2247 95.904 56.4007 95.604C56.5527 95.348 56.6287 95.004 56.6287 94.572C56.6287 94.14 56.5527 93.796 56.4007 93.54C56.2247 93.236 55.9687 93.088 55.6287 93.088ZM55.6287 93.368C55.8847 93.368 56.0687 93.504 56.1807 93.78C56.2607 93.972 56.3047 94.236 56.3047 94.572C56.3047 94.904 56.2607 95.168 56.1807 95.364C56.0687 95.636 55.8847 95.776 55.6287 95.776C55.3727 95.776 55.1887 95.636 55.0767 95.364C54.9967 95.168 54.9567 94.904 54.9567 94.572C54.9567 94.236 54.9967 93.972 55.0767 93.78C55.1887 93.504 55.3727 93.368 55.6287 93.368ZM58.0671 93.088C57.7791 93.088 57.5431 93.184 57.3671 93.376C57.1911 93.564 57.0991 93.82 57.0991 94.14H57.4271C57.4311 93.888 57.4911 93.696 57.6031 93.568C57.7071 93.432 57.8591 93.368 58.0551 93.368C58.2391 93.368 58.3871 93.416 58.4911 93.512C58.5951 93.608 58.6471 93.74 58.6471 93.916C58.6471 94.1 58.5711 94.272 58.4271 94.428C58.3511 94.508 58.2031 94.624 57.9791 94.784C57.6751 94.992 57.4711 95.164 57.3591 95.292C57.1671 95.504 57.0751 95.74 57.0751 96H58.9791V95.708H57.4791C57.5311 95.516 57.7391 95.296 58.1031 95.052C58.3991 94.852 58.5951 94.696 58.6951 94.592C58.8791 94.392 58.9751 94.168 58.9751 93.92C58.9751 93.672 58.8871 93.468 58.7191 93.316C58.5471 93.164 58.3311 93.088 58.0671 93.088ZM60.4256 93.088C60.0816 93.088 59.8256 93.236 59.6536 93.54C59.5016 93.796 59.4256 94.14 59.4256 94.572C59.4256 95.004 59.5016 95.348 59.6536 95.604C59.8256 95.904 60.0816 96.056 60.4256 96.056C60.7656 96.056 61.0216 95.904 61.1976 95.604C61.3496 95.348 61.4256 95.004 61.4256 94.572C61.4256 94.14 61.3496 93.796 61.1976 93.54C61.0216 93.236 60.7656 93.088 60.4256 93.088ZM60.4256 93.368C60.6816 93.368 60.8656 93.504 60.9776 93.78C61.0576 93.972 61.1016 94.236 61.1016 94.572C61.1016 94.904 61.0576 95.168 60.9776 95.364C60.8656 95.636 60.6816 95.776 60.4256 95.776C60.1696 95.776 59.9856 95.636 59.8736 95.364C59.7936 95.168 59.7536 94.904 59.7536 94.572C59.7536 94.236 59.7936 93.972 59.8736 93.78C59.9856 93.504 60.1696 93.368 60.4256 93.368ZM61.824 94.828V95.1H63.844V94.828H61.824ZM65.2459 93.088C64.9019 93.088 64.6459 93.236 64.4739 93.54C64.3219 93.796 64.2459 94.14 64.2459 94.572C64.2459 95.004 64.3219 95.348 64.4739 95.604C64.6459 95.904 64.9019 96.056 65.2459 96.056C65.5859 96.056 65.8419 95.904 66.0179 95.604C66.1699 95.348 66.2459 95.004 66.2459 94.572C66.2459 94.14 66.1699 93.796 66.0179 93.54C65.8419 93.236 65.5859 93.088 65.2459 93.088ZM65.2459 93.368C65.5019 93.368 65.6859 93.504 65.7979 93.78C65.8779 93.972 65.9219 94.236 65.9219 94.572C65.9219 94.904 65.8779 95.168 65.7979 95.364C65.6859 95.636 65.5019 95.776 65.2459 95.776C64.9899 95.776 64.8059 95.636 64.6939 95.364C64.6139 95.168 64.5739 94.904 64.5739 94.572C64.5739 94.236 64.6139 93.972 64.6939 93.78C64.8059 93.504 64.9899 93.368 65.2459 93.368ZM66.5803 93.144V93.444H68.1203L67.0563 96H67.4043L68.4563 93.412V93.144H66.5803ZM68.8318 94.828V95.1H70.8518V94.828H68.8318ZM71.9737 93.144C71.8777 93.252 71.7657 93.348 71.6297 93.436C71.4937 93.516 71.3577 93.572 71.2297 93.608V93.936C71.4977 93.856 71.7217 93.728 71.9017 93.544V96H72.2297V93.144H71.9737ZM73.8592 93.088C73.5152 93.088 73.2592 93.236 73.0872 93.54C72.9352 93.796 72.8592 94.14 72.8592 94.572C72.8592 95.004 72.9352 95.348 73.0872 95.604C73.2592 95.904 73.5152 96.056 73.8592 96.056C74.1992 96.056 74.4552 95.904 74.6312 95.604C74.7832 95.348 74.8592 95.004 74.8592 94.572C74.8592 94.14 74.7832 93.796 74.6312 93.54C74.4552 93.236 74.1992 93.088 73.8592 93.088ZM73.8592 93.368C74.1152 93.368 74.2992 93.504 74.4112 93.78C74.4912 93.972 74.5352 94.236 74.5352 94.572C74.5352 94.904 74.4912 95.168 74.4112 95.364C74.2992 95.636 74.1152 95.776 73.8592 95.776C73.6032 95.776 73.4192 95.636 73.3072 95.364C73.2272 95.168 73.1872 94.904 73.1872 94.572C73.1872 94.236 73.2272 93.972 73.3072 93.78C73.4192 93.504 73.6032 93.368 73.8592 93.368Z" fill="#333333"/>
<path d="M101.611 93.088C101.323 93.088 101.087 93.184 100.911 93.376C100.735 93.564 100.643 93.82 100.643 94.14H100.971C100.975 93.888 101.035 93.696 101.147 93.568C101.251 93.432 101.403 93.368 101.599 93.368C101.783 93.368 101.931 93.416 102.035 93.512C102.139 93.608 102.191 93.74 102.191 93.916C102.191 94.1 102.115 94.272 101.971 94.428C101.895 94.508 101.747 94.624 101.523 94.784C101.219 94.992 101.015 95.164 100.903 95.292C100.711 95.504 100.619 95.74 100.619 96H102.523V95.708H101.023C101.075 95.516 101.283 95.296 101.647 95.052C101.943 94.852 102.139 94.696 102.239 94.592C102.423 94.392 102.519 94.168 102.519 93.92C102.519 93.672 102.431 93.468 102.263 93.316C102.091 93.164 101.875 93.088 101.611 93.088ZM103.97 93.088C103.626 93.088 103.37 93.236 103.198 93.54C103.046 93.796 102.97 94.14 102.97 94.572C102.97 95.004 103.046 95.348 103.198 95.604C103.37 95.904 103.626 96.056 103.97 96.056C104.31 96.056 104.566 95.904 104.742 95.604C104.894 95.348 104.97 95.004 104.97 94.572C104.97 94.14 104.894 93.796 104.742 93.54C104.566 93.236 104.31 93.088 103.97 93.088ZM103.97 93.368C104.226 93.368 104.41 93.504 104.522 93.78C104.602 93.972 104.646 94.236 104.646 94.572C104.646 94.904 104.602 95.168 104.522 95.364C104.41 95.636 104.226 95.776 103.97 95.776C103.714 95.776 103.53 95.636 103.418 95.364C103.338 95.168 103.298 94.904 103.298 94.572C103.298 94.236 103.338 93.972 103.418 93.78C103.53 93.504 103.714 93.368 103.97 93.368ZM106.408 93.088C106.12 93.088 105.884 93.184 105.708 93.376C105.532 93.564 105.44 93.82 105.44 94.14H105.768C105.772 93.888 105.832 93.696 105.944 93.568C106.048 93.432 106.2 93.368 106.396 93.368C106.58 93.368 106.728 93.416 106.832 93.512C106.936 93.608 106.988 93.74 106.988 93.916C106.988 94.1 106.912 94.272 106.768 94.428C106.692 94.508 106.544 94.624 106.32 94.784C106.016 94.992 105.812 95.164 105.7 95.292C105.508 95.504 105.416 95.74 105.416 96H107.32V95.708H105.82C105.872 95.516 106.08 95.296 106.444 95.052C106.74 94.852 106.936 94.696 107.036 94.592C107.22 94.392 107.316 94.168 107.316 93.92C107.316 93.672 107.228 93.468 107.06 93.316C106.888 93.164 106.672 93.088 106.408 93.088ZM108.766 93.088C108.422 93.088 108.166 93.236 107.994 93.54C107.842 93.796 107.766 94.14 107.766 94.572C107.766 95.004 107.842 95.348 107.994 95.604C108.166 95.904 108.422 96.056 108.766 96.056C109.106 96.056 109.362 95.904 109.538 95.604C109.69 95.348 109.766 95.004 109.766 94.572C109.766 94.14 109.69 93.796 109.538 93.54C109.362 93.236 109.106 93.088 108.766 93.088ZM108.766 93.368C109.022 93.368 109.206 93.504 109.318 93.78C109.398 93.972 109.442 94.236 109.442 94.572C109.442 94.904 109.398 95.168 109.318 95.364C109.206 95.636 109.022 95.776 108.766 95.776C108.51 95.776 108.326 95.636 108.214 95.364C108.134 95.168 108.094 94.904 108.094 94.572C108.094 94.236 108.134 93.972 108.214 93.78C108.326 93.504 108.51 93.368 108.766 93.368ZM110.165 94.828V95.1H112.185V94.828H110.165ZM113.587 93.088C113.243 93.088 112.987 93.236 112.815 93.54C112.663 93.796 112.587 94.14 112.587 94.572C112.587 95.004 112.663 95.348 112.815 95.604C112.987 95.904 113.243 96.056 113.587 96.056C113.927 96.056 114.183 95.904 114.359 95.604C114.511 95.348 114.587 95.004 114.587 94.572C114.587 94.14 114.511 93.796 114.359 93.54C114.183 93.236 113.927 93.088 113.587 93.088ZM113.587 93.368C113.843 93.368 114.027 93.504 114.139 93.78C114.219 93.972 114.263 94.236 114.263 94.572C114.263 94.904 114.219 95.168 114.139 95.364C114.027 95.636 113.843 95.776 113.587 95.776C113.331 95.776 113.147 95.636 113.035 95.364C112.955 95.168 112.915 94.904 112.915 94.572C112.915 94.236 112.955 93.972 113.035 93.78C113.147 93.504 113.331 93.368 113.587 93.368ZM114.921 93.144V93.444H116.461L115.397 96H115.745L116.797 93.412V93.144H114.921ZM117.173 94.828V95.1H119.193V94.828H117.173ZM120.315 93.144C120.219 93.252 120.107 93.348 119.971 93.436C119.835 93.516 119.699 93.572 119.571 93.608V93.936C119.839 93.856 120.063 93.728 120.243 93.544V96H120.571V93.144H120.315ZM122.2 93.088C121.856 93.088 121.6 93.236 121.428 93.54C121.276 93.796 121.2 94.14 121.2 94.572C121.2 95.004 121.276 95.348 121.428 95.604C121.6 95.904 121.856 96.056 122.2 96.056C122.54 96.056 122.796 95.904 122.972 95.604C123.124 95.348 123.2 95.004 123.2 94.572C123.2 94.14 123.124 93.796 122.972 93.54C122.796 93.236 122.54 93.088 122.2 93.088ZM122.2 93.368C122.456 93.368 122.64 93.504 122.752 93.78C122.832 93.972 122.876 94.236 122.876 94.572C122.876 94.904 122.832 95.168 122.752 95.364C122.64 95.636 122.456 95.776 122.2 95.776C121.944 95.776 121.76 95.636 121.648 95.364C121.568 95.168 121.528 94.904 121.528 94.572C121.528 94.236 121.568 93.972 121.648 93.78C121.76 93.504 121.944 93.368 122.2 93.368Z" fill="#333333"/>
<rect x="20" y="74" width="250" height="14" fill="white"/>
<rect x="20" y="88" width="250" height="0.4" fill="#EBF0F4"/>
<path d="M25.0278 80.088C24.7398 80.088 24.5038 80.184 24.3278 80.376C24.1518 80.564 24.0598 80.82 24.0598 81.14H24.3878C24.3918 80.888 24.4518 80.696 24.5638 80.568C24.6678 80.432 24.8198 80.368 25.0158 80.368C25.1998 80.368 25.3478 80.416 25.4518 80.512C25.5558 80.608 25.6078 80.74 25.6078 80.916C25.6078 81.1 25.5318 81.272 25.3878 81.428C25.3118 81.508 25.1638 81.624 24.9398 81.784C24.6358 81.992 24.4318 82.164 24.3198 82.292C24.1278 82.504 24.0358 82.74 24.0358 83H25.9398V82.708H24.4398C24.4918 82.516 24.6998 82.296 25.0638 82.052C25.3598 81.852 25.5558 81.696 25.6558 81.592C25.8398 81.392 25.9358 81.168 25.9358 80.92C25.9358 80.672 25.8478 80.468 25.6798 80.316C25.5078 80.164 25.2918 80.088 25.0278 80.088Z" fill="#333333"/>
<path d="M149.948 79.876C149.636 79.876 149.408 80.008 149.26 80.272V79.932H148.96V82.792H149.28V81.624C149.44 81.912 149.668 82.056 149.964 82.056C150.26 82.056 150.488 81.944 150.656 81.728C150.808 81.528 150.888 81.276 150.888 80.972C150.888 80.66 150.808 80.408 150.652 80.208C150.48 79.984 150.244 79.876 149.948 79.876ZM149.908 80.14C150.128 80.14 150.296 80.22 150.412 80.388C150.508 80.532 150.56 80.728 150.56 80.972C150.56 81.22 150.508 81.416 150.404 81.56C150.288 81.712 150.12 81.792 149.896 81.792C149.704 81.792 149.556 81.716 149.444 81.572C149.324 81.424 149.268 81.232 149.268 80.992V80.952C149.268 80.72 149.32 80.528 149.424 80.384C149.536 80.22 149.7 80.14 149.908 80.14ZM152.212 79.876C152.068 79.876 151.944 79.92 151.836 80.008C151.748 80.076 151.676 80.172 151.62 80.292V79.932H151.304V82H151.62V80.904C151.62 80.712 151.672 80.548 151.784 80.412C151.892 80.268 152.028 80.2 152.188 80.2C152.288 80.2 152.392 80.212 152.496 80.244V79.924C152.42 79.892 152.324 79.876 152.212 79.876ZM153.689 79.876C153.377 79.876 153.133 79.98 152.949 80.196C152.773 80.4 152.685 80.656 152.685 80.968C152.685 81.276 152.773 81.532 152.949 81.732C153.133 81.948 153.377 82.056 153.689 82.056C153.997 82.056 154.245 81.948 154.433 81.732C154.605 81.532 154.693 81.276 154.693 80.968C154.693 80.656 154.605 80.4 154.429 80.196C154.245 79.98 153.997 79.876 153.689 79.876ZM153.689 80.144C153.905 80.144 154.077 80.228 154.205 80.396C154.313 80.548 154.369 80.736 154.369 80.968C154.369 81.192 154.313 81.384 154.205 81.536C154.077 81.704 153.905 81.788 153.689 81.788C153.469 81.788 153.297 81.704 153.177 81.536C153.065 81.384 153.013 81.196 153.013 80.968C153.013 80.736 153.065 80.548 153.177 80.396C153.297 80.228 153.469 80.144 153.689 80.144ZM156.097 79.876C155.785 79.876 155.557 80.008 155.409 80.272V79.932H155.109V82.792H155.429V81.624C155.589 81.912 155.817 82.056 156.113 82.056C156.409 82.056 156.637 81.944 156.805 81.728C156.957 81.528 157.037 81.276 157.037 80.972C157.037 80.66 156.957 80.408 156.801 80.208C156.629 79.984 156.393 79.876 156.097 79.876ZM156.057 80.14C156.277 80.14 156.445 80.22 156.561 80.388C156.657 80.532 156.709 80.728 156.709 80.972C156.709 81.22 156.657 81.416 156.553 81.56C156.437 81.712 156.269 81.792 156.045 81.792C155.853 81.792 155.705 81.716 155.593 81.572C155.473 81.424 155.417 81.232 155.417 80.992V80.952C155.417 80.72 155.469 80.528 155.573 80.384C155.685 80.22 155.849 80.14 156.057 80.14ZM158.304 79.876C158.004 79.876 157.768 79.984 157.592 80.2C157.416 80.404 157.332 80.66 157.332 80.964C157.332 81.3 157.42 81.564 157.604 81.764C157.78 81.956 158.02 82.056 158.316 82.056C158.584 82.056 158.804 81.976 158.976 81.824C159.116 81.696 159.208 81.536 159.256 81.336H158.936C158.884 81.48 158.816 81.588 158.728 81.66C158.624 81.744 158.484 81.788 158.316 81.788C158.12 81.788 157.964 81.724 157.852 81.596C157.74 81.468 157.68 81.288 157.664 81.056H159.296C159.288 80.696 159.208 80.412 159.056 80.212C158.888 79.988 158.636 79.876 158.304 79.876ZM158.312 80.144C158.704 80.144 158.924 80.364 158.964 80.808H157.672C157.692 80.604 157.756 80.444 157.868 80.324C157.98 80.204 158.128 80.144 158.312 80.144ZM160.579 79.876C160.435 79.876 160.311 79.92 160.203 80.008C160.115 80.076 160.043 80.172 159.987 80.292V79.932H159.671V82H159.987V80.904C159.987 80.712 160.039 80.548 160.151 80.412C160.259 80.268 160.395 80.2 160.555 80.2C160.655 80.2 160.759 80.212 160.863 80.244V79.924C160.787 79.892 160.691 79.876 160.579 79.876ZM161.684 79.264L161.368 79.396V79.932H160.952V80.2H161.368V81.516C161.368 81.672 161.4 81.788 161.468 81.868C161.54 81.956 161.664 82 161.832 82H162.144V81.732H161.88C161.808 81.732 161.756 81.712 161.728 81.68C161.696 81.648 161.684 81.592 161.684 81.516V80.2H162.196V79.932H161.684V79.264ZM162.326 79.932L163.146 81.952L162.79 82.792H163.138L164.27 79.932H163.918L163.306 81.564L162.674 79.932H162.326ZM166.542 79.144C166.446 79.252 166.334 79.348 166.198 79.436C166.062 79.516 165.926 79.572 165.798 79.608V79.936C166.066 79.856 166.29 79.728 166.47 79.544V82H166.798V79.144H166.542Z" fill="#333333"/>
<path d="M195.259 79.876C194.947 79.876 194.719 80.008 194.571 80.272V79.932H194.271V82.792H194.591V81.624C194.751 81.912 194.979 82.056 195.275 82.056C195.571 82.056 195.799 81.944 195.967 81.728C196.119 81.528 196.199 81.276 196.199 80.972C196.199 80.66 196.119 80.408 195.963 80.208C195.791 79.984 195.555 79.876 195.259 79.876ZM195.219 80.14C195.439 80.14 195.607 80.22 195.723 80.388C195.819 80.532 195.871 80.728 195.871 80.972C195.871 81.22 195.819 81.416 195.715 81.56C195.599 81.712 195.431 81.792 195.207 81.792C195.015 81.792 194.867 81.716 194.755 81.572C194.635 81.424 194.579 81.232 194.579 80.992V80.952C194.579 80.72 194.631 80.528 194.735 80.384C194.847 80.22 195.011 80.14 195.219 80.14ZM197.522 79.876C197.378 79.876 197.254 79.92 197.146 80.008C197.058 80.076 196.986 80.172 196.93 80.292V79.932H196.614V82H196.93V80.904C196.93 80.712 196.982 80.548 197.094 80.412C197.202 80.268 197.338 80.2 197.498 80.2C197.598 80.2 197.702 80.212 197.806 80.244V79.924C197.73 79.892 197.634 79.876 197.522 79.876ZM198.999 79.876C198.687 79.876 198.443 79.98 198.259 80.196C198.083 80.4 197.995 80.656 197.995 80.968C197.995 81.276 198.083 81.532 198.259 81.732C198.443 81.948 198.687 82.056 198.999 82.056C199.307 82.056 199.555 81.948 199.743 81.732C199.915 81.532 200.003 81.276 200.003 80.968C200.003 80.656 199.915 80.4 199.739 80.196C199.555 79.98 199.307 79.876 198.999 79.876ZM198.999 80.144C199.215 80.144 199.387 80.228 199.515 80.396C199.623 80.548 199.679 80.736 199.679 80.968C199.679 81.192 199.623 81.384 199.515 81.536C199.387 81.704 199.215 81.788 198.999 81.788C198.779 81.788 198.607 81.704 198.487 81.536C198.375 81.384 198.323 81.196 198.323 80.968C198.323 80.736 198.375 80.548 198.487 80.396C198.607 80.228 198.779 80.144 198.999 80.144ZM201.407 79.876C201.095 79.876 200.867 80.008 200.719 80.272V79.932H200.419V82.792H200.739V81.624C200.899 81.912 201.127 82.056 201.423 82.056C201.719 82.056 201.947 81.944 202.115 81.728C202.267 81.528 202.347 81.276 202.347 80.972C202.347 80.66 202.267 80.408 202.111 80.208C201.939 79.984 201.703 79.876 201.407 79.876ZM201.367 80.14C201.587 80.14 201.755 80.22 201.871 80.388C201.967 80.532 202.019 80.728 202.019 80.972C202.019 81.22 201.967 81.416 201.863 81.56C201.747 81.712 201.579 81.792 201.355 81.792C201.163 81.792 201.015 81.716 200.903 81.572C200.783 81.424 200.727 81.232 200.727 80.992V80.952C200.727 80.72 200.779 80.528 200.883 80.384C200.995 80.22 201.159 80.14 201.367 80.14ZM203.615 79.876C203.315 79.876 203.079 79.984 202.903 80.2C202.727 80.404 202.643 80.66 202.643 80.964C202.643 81.3 202.731 81.564 202.915 81.764C203.091 81.956 203.331 82.056 203.627 82.056C203.895 82.056 204.115 81.976 204.287 81.824C204.427 81.696 204.519 81.536 204.567 81.336H204.247C204.195 81.48 204.127 81.588 204.039 81.66C203.935 81.744 203.795 81.788 203.627 81.788C203.431 81.788 203.275 81.724 203.163 81.596C203.051 81.468 202.991 81.288 202.975 81.056H204.607C204.599 80.696 204.519 80.412 204.367 80.212C204.199 79.988 203.947 79.876 203.615 79.876ZM203.623 80.144C204.015 80.144 204.235 80.364 204.275 80.808H202.983C203.003 80.604 203.067 80.444 203.179 80.324C203.291 80.204 203.439 80.144 203.623 80.144ZM205.89 79.876C205.746 79.876 205.622 79.92 205.514 80.008C205.426 80.076 205.354 80.172 205.298 80.292V79.932H204.982V82H205.298V80.904C205.298 80.712 205.35 80.548 205.462 80.412C205.57 80.268 205.706 80.2 205.866 80.2C205.966 80.2 206.07 80.212 206.174 80.244V79.924C206.098 79.892 206.002 79.876 205.89 79.876ZM206.995 79.264L206.679 79.396V79.932H206.263V80.2H206.679V81.516C206.679 81.672 206.711 81.788 206.779 81.868C206.851 81.956 206.975 82 207.143 82H207.455V81.732H207.191C207.119 81.732 207.067 81.712 207.039 81.68C207.007 81.648 206.995 81.592 206.995 81.516V80.2H207.507V79.932H206.995V79.264ZM207.636 79.932L208.456 81.952L208.1 82.792H208.448L209.58 79.932H209.228L208.616 81.564L207.984 79.932H207.636ZM212.173 79.088C211.885 79.088 211.649 79.184 211.473 79.376C211.297 79.564 211.205 79.82 211.205 80.14H211.533C211.537 79.888 211.597 79.696 211.709 79.568C211.813 79.432 211.965 79.368 212.161 79.368C212.345 79.368 212.493 79.416 212.597 79.512C212.701 79.608 212.753 79.74 212.753 79.916C212.753 80.1 212.677 80.272 212.533 80.428C212.457 80.508 212.309 80.624 212.085 80.784C211.781 80.992 211.577 81.164 211.465 81.292C211.273 81.504 211.181 81.74 211.181 82H213.085V81.708H211.585C211.637 81.516 211.845 81.296 212.209 81.052C212.505 80.852 212.701 80.696 212.801 80.592C212.985 80.392 213.081 80.168 213.081 79.92C213.081 79.672 212.993 79.468 212.825 79.316C212.653 79.164 212.437 79.088 212.173 79.088Z" fill="#333333"/>
<path d="M241.138 79.876C240.826 79.876 240.598 80.008 240.45 80.272V79.932H240.15V82.792H240.47V81.624C240.63 81.912 240.858 82.056 241.154 82.056C241.45 82.056 241.678 81.944 241.846 81.728C241.998 81.528 242.078 81.276 242.078 80.972C242.078 80.66 241.998 80.408 241.842 80.208C241.67 79.984 241.434 79.876 241.138 79.876ZM241.098 80.14C241.318 80.14 241.486 80.22 241.602 80.388C241.698 80.532 241.75 80.728 241.75 80.972C241.75 81.22 241.698 81.416 241.594 81.56C241.478 81.712 241.31 81.792 241.086 81.792C240.894 81.792 240.746 81.716 240.634 81.572C240.514 81.424 240.458 81.232 240.458 80.992V80.952C240.458 80.72 240.51 80.528 240.614 80.384C240.726 80.22 240.89 80.14 241.098 80.14ZM243.401 79.876C243.257 79.876 243.133 79.92 243.025 80.008C242.937 80.076 242.865 80.172 242.809 80.292V79.932H242.493V82H242.809V80.904C242.809 80.712 242.861 80.548 242.973 80.412C243.081 80.268 243.217 80.2 243.377 80.2C243.477 80.2 243.581 80.212 243.685 80.244V79.924C243.609 79.892 243.513 79.876 243.401 79.876ZM244.878 79.876C244.566 79.876 244.322 79.98 244.138 80.196C243.962 80.4 243.874 80.656 243.874 80.968C243.874 81.276 243.962 81.532 244.138 81.732C244.322 81.948 244.566 82.056 244.878 82.056C245.186 82.056 245.434 81.948 245.622 81.732C245.794 81.532 245.882 81.276 245.882 80.968C245.882 80.656 245.794 80.4 245.618 80.196C245.434 79.98 245.186 79.876 244.878 79.876ZM244.878 80.144C245.094 80.144 245.266 80.228 245.394 80.396C245.502 80.548 245.558 80.736 245.558 80.968C245.558 81.192 245.502 81.384 245.394 81.536C245.266 81.704 245.094 81.788 244.878 81.788C244.658 81.788 244.486 81.704 244.366 81.536C244.254 81.384 244.202 81.196 244.202 80.968C244.202 80.736 244.254 80.548 244.366 80.396C244.486 80.228 244.658 80.144 244.878 80.144ZM247.286 79.876C246.974 79.876 246.746 80.008 246.598 80.272V79.932H246.298V82.792H246.618V81.624C246.778 81.912 247.006 82.056 247.302 82.056C247.598 82.056 247.826 81.944 247.994 81.728C248.146 81.528 248.226 81.276 248.226 80.972C248.226 80.66 248.146 80.408 247.99 80.208C247.818 79.984 247.582 79.876 247.286 79.876ZM247.246 80.14C247.466 80.14 247.634 80.22 247.75 80.388C247.846 80.532 247.898 80.728 247.898 80.972C247.898 81.22 247.846 81.416 247.742 81.56C247.626 81.712 247.458 81.792 247.234 81.792C247.042 81.792 246.894 81.716 246.782 81.572C246.662 81.424 246.606 81.232 246.606 80.992V80.952C246.606 80.72 246.658 80.528 246.762 80.384C246.874 80.22 247.038 80.14 247.246 80.14ZM249.494 79.876C249.194 79.876 248.958 79.984 248.782 80.2C248.606 80.404 248.522 80.66 248.522 80.964C248.522 81.3 248.61 81.564 248.794 81.764C248.97 81.956 249.21 82.056 249.506 82.056C249.774 82.056 249.994 81.976 250.166 81.824C250.306 81.696 250.398 81.536 250.446 81.336H250.126C250.074 81.48 250.006 81.588 249.918 81.66C249.814 81.744 249.674 81.788 249.506 81.788C249.31 81.788 249.154 81.724 249.042 81.596C248.93 81.468 248.87 81.288 248.854 81.056H250.486C250.478 80.696 250.398 80.412 250.246 80.212C250.078 79.988 249.826 79.876 249.494 79.876ZM249.502 80.144C249.894 80.144 250.114 80.364 250.154 80.808H248.862C248.882 80.604 248.946 80.444 249.058 80.324C249.17 80.204 249.318 80.144 249.502 80.144ZM251.769 79.876C251.625 79.876 251.501 79.92 251.393 80.008C251.305 80.076 251.233 80.172 251.177 80.292V79.932H250.861V82H251.177V80.904C251.177 80.712 251.229 80.548 251.341 80.412C251.449 80.268 251.585 80.2 251.745 80.2C251.845 80.2 251.949 80.212 252.053 80.244V79.924C251.977 79.892 251.881 79.876 251.769 79.876ZM252.873 79.264L252.557 79.396V79.932H252.141V80.2H252.557V81.516C252.557 81.672 252.589 81.788 252.657 81.868C252.729 81.956 252.853 82 253.021 82H253.333V81.732H253.069C252.997 81.732 252.945 81.712 252.917 81.68C252.885 81.648 252.873 81.592 252.873 81.516V80.2H253.385V79.932H252.873V79.264ZM253.515 79.932L254.335 81.952L253.979 82.792H254.327L255.459 79.932H255.107L254.495 81.564L253.863 79.932H253.515ZM258.04 79.088C257.768 79.088 257.548 79.164 257.38 79.32C257.204 79.476 257.1 79.692 257.076 79.968H257.4C257.42 79.776 257.484 79.628 257.596 79.524C257.704 79.42 257.852 79.372 258.044 79.372C258.228 79.372 258.376 79.416 258.48 79.512C258.576 79.6 258.628 79.724 258.628 79.884C258.628 80.044 258.576 80.168 258.476 80.256C258.376 80.34 258.232 80.384 258.04 80.384H257.82V80.64H258.052C258.252 80.64 258.404 80.684 258.516 80.78C258.628 80.876 258.684 81.008 258.684 81.18C258.684 81.348 258.624 81.488 258.512 81.6C258.388 81.716 258.224 81.776 258.02 81.776C257.84 81.776 257.692 81.724 257.572 81.628C257.432 81.512 257.356 81.34 257.348 81.116H257.016C257.04 81.436 257.152 81.68 257.356 81.848C257.528 81.984 257.748 82.056 258.02 82.056C258.316 82.056 258.556 81.972 258.74 81.804C258.92 81.64 259.012 81.428 259.012 81.168C259.012 81 258.964 80.86 258.868 80.748C258.78 80.636 258.652 80.556 258.484 80.504C258.796 80.4 258.952 80.184 258.952 79.864C258.952 79.624 258.868 79.436 258.704 79.296C258.536 79.156 258.312 79.088 258.04 79.088Z" fill="#333333"/>
<path d="M53.2703 79.088C52.9823 79.088 52.7463 79.184 52.5703 79.376C52.3943 79.564 52.3023 79.82 52.3023 80.14H52.6303C52.6343 79.888 52.6943 79.696 52.8063 79.568C52.9103 79.432 53.0623 79.368 53.2583 79.368C53.4423 79.368 53.5903 79.416 53.6943 79.512C53.7983 79.608 53.8503 79.74 53.8503 79.916C53.8503 80.1 53.7743 80.272 53.6303 80.428C53.5543 80.508 53.4063 80.624 53.1823 80.784C52.8783 80.992 52.6743 81.164 52.5623 81.292C52.3703 81.504 52.2783 81.74 52.2783 82H54.1823V81.708H52.6823C52.7343 81.516 52.9423 81.296 53.3063 81.052C53.6023 80.852 53.7983 80.696 53.8983 80.592C54.0823 80.392 54.1783 80.168 54.1783 79.92C54.1783 79.672 54.0903 79.468 53.9223 79.316C53.7503 79.164 53.5343 79.088 53.2703 79.088ZM55.6287 79.088C55.2847 79.088 55.0287 79.236 54.8567 79.54C54.7047 79.796 54.6287 80.14 54.6287 80.572C54.6287 81.004 54.7047 81.348 54.8567 81.604C55.0287 81.904 55.2847 82.056 55.6287 82.056C55.9687 82.056 56.2247 81.904 56.4007 81.604C56.5527 81.348 56.6287 81.004 56.6287 80.572C56.6287 80.14 56.5527 79.796 56.4007 79.54C56.2247 79.236 55.9687 79.088 55.6287 79.088ZM55.6287 79.368C55.8847 79.368 56.0687 79.504 56.1807 79.78C56.2607 79.972 56.3047 80.236 56.3047 80.572C56.3047 80.904 56.2607 81.168 56.1807 81.364C56.0687 81.636 55.8847 81.776 55.6287 81.776C55.3727 81.776 55.1887 81.636 55.0767 81.364C54.9967 81.168 54.9567 80.904 54.9567 80.572C54.9567 80.236 54.9967 79.972 55.0767 79.78C55.1887 79.504 55.3727 79.368 55.6287 79.368ZM58.0671 79.088C57.7791 79.088 57.5431 79.184 57.3671 79.376C57.1911 79.564 57.0991 79.82 57.0991 80.14H57.4271C57.4311 79.888 57.4911 79.696 57.6031 79.568C57.7071 79.432 57.8591 79.368 58.0551 79.368C58.2391 79.368 58.3871 79.416 58.4911 79.512C58.5951 79.608 58.6471 79.74 58.6471 79.916C58.6471 80.1 58.5711 80.272 58.4271 80.428C58.3511 80.508 58.2031 80.624 57.9791 80.784C57.6751 80.992 57.4711 81.164 57.3591 81.292C57.1671 81.504 57.0751 81.74 57.0751 82H58.9791V81.708H57.4791C57.5311 81.516 57.7391 81.296 58.1031 81.052C58.3991 80.852 58.5951 80.696 58.6951 80.592C58.8791 80.392 58.9751 80.168 58.9751 79.92C58.9751 79.672 58.8871 79.468 58.7191 79.316C58.5471 79.164 58.3311 79.088 58.0671 79.088ZM60.4256 79.088C60.0816 79.088 59.8256 79.236 59.6536 79.54C59.5016 79.796 59.4256 80.14 59.4256 80.572C59.4256 81.004 59.5016 81.348 59.6536 81.604C59.8256 81.904 60.0816 82.056 60.4256 82.056C60.7656 82.056 61.0216 81.904 61.1976 81.604C61.3496 81.348 61.4256 81.004 61.4256 80.572C61.4256 80.14 61.3496 79.796 61.1976 79.54C61.0216 79.236 60.7656 79.088 60.4256 79.088ZM60.4256 79.368C60.6816 79.368 60.8656 79.504 60.9776 79.78C61.0576 79.972 61.1016 80.236 61.1016 80.572C61.1016 80.904 61.0576 81.168 60.9776 81.364C60.8656 81.636 60.6816 81.776 60.4256 81.776C60.1696 81.776 59.9856 81.636 59.8736 81.364C59.7936 81.168 59.7536 80.904 59.7536 80.572C59.7536 80.236 59.7936 79.972 59.8736 79.78C59.9856 79.504 60.1696 79.368 60.4256 79.368ZM61.824 80.828V81.1H63.844V80.828H61.824ZM65.2459 79.088C64.9019 79.088 64.6459 79.236 64.4739 79.54C64.3219 79.796 64.2459 80.14 64.2459 80.572C64.2459 81.004 64.3219 81.348 64.4739 81.604C64.6459 81.904 64.9019 82.056 65.2459 82.056C65.5859 82.056 65.8419 81.904 66.0179 81.604C66.1699 81.348 66.2459 81.004 66.2459 80.572C66.2459 80.14 66.1699 79.796 66.0179 79.54C65.8419 79.236 65.5859 79.088 65.2459 79.088ZM65.2459 79.368C65.5019 79.368 65.6859 79.504 65.7979 79.78C65.8779 79.972 65.9219 80.236 65.9219 80.572C65.9219 80.904 65.8779 81.168 65.7979 81.364C65.6859 81.636 65.5019 81.776 65.2459 81.776C64.9899 81.776 64.8059 81.636 64.6939 81.364C64.6139 81.168 64.5739 80.904 64.5739 80.572C64.5739 80.236 64.6139 79.972 64.6939 79.78C64.8059 79.504 64.9899 79.368 65.2459 79.368ZM66.5803 79.144V79.444H68.1203L67.0563 82H67.4043L68.4563 79.412V79.144H66.5803ZM68.8318 80.828V81.1H70.8518V80.828H68.8318ZM71.9737 79.144C71.8777 79.252 71.7657 79.348 71.6297 79.436C71.4937 79.516 71.3577 79.572 71.2297 79.608V79.936C71.4977 79.856 71.7217 79.728 71.9017 79.544V82H72.2297V79.144H71.9737ZM73.8592 79.088C73.5152 79.088 73.2592 79.236 73.0872 79.54C72.9352 79.796 72.8592 80.14 72.8592 80.572C72.8592 81.004 72.9352 81.348 73.0872 81.604C73.2592 81.904 73.5152 82.056 73.8592 82.056C74.1992 82.056 74.4552 81.904 74.6312 81.604C74.7832 81.348 74.8592 81.004 74.8592 80.572C74.8592 80.14 74.7832 79.796 74.6312 79.54C74.4552 79.236 74.1992 79.088 73.8592 79.088ZM73.8592 79.368C74.1152 79.368 74.2992 79.504 74.4112 79.78C74.4912 79.972 74.5352 80.236 74.5352 80.572C74.5352 80.904 74.4912 81.168 74.4112 81.364C74.2992 81.636 74.1152 81.776 73.8592 81.776C73.6032 81.776 73.4192 81.636 73.3072 81.364C73.2272 81.168 73.1872 80.904 73.1872 80.572C73.1872 80.236 73.2272 79.972 73.3072 79.78C73.4192 79.504 73.6032 79.368 73.8592 79.368Z" fill="#333333"/>
<path d="M101.611 79.088C101.323 79.088 101.087 79.184 100.911 79.376C100.735 79.564 100.643 79.82 100.643 80.14H100.971C100.975 79.888 101.035 79.696 101.147 79.568C101.251 79.432 101.403 79.368 101.599 79.368C101.783 79.368 101.931 79.416 102.035 79.512C102.139 79.608 102.191 79.74 102.191 79.916C102.191 80.1 102.115 80.272 101.971 80.428C101.895 80.508 101.747 80.624 101.523 80.784C101.219 80.992 101.015 81.164 100.903 81.292C100.711 81.504 100.619 81.74 100.619 82H102.523V81.708H101.023C101.075 81.516 101.283 81.296 101.647 81.052C101.943 80.852 102.139 80.696 102.239 80.592C102.423 80.392 102.519 80.168 102.519 79.92C102.519 79.672 102.431 79.468 102.263 79.316C102.091 79.164 101.875 79.088 101.611 79.088ZM103.97 79.088C103.626 79.088 103.37 79.236 103.198 79.54C103.046 79.796 102.97 80.14 102.97 80.572C102.97 81.004 103.046 81.348 103.198 81.604C103.37 81.904 103.626 82.056 103.97 82.056C104.31 82.056 104.566 81.904 104.742 81.604C104.894 81.348 104.97 81.004 104.97 80.572C104.97 80.14 104.894 79.796 104.742 79.54C104.566 79.236 104.31 79.088 103.97 79.088ZM103.97 79.368C104.226 79.368 104.41 79.504 104.522 79.78C104.602 79.972 104.646 80.236 104.646 80.572C104.646 80.904 104.602 81.168 104.522 81.364C104.41 81.636 104.226 81.776 103.97 81.776C103.714 81.776 103.53 81.636 103.418 81.364C103.338 81.168 103.298 80.904 103.298 80.572C103.298 80.236 103.338 79.972 103.418 79.78C103.53 79.504 103.714 79.368 103.97 79.368ZM106.408 79.088C106.12 79.088 105.884 79.184 105.708 79.376C105.532 79.564 105.44 79.82 105.44 80.14H105.768C105.772 79.888 105.832 79.696 105.944 79.568C106.048 79.432 106.2 79.368 106.396 79.368C106.58 79.368 106.728 79.416 106.832 79.512C106.936 79.608 106.988 79.74 106.988 79.916C106.988 80.1 106.912 80.272 106.768 80.428C106.692 80.508 106.544 80.624 106.32 80.784C106.016 80.992 105.812 81.164 105.7 81.292C105.508 81.504 105.416 81.74 105.416 82H107.32V81.708H105.82C105.872 81.516 106.08 81.296 106.444 81.052C106.74 80.852 106.936 80.696 107.036 80.592C107.22 80.392 107.316 80.168 107.316 79.92C107.316 79.672 107.228 79.468 107.06 79.316C106.888 79.164 106.672 79.088 106.408 79.088ZM108.766 79.088C108.422 79.088 108.166 79.236 107.994 79.54C107.842 79.796 107.766 80.14 107.766 80.572C107.766 81.004 107.842 81.348 107.994 81.604C108.166 81.904 108.422 82.056 108.766 82.056C109.106 82.056 109.362 81.904 109.538 81.604C109.69 81.348 109.766 81.004 109.766 80.572C109.766 80.14 109.69 79.796 109.538 79.54C109.362 79.236 109.106 79.088 108.766 79.088ZM108.766 79.368C109.022 79.368 109.206 79.504 109.318 79.78C109.398 79.972 109.442 80.236 109.442 80.572C109.442 80.904 109.398 81.168 109.318 81.364C109.206 81.636 109.022 81.776 108.766 81.776C108.51 81.776 108.326 81.636 108.214 81.364C108.134 81.168 108.094 80.904 108.094 80.572C108.094 80.236 108.134 79.972 108.214 79.78C108.326 79.504 108.51 79.368 108.766 79.368ZM110.165 80.828V81.1H112.185V80.828H110.165ZM113.587 79.088C113.243 79.088 112.987 79.236 112.815 79.54C112.663 79.796 112.587 80.14 112.587 80.572C112.587 81.004 112.663 81.348 112.815 81.604C112.987 81.904 113.243 82.056 113.587 82.056C113.927 82.056 114.183 81.904 114.359 81.604C114.511 81.348 114.587 81.004 114.587 80.572C114.587 80.14 114.511 79.796 114.359 79.54C114.183 79.236 113.927 79.088 113.587 79.088ZM113.587 79.368C113.843 79.368 114.027 79.504 114.139 79.78C114.219 79.972 114.263 80.236 114.263 80.572C114.263 80.904 114.219 81.168 114.139 81.364C114.027 81.636 113.843 81.776 113.587 81.776C113.331 81.776 113.147 81.636 113.035 81.364C112.955 81.168 112.915 80.904 112.915 80.572C112.915 80.236 112.955 79.972 113.035 79.78C113.147 79.504 113.331 79.368 113.587 79.368ZM114.921 79.144V79.444H116.461L115.397 82H115.745L116.797 79.412V79.144H114.921ZM117.173 80.828V81.1H119.193V80.828H117.173ZM120.315 79.144C120.219 79.252 120.107 79.348 119.971 79.436C119.835 79.516 119.699 79.572 119.571 79.608V79.936C119.839 79.856 120.063 79.728 120.243 79.544V82H120.571V79.144H120.315ZM122.2 79.088C121.856 79.088 121.6 79.236 121.428 79.54C121.276 79.796 121.2 80.14 121.2 80.572C121.2 81.004 121.276 81.348 121.428 81.604C121.6 81.904 121.856 82.056 122.2 82.056C122.54 82.056 122.796 81.904 122.972 81.604C123.124 81.348 123.2 81.004 123.2 80.572C123.2 80.14 123.124 79.796 122.972 79.54C122.796 79.236 122.54 79.088 122.2 79.088ZM122.2 79.368C122.456 79.368 122.64 79.504 122.752 79.78C122.832 79.972 122.876 80.236 122.876 80.572C122.876 80.904 122.832 81.168 122.752 81.364C122.64 81.636 122.456 81.776 122.2 81.776C121.944 81.776 121.76 81.636 121.648 81.364C121.568 81.168 121.528 80.904 121.528 80.572C121.528 80.236 121.568 79.972 121.648 79.78C121.76 79.504 121.944 79.368 122.2 79.368Z" fill="#333333"/>
<rect x="20" y="60" width="250" height="14" fill="white"/>
<rect x="20" y="74" width="250" height="0.4" fill="#EBF0F4"/>
<path d="M24.7078 66.144C24.6118 66.252 24.4998 66.348 24.3638 66.436C24.2278 66.516 24.0918 66.572 23.9638 66.608V66.936C24.2318 66.856 24.4558 66.728 24.6358 66.544V69H24.9638V66.144H24.7078Z" fill="#333333"/>
<path d="M149.948 65.876C149.636 65.876 149.408 66.008 149.26 66.272V65.932H148.96V68.792H149.28V67.624C149.44 67.912 149.668 68.056 149.964 68.056C150.26 68.056 150.488 67.944 150.656 67.728C150.808 67.528 150.888 67.276 150.888 66.972C150.888 66.66 150.808 66.408 150.652 66.208C150.48 65.984 150.244 65.876 149.948 65.876ZM149.908 66.14C150.128 66.14 150.296 66.22 150.412 66.388C150.508 66.532 150.56 66.728 150.56 66.972C150.56 67.22 150.508 67.416 150.404 67.56C150.288 67.712 150.12 67.792 149.896 67.792C149.704 67.792 149.556 67.716 149.444 67.572C149.324 67.424 149.268 67.232 149.268 66.992V66.952C149.268 66.72 149.32 66.528 149.424 66.384C149.536 66.22 149.7 66.14 149.908 66.14ZM152.212 65.876C152.068 65.876 151.944 65.92 151.836 66.008C151.748 66.076 151.676 66.172 151.62 66.292V65.932H151.304V68H151.62V66.904C151.62 66.712 151.672 66.548 151.784 66.412C151.892 66.268 152.028 66.2 152.188 66.2C152.288 66.2 152.392 66.212 152.496 66.244V65.924C152.42 65.892 152.324 65.876 152.212 65.876ZM153.689 65.876C153.377 65.876 153.133 65.98 152.949 66.196C152.773 66.4 152.685 66.656 152.685 66.968C152.685 67.276 152.773 67.532 152.949 67.732C153.133 67.948 153.377 68.056 153.689 68.056C153.997 68.056 154.245 67.948 154.433 67.732C154.605 67.532 154.693 67.276 154.693 66.968C154.693 66.656 154.605 66.4 154.429 66.196C154.245 65.98 153.997 65.876 153.689 65.876ZM153.689 66.144C153.905 66.144 154.077 66.228 154.205 66.396C154.313 66.548 154.369 66.736 154.369 66.968C154.369 67.192 154.313 67.384 154.205 67.536C154.077 67.704 153.905 67.788 153.689 67.788C153.469 67.788 153.297 67.704 153.177 67.536C153.065 67.384 153.013 67.196 153.013 66.968C153.013 66.736 153.065 66.548 153.177 66.396C153.297 66.228 153.469 66.144 153.689 66.144ZM156.097 65.876C155.785 65.876 155.557 66.008 155.409 66.272V65.932H155.109V68.792H155.429V67.624C155.589 67.912 155.817 68.056 156.113 68.056C156.409 68.056 156.637 67.944 156.805 67.728C156.957 67.528 157.037 67.276 157.037 66.972C157.037 66.66 156.957 66.408 156.801 66.208C156.629 65.984 156.393 65.876 156.097 65.876ZM156.057 66.14C156.277 66.14 156.445 66.22 156.561 66.388C156.657 66.532 156.709 66.728 156.709 66.972C156.709 67.22 156.657 67.416 156.553 67.56C156.437 67.712 156.269 67.792 156.045 67.792C155.853 67.792 155.705 67.716 155.593 67.572C155.473 67.424 155.417 67.232 155.417 66.992V66.952C155.417 66.72 155.469 66.528 155.573 66.384C155.685 66.22 155.849 66.14 156.057 66.14ZM158.304 65.876C158.004 65.876 157.768 65.984 157.592 66.2C157.416 66.404 157.332 66.66 157.332 66.964C157.332 67.3 157.42 67.564 157.604 67.764C157.78 67.956 158.02 68.056 158.316 68.056C158.584 68.056 158.804 67.976 158.976 67.824C159.116 67.696 159.208 67.536 159.256 67.336H158.936C158.884 67.48 158.816 67.588 158.728 67.66C158.624 67.744 158.484 67.788 158.316 67.788C158.12 67.788 157.964 67.724 157.852 67.596C157.74 67.468 157.68 67.288 157.664 67.056H159.296C159.288 66.696 159.208 66.412 159.056 66.212C158.888 65.988 158.636 65.876 158.304 65.876ZM158.312 66.144C158.704 66.144 158.924 66.364 158.964 66.808H157.672C157.692 66.604 157.756 66.444 157.868 66.324C157.98 66.204 158.128 66.144 158.312 66.144ZM160.579 65.876C160.435 65.876 160.311 65.92 160.203 66.008C160.115 66.076 160.043 66.172 159.987 66.292V65.932H159.671V68H159.987V66.904C159.987 66.712 160.039 66.548 160.151 66.412C160.259 66.268 160.395 66.2 160.555 66.2C160.655 66.2 160.759 66.212 160.863 66.244V65.924C160.787 65.892 160.691 65.876 160.579 65.876ZM161.684 65.264L161.368 65.396V65.932H160.952V66.2H161.368V67.516C161.368 67.672 161.4 67.788 161.468 67.868C161.54 67.956 161.664 68 161.832 68H162.144V67.732H161.88C161.808 67.732 161.756 67.712 161.728 67.68C161.696 67.648 161.684 67.592 161.684 67.516V66.2H162.196V65.932H161.684V65.264ZM162.326 65.932L163.146 67.952L162.79 68.792H163.138L164.27 65.932H163.918L163.306 67.564L162.674 65.932H162.326ZM166.542 65.144C166.446 65.252 166.334 65.348 166.198 65.436C166.062 65.516 165.926 65.572 165.798 65.608V65.936C166.066 65.856 166.29 65.728 166.47 65.544V68H166.798V65.144H166.542Z" fill="#333333"/>
<path d="M195.259 65.876C194.947 65.876 194.719 66.008 194.571 66.272V65.932H194.271V68.792H194.591V67.624C194.751 67.912 194.979 68.056 195.275 68.056C195.571 68.056 195.799 67.944 195.967 67.728C196.119 67.528 196.199 67.276 196.199 66.972C196.199 66.66 196.119 66.408 195.963 66.208C195.791 65.984 195.555 65.876 195.259 65.876ZM195.219 66.14C195.439 66.14 195.607 66.22 195.723 66.388C195.819 66.532 195.871 66.728 195.871 66.972C195.871 67.22 195.819 67.416 195.715 67.56C195.599 67.712 195.431 67.792 195.207 67.792C195.015 67.792 194.867 67.716 194.755 67.572C194.635 67.424 194.579 67.232 194.579 66.992V66.952C194.579 66.72 194.631 66.528 194.735 66.384C194.847 66.22 195.011 66.14 195.219 66.14ZM197.522 65.876C197.378 65.876 197.254 65.92 197.146 66.008C197.058 66.076 196.986 66.172 196.93 66.292V65.932H196.614V68H196.93V66.904C196.93 66.712 196.982 66.548 197.094 66.412C197.202 66.268 197.338 66.2 197.498 66.2C197.598 66.2 197.702 66.212 197.806 66.244V65.924C197.73 65.892 197.634 65.876 197.522 65.876ZM198.999 65.876C198.687 65.876 198.443 65.98 198.259 66.196C198.083 66.4 197.995 66.656 197.995 66.968C197.995 67.276 198.083 67.532 198.259 67.732C198.443 67.948 198.687 68.056 198.999 68.056C199.307 68.056 199.555 67.948 199.743 67.732C199.915 67.532 200.003 67.276 200.003 66.968C200.003 66.656 199.915 66.4 199.739 66.196C199.555 65.98 199.307 65.876 198.999 65.876ZM198.999 66.144C199.215 66.144 199.387 66.228 199.515 66.396C199.623 66.548 199.679 66.736 199.679 66.968C199.679 67.192 199.623 67.384 199.515 67.536C199.387 67.704 199.215 67.788 198.999 67.788C198.779 67.788 198.607 67.704 198.487 67.536C198.375 67.384 198.323 67.196 198.323 66.968C198.323 66.736 198.375 66.548 198.487 66.396C198.607 66.228 198.779 66.144 198.999 66.144ZM201.407 65.876C201.095 65.876 200.867 66.008 200.719 66.272V65.932H200.419V68.792H200.739V67.624C200.899 67.912 201.127 68.056 201.423 68.056C201.719 68.056 201.947 67.944 202.115 67.728C202.267 67.528 202.347 67.276 202.347 66.972C202.347 66.66 202.267 66.408 202.111 66.208C201.939 65.984 201.703 65.876 201.407 65.876ZM201.367 66.14C201.587 66.14 201.755 66.22 201.871 66.388C201.967 66.532 202.019 66.728 202.019 66.972C202.019 67.22 201.967 67.416 201.863 67.56C201.747 67.712 201.579 67.792 201.355 67.792C201.163 67.792 201.015 67.716 200.903 67.572C200.783 67.424 200.727 67.232 200.727 66.992V66.952C200.727 66.72 200.779 66.528 200.883 66.384C200.995 66.22 201.159 66.14 201.367 66.14ZM203.615 65.876C203.315 65.876 203.079 65.984 202.903 66.2C202.727 66.404 202.643 66.66 202.643 66.964C202.643 67.3 202.731 67.564 202.915 67.764C203.091 67.956 203.331 68.056 203.627 68.056C203.895 68.056 204.115 67.976 204.287 67.824C204.427 67.696 204.519 67.536 204.567 67.336H204.247C204.195 67.48 204.127 67.588 204.039 67.66C203.935 67.744 203.795 67.788 203.627 67.788C203.431 67.788 203.275 67.724 203.163 67.596C203.051 67.468 202.991 67.288 202.975 67.056H204.607C204.599 66.696 204.519 66.412 204.367 66.212C204.199 65.988 203.947 65.876 203.615 65.876ZM203.623 66.144C204.015 66.144 204.235 66.364 204.275 66.808H202.983C203.003 66.604 203.067 66.444 203.179 66.324C203.291 66.204 203.439 66.144 203.623 66.144ZM205.89 65.876C205.746 65.876 205.622 65.92 205.514 66.008C205.426 66.076 205.354 66.172 205.298 66.292V65.932H204.982V68H205.298V66.904C205.298 66.712 205.35 66.548 205.462 66.412C205.57 66.268 205.706 66.2 205.866 66.2C205.966 66.2 206.07 66.212 206.174 66.244V65.924C206.098 65.892 206.002 65.876 205.89 65.876ZM206.995 65.264L206.679 65.396V65.932H206.263V66.2H206.679V67.516C206.679 67.672 206.711 67.788 206.779 67.868C206.851 67.956 206.975 68 207.143 68H207.455V67.732H207.191C207.119 67.732 207.067 67.712 207.039 67.68C207.007 67.648 206.995 67.592 206.995 67.516V66.2H207.507V65.932H206.995V65.264ZM207.636 65.932L208.456 67.952L208.1 68.792H208.448L209.58 65.932H209.228L208.616 67.564L207.984 65.932H207.636ZM212.173 65.088C211.885 65.088 211.649 65.184 211.473 65.376C211.297 65.564 211.205 65.82 211.205 66.14H211.533C211.537 65.888 211.597 65.696 211.709 65.568C211.813 65.432 211.965 65.368 212.161 65.368C212.345 65.368 212.493 65.416 212.597 65.512C212.701 65.608 212.753 65.74 212.753 65.916C212.753 66.1 212.677 66.272 212.533 66.428C212.457 66.508 212.309 66.624 212.085 66.784C211.781 66.992 211.577 67.164 211.465 67.292C211.273 67.504 211.181 67.74 211.181 68H213.085V67.708H211.585C211.637 67.516 211.845 67.296 212.209 67.052C212.505 66.852 212.701 66.696 212.801 66.592C212.985 66.392 213.081 66.168 213.081 65.92C213.081 65.672 212.993 65.468 212.825 65.316C212.653 65.164 212.437 65.088 212.173 65.088Z" fill="#333333"/>
<path d="M241.138 65.876C240.826 65.876 240.598 66.008 240.45 66.272V65.932H240.15V68.792H240.47V67.624C240.63 67.912 240.858 68.056 241.154 68.056C241.45 68.056 241.678 67.944 241.846 67.728C241.998 67.528 242.078 67.276 242.078 66.972C242.078 66.66 241.998 66.408 241.842 66.208C241.67 65.984 241.434 65.876 241.138 65.876ZM241.098 66.14C241.318 66.14 241.486 66.22 241.602 66.388C241.698 66.532 241.75 66.728 241.75 66.972C241.75 67.22 241.698 67.416 241.594 67.56C241.478 67.712 241.31 67.792 241.086 67.792C240.894 67.792 240.746 67.716 240.634 67.572C240.514 67.424 240.458 67.232 240.458 66.992V66.952C240.458 66.72 240.51 66.528 240.614 66.384C240.726 66.22 240.89 66.14 241.098 66.14ZM243.401 65.876C243.257 65.876 243.133 65.92 243.025 66.008C242.937 66.076 242.865 66.172 242.809 66.292V65.932H242.493V68H242.809V66.904C242.809 66.712 242.861 66.548 242.973 66.412C243.081 66.268 243.217 66.2 243.377 66.2C243.477 66.2 243.581 66.212 243.685 66.244V65.924C243.609 65.892 243.513 65.876 243.401 65.876ZM244.878 65.876C244.566 65.876 244.322 65.98 244.138 66.196C243.962 66.4 243.874 66.656 243.874 66.968C243.874 67.276 243.962 67.532 244.138 67.732C244.322 67.948 244.566 68.056 244.878 68.056C245.186 68.056 245.434 67.948 245.622 67.732C245.794 67.532 245.882 67.276 245.882 66.968C245.882 66.656 245.794 66.4 245.618 66.196C245.434 65.98 245.186 65.876 244.878 65.876ZM244.878 66.144C245.094 66.144 245.266 66.228 245.394 66.396C245.502 66.548 245.558 66.736 245.558 66.968C245.558 67.192 245.502 67.384 245.394 67.536C245.266 67.704 245.094 67.788 244.878 67.788C244.658 67.788 244.486 67.704 244.366 67.536C244.254 67.384 244.202 67.196 244.202 66.968C244.202 66.736 244.254 66.548 244.366 66.396C244.486 66.228 244.658 66.144 244.878 66.144ZM247.286 65.876C246.974 65.876 246.746 66.008 246.598 66.272V65.932H246.298V68.792H246.618V67.624C246.778 67.912 247.006 68.056 247.302 68.056C247.598 68.056 247.826 67.944 247.994 67.728C248.146 67.528 248.226 67.276 248.226 66.972C248.226 66.66 248.146 66.408 247.99 66.208C247.818 65.984 247.582 65.876 247.286 65.876ZM247.246 66.14C247.466 66.14 247.634 66.22 247.75 66.388C247.846 66.532 247.898 66.728 247.898 66.972C247.898 67.22 247.846 67.416 247.742 67.56C247.626 67.712 247.458 67.792 247.234 67.792C247.042 67.792 246.894 67.716 246.782 67.572C246.662 67.424 246.606 67.232 246.606 66.992V66.952C246.606 66.72 246.658 66.528 246.762 66.384C246.874 66.22 247.038 66.14 247.246 66.14ZM249.494 65.876C249.194 65.876 248.958 65.984 248.782 66.2C248.606 66.404 248.522 66.66 248.522 66.964C248.522 67.3 248.61 67.564 248.794 67.764C248.97 67.956 249.21 68.056 249.506 68.056C249.774 68.056 249.994 67.976 250.166 67.824C250.306 67.696 250.398 67.536 250.446 67.336H250.126C250.074 67.48 250.006 67.588 249.918 67.66C249.814 67.744 249.674 67.788 249.506 67.788C249.31 67.788 249.154 67.724 249.042 67.596C248.93 67.468 248.87 67.288 248.854 67.056H250.486C250.478 66.696 250.398 66.412 250.246 66.212C250.078 65.988 249.826 65.876 249.494 65.876ZM249.502 66.144C249.894 66.144 250.114 66.364 250.154 66.808H248.862C248.882 66.604 248.946 66.444 249.058 66.324C249.17 66.204 249.318 66.144 249.502 66.144ZM251.769 65.876C251.625 65.876 251.501 65.92 251.393 66.008C251.305 66.076 251.233 66.172 251.177 66.292V65.932H250.861V68H251.177V66.904C251.177 66.712 251.229 66.548 251.341 66.412C251.449 66.268 251.585 66.2 251.745 66.2C251.845 66.2 251.949 66.212 252.053 66.244V65.924C251.977 65.892 251.881 65.876 251.769 65.876ZM252.873 65.264L252.557 65.396V65.932H252.141V66.2H252.557V67.516C252.557 67.672 252.589 67.788 252.657 67.868C252.729 67.956 252.853 68 253.021 68H253.333V67.732H253.069C252.997 67.732 252.945 67.712 252.917 67.68C252.885 67.648 252.873 67.592 252.873 67.516V66.2H253.385V65.932H252.873V65.264ZM253.515 65.932L254.335 67.952L253.979 68.792H254.327L255.459 65.932H255.107L254.495 67.564L253.863 65.932H253.515ZM258.04 65.088C257.768 65.088 257.548 65.164 257.38 65.32C257.204 65.476 257.1 65.692 257.076 65.968H257.4C257.42 65.776 257.484 65.628 257.596 65.524C257.704 65.42 257.852 65.372 258.044 65.372C258.228 65.372 258.376 65.416 258.48 65.512C258.576 65.6 258.628 65.724 258.628 65.884C258.628 66.044 258.576 66.168 258.476 66.256C258.376 66.34 258.232 66.384 258.04 66.384H257.82V66.64H258.052C258.252 66.64 258.404 66.684 258.516 66.78C258.628 66.876 258.684 67.008 258.684 67.18C258.684 67.348 258.624 67.488 258.512 67.6C258.388 67.716 258.224 67.776 258.02 67.776C257.84 67.776 257.692 67.724 257.572 67.628C257.432 67.512 257.356 67.34 257.348 67.116H257.016C257.04 67.436 257.152 67.68 257.356 67.848C257.528 67.984 257.748 68.056 258.02 68.056C258.316 68.056 258.556 67.972 258.74 67.804C258.92 67.64 259.012 67.428 259.012 67.168C259.012 67 258.964 66.86 258.868 66.748C258.78 66.636 258.652 66.556 258.484 66.504C258.796 66.4 258.952 66.184 258.952 65.864C258.952 65.624 258.868 65.436 258.704 65.296C258.536 65.156 258.312 65.088 258.04 65.088Z" fill="#333333"/>
<path d="M53.2703 65.088C52.9823 65.088 52.7463 65.184 52.5703 65.376C52.3943 65.564 52.3023 65.82 52.3023 66.14H52.6303C52.6343 65.888 52.6943 65.696 52.8063 65.568C52.9103 65.432 53.0623 65.368 53.2583 65.368C53.4423 65.368 53.5903 65.416 53.6943 65.512C53.7983 65.608 53.8503 65.74 53.8503 65.916C53.8503 66.1 53.7743 66.272 53.6303 66.428C53.5543 66.508 53.4063 66.624 53.1823 66.784C52.8783 66.992 52.6743 67.164 52.5623 67.292C52.3703 67.504 52.2783 67.74 52.2783 68H54.1823V67.708H52.6823C52.7343 67.516 52.9423 67.296 53.3063 67.052C53.6023 66.852 53.7983 66.696 53.8983 66.592C54.0823 66.392 54.1783 66.168 54.1783 65.92C54.1783 65.672 54.0903 65.468 53.9223 65.316C53.7503 65.164 53.5343 65.088 53.2703 65.088ZM55.6287 65.088C55.2847 65.088 55.0287 65.236 54.8567 65.54C54.7047 65.796 54.6287 66.14 54.6287 66.572C54.6287 67.004 54.7047 67.348 54.8567 67.604C55.0287 67.904 55.2847 68.056 55.6287 68.056C55.9687 68.056 56.2247 67.904 56.4007 67.604C56.5527 67.348 56.6287 67.004 56.6287 66.572C56.6287 66.14 56.5527 65.796 56.4007 65.54C56.2247 65.236 55.9687 65.088 55.6287 65.088ZM55.6287 65.368C55.8847 65.368 56.0687 65.504 56.1807 65.78C56.2607 65.972 56.3047 66.236 56.3047 66.572C56.3047 66.904 56.2607 67.168 56.1807 67.364C56.0687 67.636 55.8847 67.776 55.6287 67.776C55.3727 67.776 55.1887 67.636 55.0767 67.364C54.9967 67.168 54.9567 66.904 54.9567 66.572C54.9567 66.236 54.9967 65.972 55.0767 65.78C55.1887 65.504 55.3727 65.368 55.6287 65.368ZM58.0671 65.088C57.7791 65.088 57.5431 65.184 57.3671 65.376C57.1911 65.564 57.0991 65.82 57.0991 66.14H57.4271C57.4311 65.888 57.4911 65.696 57.6031 65.568C57.7071 65.432 57.8591 65.368 58.0551 65.368C58.2391 65.368 58.3871 65.416 58.4911 65.512C58.5951 65.608 58.6471 65.74 58.6471 65.916C58.6471 66.1 58.5711 66.272 58.4271 66.428C58.3511 66.508 58.2031 66.624 57.9791 66.784C57.6751 66.992 57.4711 67.164 57.3591 67.292C57.1671 67.504 57.0751 67.74 57.0751 68H58.9791V67.708H57.4791C57.5311 67.516 57.7391 67.296 58.1031 67.052C58.3991 66.852 58.5951 66.696 58.6951 66.592C58.8791 66.392 58.9751 66.168 58.9751 65.92C58.9751 65.672 58.8871 65.468 58.7191 65.316C58.5471 65.164 58.3311 65.088 58.0671 65.088ZM60.4256 65.088C60.0816 65.088 59.8256 65.236 59.6536 65.54C59.5016 65.796 59.4256 66.14 59.4256 66.572C59.4256 67.004 59.5016 67.348 59.6536 67.604C59.8256 67.904 60.0816 68.056 60.4256 68.056C60.7656 68.056 61.0216 67.904 61.1976 67.604C61.3496 67.348 61.4256 67.004 61.4256 66.572C61.4256 66.14 61.3496 65.796 61.1976 65.54C61.0216 65.236 60.7656 65.088 60.4256 65.088ZM60.4256 65.368C60.6816 65.368 60.8656 65.504 60.9776 65.78C61.0576 65.972 61.1016 66.236 61.1016 66.572C61.1016 66.904 61.0576 67.168 60.9776 67.364C60.8656 67.636 60.6816 67.776 60.4256 67.776C60.1696 67.776 59.9856 67.636 59.8736 67.364C59.7936 67.168 59.7536 66.904 59.7536 66.572C59.7536 66.236 59.7936 65.972 59.8736 65.78C59.9856 65.504 60.1696 65.368 60.4256 65.368ZM61.824 66.828V67.1H63.844V66.828H61.824ZM65.2459 65.088C64.9019 65.088 64.6459 65.236 64.4739 65.54C64.3219 65.796 64.2459 66.14 64.2459 66.572C64.2459 67.004 64.3219 67.348 64.4739 67.604C64.6459 67.904 64.9019 68.056 65.2459 68.056C65.5859 68.056 65.8419 67.904 66.0179 67.604C66.1699 67.348 66.2459 67.004 66.2459 66.572C66.2459 66.14 66.1699 65.796 66.0179 65.54C65.8419 65.236 65.5859 65.088 65.2459 65.088ZM65.2459 65.368C65.5019 65.368 65.6859 65.504 65.7979 65.78C65.8779 65.972 65.9219 66.236 65.9219 66.572C65.9219 66.904 65.8779 67.168 65.7979 67.364C65.6859 67.636 65.5019 67.776 65.2459 67.776C64.9899 67.776 64.8059 67.636 64.6939 67.364C64.6139 67.168 64.5739 66.904 64.5739 66.572C64.5739 66.236 64.6139 65.972 64.6939 65.78C64.8059 65.504 64.9899 65.368 65.2459 65.368ZM66.5803 65.144V65.444H68.1203L67.0563 68H67.4043L68.4563 65.412V65.144H66.5803ZM68.8318 66.828V67.1H70.8518V66.828H68.8318ZM71.9737 65.144C71.8777 65.252 71.7657 65.348 71.6297 65.436C71.4937 65.516 71.3577 65.572 71.2297 65.608V65.936C71.4977 65.856 71.7217 65.728 71.9017 65.544V68H72.2297V65.144H71.9737ZM73.8592 65.088C73.5152 65.088 73.2592 65.236 73.0872 65.54C72.9352 65.796 72.8592 66.14 72.8592 66.572C72.8592 67.004 72.9352 67.348 73.0872 67.604C73.2592 67.904 73.5152 68.056 73.8592 68.056C74.1992 68.056 74.4552 67.904 74.6312 67.604C74.7832 67.348 74.8592 67.004 74.8592 66.572C74.8592 66.14 74.7832 65.796 74.6312 65.54C74.4552 65.236 74.1992 65.088 73.8592 65.088ZM73.8592 65.368C74.1152 65.368 74.2992 65.504 74.4112 65.78C74.4912 65.972 74.5352 66.236 74.5352 66.572C74.5352 66.904 74.4912 67.168 74.4112 67.364C74.2992 67.636 74.1152 67.776 73.8592 67.776C73.6032 67.776 73.4192 67.636 73.3072 67.364C73.2272 67.168 73.1872 66.904 73.1872 66.572C73.1872 66.236 73.2272 65.972 73.3072 65.78C73.4192 65.504 73.6032 65.368 73.8592 65.368Z" fill="#333333"/>
<path d="M101.611 65.088C101.323 65.088 101.087 65.184 100.911 65.376C100.735 65.564 100.643 65.82 100.643 66.14H100.971C100.975 65.888 101.035 65.696 101.147 65.568C101.251 65.432 101.403 65.368 101.599 65.368C101.783 65.368 101.931 65.416 102.035 65.512C102.139 65.608 102.191 65.74 102.191 65.916C102.191 66.1 102.115 66.272 101.971 66.428C101.895 66.508 101.747 66.624 101.523 66.784C101.219 66.992 101.015 67.164 100.903 67.292C100.711 67.504 100.619 67.74 100.619 68H102.523V67.708H101.023C101.075 67.516 101.283 67.296 101.647 67.052C101.943 66.852 102.139 66.696 102.239 66.592C102.423 66.392 102.519 66.168 102.519 65.92C102.519 65.672 102.431 65.468 102.263 65.316C102.091 65.164 101.875 65.088 101.611 65.088ZM103.97 65.088C103.626 65.088 103.37 65.236 103.198 65.54C103.046 65.796 102.97 66.14 102.97 66.572C102.97 67.004 103.046 67.348 103.198 67.604C103.37 67.904 103.626 68.056 103.97 68.056C104.31 68.056 104.566 67.904 104.742 67.604C104.894 67.348 104.97 67.004 104.97 66.572C104.97 66.14 104.894 65.796 104.742 65.54C104.566 65.236 104.31 65.088 103.97 65.088ZM103.97 65.368C104.226 65.368 104.41 65.504 104.522 65.78C104.602 65.972 104.646 66.236 104.646 66.572C104.646 66.904 104.602 67.168 104.522 67.364C104.41 67.636 104.226 67.776 103.97 67.776C103.714 67.776 103.53 67.636 103.418 67.364C103.338 67.168 103.298 66.904 103.298 66.572C103.298 66.236 103.338 65.972 103.418 65.78C103.53 65.504 103.714 65.368 103.97 65.368ZM106.408 65.088C106.12 65.088 105.884 65.184 105.708 65.376C105.532 65.564 105.44 65.82 105.44 66.14H105.768C105.772 65.888 105.832 65.696 105.944 65.568C106.048 65.432 106.2 65.368 106.396 65.368C106.58 65.368 106.728 65.416 106.832 65.512C106.936 65.608 106.988 65.74 106.988 65.916C106.988 66.1 106.912 66.272 106.768 66.428C106.692 66.508 106.544 66.624 106.32 66.784C106.016 66.992 105.812 67.164 105.7 67.292C105.508 67.504 105.416 67.74 105.416 68H107.32V67.708H105.82C105.872 67.516 106.08 67.296 106.444 67.052C106.74 66.852 106.936 66.696 107.036 66.592C107.22 66.392 107.316 66.168 107.316 65.92C107.316 65.672 107.228 65.468 107.06 65.316C106.888 65.164 106.672 65.088 106.408 65.088ZM108.766 65.088C108.422 65.088 108.166 65.236 107.994 65.54C107.842 65.796 107.766 66.14 107.766 66.572C107.766 67.004 107.842 67.348 107.994 67.604C108.166 67.904 108.422 68.056 108.766 68.056C109.106 68.056 109.362 67.904 109.538 67.604C109.69 67.348 109.766 67.004 109.766 66.572C109.766 66.14 109.69 65.796 109.538 65.54C109.362 65.236 109.106 65.088 108.766 65.088ZM108.766 65.368C109.022 65.368 109.206 65.504 109.318 65.78C109.398 65.972 109.442 66.236 109.442 66.572C109.442 66.904 109.398 67.168 109.318 67.364C109.206 67.636 109.022 67.776 108.766 67.776C108.51 67.776 108.326 67.636 108.214 67.364C108.134 67.168 108.094 66.904 108.094 66.572C108.094 66.236 108.134 65.972 108.214 65.78C108.326 65.504 108.51 65.368 108.766 65.368ZM110.165 66.828V67.1H112.185V66.828H110.165ZM113.587 65.088C113.243 65.088 112.987 65.236 112.815 65.54C112.663 65.796 112.587 66.14 112.587 66.572C112.587 67.004 112.663 67.348 112.815 67.604C112.987 67.904 113.243 68.056 113.587 68.056C113.927 68.056 114.183 67.904 114.359 67.604C114.511 67.348 114.587 67.004 114.587 66.572C114.587 66.14 114.511 65.796 114.359 65.54C114.183 65.236 113.927 65.088 113.587 65.088ZM113.587 65.368C113.843 65.368 114.027 65.504 114.139 65.78C114.219 65.972 114.263 66.236 114.263 66.572C114.263 66.904 114.219 67.168 114.139 67.364C114.027 67.636 113.843 67.776 113.587 67.776C113.331 67.776 113.147 67.636 113.035 67.364C112.955 67.168 112.915 66.904 112.915 66.572C112.915 66.236 112.955 65.972 113.035 65.78C113.147 65.504 113.331 65.368 113.587 65.368ZM114.921 65.144V65.444H116.461L115.397 68H115.745L116.797 65.412V65.144H114.921ZM117.173 66.828V67.1H119.193V66.828H117.173ZM120.315 65.144C120.219 65.252 120.107 65.348 119.971 65.436C119.835 65.516 119.699 65.572 119.571 65.608V65.936C119.839 65.856 120.063 65.728 120.243 65.544V68H120.571V65.144H120.315ZM122.2 65.088C121.856 65.088 121.6 65.236 121.428 65.54C121.276 65.796 121.2 66.14 121.2 66.572C121.2 67.004 121.276 67.348 121.428 67.604C121.6 67.904 121.856 68.056 122.2 68.056C122.54 68.056 122.796 67.904 122.972 67.604C123.124 67.348 123.2 67.004 123.2 66.572C123.2 66.14 123.124 65.796 122.972 65.54C122.796 65.236 122.54 65.088 122.2 65.088ZM122.2 65.368C122.456 65.368 122.64 65.504 122.752 65.78C122.832 65.972 122.876 66.236 122.876 66.572C122.876 66.904 122.832 67.168 122.752 67.364C122.64 67.636 122.456 67.776 122.2 67.776C121.944 67.776 121.76 67.636 121.648 67.364C121.568 67.168 121.528 66.904 121.528 66.572C121.528 66.236 121.568 65.972 121.648 65.78C121.76 65.504 121.944 65.368 122.2 65.368Z" fill="#333333"/>
<rect x="262.15" y="107.15" width="7.7" height="7.7" rx="0.35" stroke="#E2E2E2" stroke-width="0.3"/>
<rect opacity="0.01" x="264" y="113" width="4" height="4" transform="rotate(-90 264 113)" fill="#E1E3E6"/>
<path d="M265.224 112.422L266.652 110.994L265.224 109.565L265.462 109.327L267.128 110.994L265.462 112.66L265.224 112.422Z" fill="#333333"/>
<rect x="202.15" y="107.15" width="7.7" height="7.7" rx="0.35" stroke="#E2E2E2" stroke-width="0.3"/>
<rect opacity="0.01" width="4" height="4" transform="matrix(0 -1 -1 0 208 113)" fill="#E1E3E6"/>
<path d="M206.776 112.422L205.348 110.994L206.776 109.565L206.538 109.327L204.871 110.994L206.538 112.66L206.776 112.422Z" fill="#D1D1D1"/>
<rect x="212" y="107" width="8" height="8" rx="0.5" fill="#337EFF"/>
<path d="M215.92 109.144C215.824 109.252 215.712 109.348 215.576 109.436C215.44 109.516 215.304 109.572 215.176 109.608V109.936C215.444 109.856 215.668 109.728 215.848 109.544V112H216.176V109.144H215.92Z" fill="white"/>
<rect x="222.15" y="107.15" width="7.7" height="7.7" rx="0.35" stroke="#E2E2E2" stroke-width="0.3"/>
<path d="M226.24 109.088C225.952 109.088 225.716 109.184 225.54 109.376C225.364 109.564 225.272 109.82 225.272 110.14H225.6C225.604 109.888 225.664 109.696 225.776 109.568C225.88 109.432 226.032 109.368 226.228 109.368C226.412 109.368 226.56 109.416 226.664 109.512C226.768 109.608 226.82 109.74 226.82 109.916C226.82 110.1 226.744 110.272 226.6 110.428C226.524 110.508 226.376 110.624 226.152 110.784C225.848 110.992 225.644 111.164 225.532 111.292C225.34 111.504 225.248 111.74 225.248 112H227.152V111.708H225.652C225.704 111.516 225.912 111.296 226.276 111.052C226.572 110.852 226.768 110.696 226.868 110.592C227.052 110.392 227.148 110.168 227.148 109.92C227.148 109.672 227.06 109.468 226.892 109.316C226.72 109.164 226.504 109.088 226.24 109.088Z" fill="#333333"/>
<rect x="232.15" y="107.15" width="7.7" height="7.7" rx="0.35" stroke="#E2E2E2" stroke-width="0.3"/>
<path d="M236.228 109.088C235.956 109.088 235.736 109.164 235.568 109.32C235.392 109.476 235.288 109.692 235.264 109.968H235.588C235.608 109.776 235.672 109.628 235.784 109.524C235.892 109.42 236.04 109.372 236.232 109.372C236.416 109.372 236.564 109.416 236.668 109.512C236.764 109.6 236.816 109.724 236.816 109.884C236.816 110.044 236.764 110.168 236.664 110.256C236.564 110.34 236.42 110.384 236.228 110.384H236.008V110.64H236.24C236.44 110.64 236.592 110.684 236.704 110.78C236.816 110.876 236.872 111.008 236.872 111.18C236.872 111.348 236.812 111.488 236.7 111.6C236.576 111.716 236.412 111.776 236.208 111.776C236.028 111.776 235.88 111.724 235.76 111.628C235.62 111.512 235.544 111.34 235.536 111.116H235.204C235.228 111.436 235.34 111.68 235.544 111.848C235.716 111.984 235.936 112.056 236.208 112.056C236.504 112.056 236.744 111.972 236.928 111.804C237.108 111.64 237.2 111.428 237.2 111.168C237.2 111 237.152 110.86 237.056 110.748C236.968 110.636 236.84 110.556 236.672 110.504C236.984 110.4 237.14 110.184 237.14 109.864C237.14 109.624 237.056 109.436 236.892 109.296C236.724 109.156 236.5 109.088 236.228 109.088Z" fill="#333333"/>
<rect x="242.15" y="107.15" width="7.7" height="7.7" rx="0.35" stroke="#E2E2E2" stroke-width="0.3"/>
<path d="M246.536 109.144L245.096 111.04V111.352H246.532V112H246.844V111.352H247.308V111.084H246.844V109.144H246.536ZM246.52 109.572H246.532V111.084H245.372L246.52 109.572Z" fill="#333333"/>
<rect x="252.15" y="107.15" width="7.7" height="7.7" rx="0.35" stroke="#E2E2E2" stroke-width="0.3"/>
<path d="M255.42 109.144L255.268 110.72H255.58C255.636 110.608 255.724 110.52 255.836 110.464C255.944 110.404 256.064 110.376 256.2 110.376C256.408 110.376 256.572 110.436 256.688 110.564C256.808 110.688 256.872 110.864 256.872 111.092C256.872 111.292 256.804 111.456 256.676 111.584C256.544 111.712 256.38 111.776 256.18 111.776C256.004 111.776 255.856 111.732 255.744 111.648C255.616 111.552 255.544 111.412 255.528 111.232H255.204C255.224 111.492 255.332 111.7 255.532 111.852C255.708 111.988 255.924 112.056 256.176 112.056C256.456 112.056 256.696 111.968 256.888 111.796C257.092 111.612 257.196 111.376 257.196 111.088C257.196 110.78 257.108 110.54 256.94 110.364C256.772 110.192 256.552 110.108 256.28 110.108C256.148 110.108 256.028 110.128 255.916 110.176C255.792 110.224 255.688 110.296 255.608 110.392H255.592L255.688 109.436H257.08V109.144H255.42Z" fill="#333333"/>
<rect x="20" y="46" width="250" height="14" fill="#F7F8FA"/>
<path d="M53.6903 52.324V52.964C53.6903 53.052 53.6423 53.1 53.5503 53.1C53.4383 53.1 53.3103 53.092 53.1623 53.076L53.2543 53.432C53.3943 53.44 53.5423 53.444 53.6983 53.444C53.9383 53.428 54.0583 53.312 54.0623 53.092V51.988H52.6623C52.9263 51.704 53.1583 51.408 53.3663 51.1C53.5983 51.344 53.8823 51.696 54.2263 52.152L54.4743 51.892C54.1623 51.492 53.8263 51.108 53.4743 50.74H53.1943C52.8783 51.212 52.5303 51.624 52.1503 51.972L52.3743 52.28L52.5663 52.088V53.988C52.5663 54.228 52.6903 54.348 52.9423 54.348H53.9143C54.1063 54.348 54.2383 54.316 54.3023 54.252C54.3743 54.18 54.4223 53.968 54.4543 53.62L54.0983 53.5C54.0823 53.704 54.0583 53.84 54.0263 53.904C53.9983 53.964 53.9223 53.996 53.8023 53.996H53.1063C52.9983 53.996 52.9463 53.944 52.9463 53.848V52.324H53.6903ZM54.6543 51.072V53.54H55.0263V51.072H54.6543ZM55.3463 54.376C55.6063 54.376 55.7383 54.236 55.7383 53.956V50.732H55.3583V53.86C55.3583 53.976 55.3103 54.036 55.2143 54.036C55.0383 54.036 54.8503 54.028 54.6543 54.012L54.7423 54.376H55.3463ZM59.5623 52.404V51.84H59.8023V51.532H59.5623V50.98H58.7143V50.712H58.3463V50.98H57.6783V51.292H58.3463V51.532H57.4823V51.84H58.3463V52.088H57.6783V52.404H58.3463V52.648H57.5943V52.96H58.3463V53.208H57.4703V53.524H58.3463V53.848H58.7143V53.524H59.7343V53.208H58.7143V52.96H59.6183V52.648H58.7143V52.404H59.5623ZM58.7143 51.292H59.1983V51.532H58.7143V51.292ZM58.7143 51.84H59.1983V52.088H58.7143V51.84ZM58.4463 53.984C57.9223 53.976 57.5303 53.9 57.2703 53.756C57.2143 53.724 57.1623 53.684 57.1143 53.636C57.2983 53.268 57.3983 52.828 57.4143 52.316V52.088H56.8343C57.0103 51.836 57.1863 51.544 57.3663 51.208V50.896H56.3463V51.256H56.9423C56.7583 51.568 56.5623 51.864 56.3463 52.144V52.432H57.0663C57.0423 52.752 56.9783 53.04 56.8703 53.292C56.7823 53.128 56.7063 52.924 56.6383 52.684L56.3183 52.8C56.4143 53.128 56.5343 53.404 56.6823 53.628C56.5663 53.796 56.4223 53.94 56.2463 54.06L56.4943 54.384C56.6623 54.252 56.8103 54.1 56.9383 53.924C56.9623 53.948 56.9943 53.976 57.0343 54.004C57.3503 54.212 57.8743 54.32 58.6103 54.32H59.7823L59.8463 53.956C59.3663 53.972 58.8983 53.984 58.4463 53.984ZM61.5383 50.996H60.3183V54.088H60.6903V53.744H61.1703V53.992H61.5383V50.996ZM60.6903 53.392V52.524H61.1703V53.392H60.6903ZM60.6903 52.168V51.34H61.1703V52.168H60.6903ZM62.1383 52.204L61.8223 52.4C62.0543 52.768 62.2423 53.104 62.3823 53.4L62.6983 53.18C62.5703 52.9 62.3823 52.576 62.1383 52.204ZM63.0103 54.372C63.2783 54.372 63.4143 54.236 63.4143 53.964V51.788H63.8623V51.424H63.4143V50.752H63.0263V51.424H61.6943V51.788H63.0263V53.868C63.0263 53.972 62.9783 54.024 62.8823 54.024C62.6703 54.024 62.4503 54.016 62.2183 54.004L62.3023 54.372H63.0103ZM65.2183 51.78V53.716H66.8103V51.78H65.2183ZM66.4583 53.38H65.5743V52.912H66.4583V53.38ZM65.5743 52.584V52.116H66.4583V52.584H65.5743ZM67.2183 54.38C67.5183 54.38 67.6703 54.224 67.6703 53.916V50.896H65.7943V51.244H67.3023V53.812C67.3023 53.956 67.2463 54.032 67.1383 54.032L66.7943 54.024L66.8903 54.38H67.2183ZM64.3823 51.384V54.416H64.7503V51.384H64.3823ZM65.0503 50.68L64.7063 50.832C64.8823 51.048 65.0463 51.292 65.1943 51.572L65.5383 51.392C65.3983 51.136 65.2343 50.896 65.0503 50.68Z" fill="#999999"/>
<path d="M100.639 50.856V51.212H102.183V51.488H100.971V53.132H102.119C102.079 53.292 102.019 53.432 101.947 53.544C101.747 53.44 101.559 53.324 101.387 53.188L101.095 53.388C101.271 53.536 101.467 53.672 101.683 53.792C101.427 53.948 101.043 54.04 100.531 54.072L100.695 54.42C101.315 54.348 101.767 54.2 102.055 53.976C102.647 54.24 103.343 54.388 104.143 54.424L104.239 54.056C103.495 54.032 102.851 53.916 102.299 53.7C102.391 53.552 102.459 53.364 102.503 53.132H103.783V51.488H102.559V51.212H104.107V50.856H100.639ZM103.407 52.8H102.547C102.555 52.724 102.559 52.644 102.559 52.556V52.46H103.407V52.8ZM102.171 52.8H101.347V52.46H102.183V52.556C102.183 52.636 102.179 52.72 102.171 52.8ZM101.347 52.148V51.812H102.183V52.148H101.347ZM102.559 51.812H103.407V52.148H102.559V51.812ZM107.943 50.752C107.551 50.904 107.111 50.988 106.619 50.996V52.724C106.603 53.32 106.479 53.784 106.251 54.12L106.519 54.408C106.811 53.988 106.967 53.428 106.987 52.724V52.32H107.467V54.416H107.839V52.32H108.223V51.956H106.987V51.308C107.403 51.28 107.783 51.208 108.127 51.088L107.943 50.752ZM104.603 51.036V51.388H106.431V51.036H105.691C105.643 50.904 105.591 50.784 105.543 50.676L105.151 50.74C105.211 50.832 105.267 50.932 105.315 51.036H104.603ZM104.563 51.944V52.292H105.339V52.652H104.627V52.996H105.339V53.98C105.339 54.06 105.291 54.1 105.195 54.1C105.143 54.1 105.087 54.092 105.027 54.076L105.111 54.428H105.319C105.583 54.428 105.715 54.308 105.715 54.068V52.996H106.387V52.652H105.715V52.292H106.455V51.944H106.047C106.107 51.824 106.163 51.692 106.211 51.544L105.871 51.424C105.823 51.604 105.767 51.776 105.703 51.944H105.323C105.267 51.744 105.203 51.572 105.139 51.428L104.807 51.552C104.875 51.672 104.935 51.804 104.987 51.944H104.563ZM104.867 53.172C104.795 53.5 104.671 53.812 104.495 54.1L104.807 54.3C104.983 54 105.115 53.648 105.211 53.244L104.867 53.172ZM106.119 53.144L105.807 53.228C105.903 53.468 105.983 53.712 106.047 53.96L106.367 53.84C106.307 53.632 106.223 53.4 106.119 53.144ZM109.879 50.996H108.659V54.088H109.031V53.744H109.511V53.992H109.879V50.996ZM109.031 53.392V52.524H109.511V53.392H109.031ZM109.031 52.168V51.34H109.511V52.168H109.031ZM110.479 52.204L110.163 52.4C110.395 52.768 110.583 53.104 110.723 53.4L111.039 53.18C110.911 52.9 110.723 52.576 110.479 52.204ZM111.351 54.372C111.619 54.372 111.755 54.236 111.755 53.964V51.788H112.203V51.424H111.755V50.752H111.367V51.424H110.035V51.788H111.367V53.868C111.367 53.972 111.319 54.024 111.223 54.024C111.011 54.024 110.791 54.016 110.559 54.004L110.643 54.372H111.351ZM113.559 51.78V53.716H115.151V51.78H113.559ZM114.799 53.38H113.915V52.912H114.799V53.38ZM113.915 52.584V52.116H114.799V52.584H113.915ZM115.559 54.38C115.859 54.38 116.011 54.224 116.011 53.916V50.896H114.135V51.244H115.643V53.812C115.643 53.956 115.587 54.032 115.479 54.032L115.135 54.024L115.231 54.38H115.559ZM112.723 51.384V54.416H113.091V51.384H112.723ZM113.391 50.68L113.047 50.832C113.223 51.048 113.387 51.292 113.535 51.572L113.879 51.392C113.739 51.136 113.575 50.896 113.391 50.68Z" fill="#999999"/>
<rect x="20" y="60.1816" width="250" height="0.4" fill="#E0E8EC"/>
<path d="M25.9918 50.696L25.6078 50.76C25.6598 50.84 25.7078 50.928 25.7518 51.02H24.2678V52.304C24.2598 53.096 24.1478 53.712 23.9318 54.156L24.2198 54.412C24.4878 53.884 24.6278 53.18 24.6438 52.304V51.372H27.5638V51.02H26.1398C26.0918 50.9 26.0398 50.792 25.9918 50.696ZM25.6078 52.064L25.3838 52.284C25.6558 52.42 25.8918 52.552 26.0838 52.68H24.7718V53.028H25.9158V53.928C25.9158 54.032 25.8638 54.088 25.7678 54.088C25.5918 54.088 25.4118 54.076 25.2198 54.06L25.2998 54.42H25.8958C26.1598 54.42 26.2918 54.284 26.2918 54.016V53.028H27.0918C26.9638 53.224 26.8238 53.388 26.6718 53.524L26.9558 53.752C27.1558 53.544 27.3358 53.288 27.5038 52.976V52.68H26.4798L26.5318 52.628L26.3998 52.532C26.6798 52.356 26.9358 52.14 27.1758 51.892V51.62H25.0038V51.944H26.6998C26.5198 52.096 26.3278 52.228 26.1198 52.348C25.9638 52.252 25.7918 52.16 25.6078 52.064ZM28.5718 50.84V51.992H31.0038V50.84H28.5718ZM30.6198 51.652H28.9558V51.18H30.6198V51.652ZM28.8518 52.62L28.6638 53.348H30.6718C30.6478 53.652 30.6158 53.848 30.5718 53.928C30.5238 54.008 30.3958 54.048 30.1958 54.048C30.0278 54.048 29.8398 54.036 29.6238 54.016L29.7518 54.36C29.9078 54.38 30.0838 54.392 30.2798 54.392C30.5678 54.392 30.7638 54.328 30.8638 54.204C30.9638 54.08 31.0278 53.68 31.0598 53.004H29.1158L29.2318 52.62H31.6038V52.256H27.9678V52.62H28.8518Z" fill="#999999"/>
<path d="M195.299 51.876C195.019 51.876 194.803 51.976 194.659 52.18V51.932H194.263V54.792H194.687V53.696C194.855 53.936 195.063 54.056 195.319 54.056C195.615 54.056 195.851 53.948 196.019 53.732C196.175 53.532 196.255 53.28 196.255 52.976C196.255 52.656 196.175 52.4 196.015 52.2C195.839 51.984 195.603 51.876 195.299 51.876ZM195.235 52.22C195.443 52.22 195.595 52.292 195.695 52.444C195.775 52.572 195.819 52.748 195.819 52.976C195.819 53.204 195.771 53.38 195.683 53.508C195.583 53.644 195.431 53.712 195.223 53.712C195.063 53.712 194.935 53.648 194.839 53.524C194.727 53.388 194.675 53.208 194.675 52.988V52.952C194.675 52.74 194.719 52.568 194.807 52.44C194.907 52.292 195.051 52.22 195.235 52.22ZM197.613 51.876C197.485 51.876 197.373 51.912 197.277 51.992C197.197 52.048 197.129 52.132 197.077 52.244V51.932H196.653V54H197.077V52.904C197.077 52.724 197.129 52.576 197.237 52.464C197.337 52.36 197.453 52.308 197.581 52.308C197.677 52.308 197.777 52.32 197.881 52.352V51.928C197.809 51.892 197.717 51.876 197.613 51.876ZM199.094 51.876C198.782 51.876 198.53 51.98 198.342 52.188C198.154 52.392 198.062 52.652 198.062 52.968C198.062 53.28 198.154 53.54 198.338 53.74C198.53 53.948 198.782 54.056 199.094 54.056C199.406 54.056 199.658 53.948 199.85 53.74C200.034 53.54 200.126 53.28 200.126 52.968C200.126 52.652 200.03 52.392 199.846 52.188C199.658 51.98 199.406 51.876 199.094 51.876ZM199.094 52.224C199.29 52.224 199.442 52.3 199.554 52.456C199.65 52.588 199.698 52.76 199.698 52.968C199.698 53.172 199.65 53.34 199.554 53.476C199.442 53.628 199.29 53.708 199.094 53.708C198.898 53.708 198.746 53.628 198.638 53.476C198.542 53.344 198.498 53.176 198.498 52.968C198.498 52.76 198.542 52.588 198.638 52.456C198.746 52.3 198.898 52.224 199.094 52.224ZM201.564 51.876C201.284 51.876 201.068 51.976 200.924 52.18V51.932H200.528V54.792H200.952V53.696C201.12 53.936 201.328 54.056 201.584 54.056C201.88 54.056 202.116 53.948 202.284 53.732C202.44 53.532 202.52 53.28 202.52 52.976C202.52 52.656 202.44 52.4 202.28 52.2C202.104 51.984 201.868 51.876 201.564 51.876ZM201.5 52.22C201.708 52.22 201.86 52.292 201.96 52.444C202.04 52.572 202.084 52.748 202.084 52.976C202.084 53.204 202.036 53.38 201.948 53.508C201.848 53.644 201.696 53.712 201.488 53.712C201.328 53.712 201.2 53.648 201.104 53.524C200.992 53.388 200.94 53.208 200.94 52.988V52.952C200.94 52.74 200.984 52.568 201.072 52.44C201.172 52.292 201.316 52.22 201.5 52.22ZM203.795 51.876C203.491 51.876 203.247 51.98 203.071 52.192C202.887 52.4 202.799 52.656 202.799 52.964C202.799 53.304 202.895 53.572 203.087 53.772C203.263 53.96 203.507 54.056 203.811 54.056C204.087 54.056 204.315 53.976 204.495 53.82C204.639 53.692 204.731 53.528 204.779 53.336H204.355C204.299 53.456 204.239 53.548 204.167 53.604C204.075 53.672 203.955 53.708 203.807 53.708C203.639 53.708 203.507 53.652 203.411 53.548C203.315 53.44 203.263 53.284 203.247 53.084H204.815C204.811 52.716 204.727 52.428 204.567 52.22C204.391 51.988 204.131 51.876 203.795 51.876ZM203.807 52.224C204.143 52.224 204.331 52.404 204.371 52.764H203.255C203.279 52.588 203.339 52.456 203.427 52.364C203.523 52.268 203.647 52.224 203.807 52.224ZM206.137 51.876C206.009 51.876 205.897 51.912 205.801 51.992C205.721 52.048 205.653 52.132 205.601 52.244V51.932H205.177V54H205.601V52.904C205.601 52.724 205.653 52.576 205.761 52.464C205.861 52.36 205.977 52.308 206.105 52.308C206.201 52.308 206.301 52.32 206.405 52.352V51.928C206.333 51.892 206.241 51.876 206.137 51.876ZM207.293 51.264L206.869 51.44V51.932H206.485V52.284H206.869V53.484C206.869 53.648 206.905 53.772 206.985 53.86C207.065 53.952 207.197 54 207.373 54H207.713V53.648H207.441C207.389 53.648 207.353 53.632 207.329 53.608C207.305 53.58 207.293 53.54 207.293 53.484V52.284H207.765V51.932H207.293V51.264ZM207.886 51.932L208.706 53.952L208.346 54.792H208.798L209.922 51.932H209.458L208.914 53.44L208.346 51.932H207.886ZM212.517 51.088C212.213 51.088 211.965 51.188 211.781 51.396C211.601 51.588 211.509 51.844 211.505 52.164H211.941C211.949 51.932 211.997 51.76 212.093 51.64C212.185 51.516 212.321 51.456 212.501 51.456C212.669 51.456 212.801 51.496 212.889 51.576C212.977 51.656 213.021 51.776 213.021 51.936C213.021 52.104 212.953 52.26 212.825 52.404C212.745 52.488 212.609 52.596 212.417 52.732C212.093 52.956 211.877 53.128 211.773 53.252C211.581 53.468 211.489 53.716 211.489 54H213.457V53.616H212.029C212.089 53.46 212.273 53.28 212.581 53.076C212.865 52.884 213.061 52.732 213.173 52.616C213.357 52.412 213.453 52.188 213.453 51.94C213.453 51.688 213.365 51.484 213.193 51.324C213.017 51.164 212.789 51.088 212.517 51.088Z" fill="#999999"/>
<path d="M150.276 51.876C149.996 51.876 149.78 51.976 149.636 52.18V51.932H149.24V54.792H149.664V53.696C149.832 53.936 150.04 54.056 150.296 54.056C150.592 54.056 150.828 53.948 150.996 53.732C151.152 53.532 151.232 53.28 151.232 52.976C151.232 52.656 151.152 52.4 150.992 52.2C150.816 51.984 150.58 51.876 150.276 51.876ZM150.212 52.22C150.42 52.22 150.572 52.292 150.672 52.444C150.752 52.572 150.796 52.748 150.796 52.976C150.796 53.204 150.748 53.38 150.66 53.508C150.56 53.644 150.408 53.712 150.2 53.712C150.04 53.712 149.912 53.648 149.816 53.524C149.704 53.388 149.652 53.208 149.652 52.988V52.952C149.652 52.74 149.696 52.568 149.784 52.44C149.884 52.292 150.028 52.22 150.212 52.22ZM152.591 51.876C152.463 51.876 152.351 51.912 152.255 51.992C152.175 52.048 152.107 52.132 152.055 52.244V51.932H151.631V54H152.055V52.904C152.055 52.724 152.107 52.576 152.215 52.464C152.315 52.36 152.431 52.308 152.559 52.308C152.655 52.308 152.755 52.32 152.859 52.352V51.928C152.787 51.892 152.695 51.876 152.591 51.876ZM154.071 51.876C153.759 51.876 153.507 51.98 153.319 52.188C153.131 52.392 153.039 52.652 153.039 52.968C153.039 53.28 153.131 53.54 153.315 53.74C153.507 53.948 153.759 54.056 154.071 54.056C154.383 54.056 154.635 53.948 154.827 53.74C155.011 53.54 155.103 53.28 155.103 52.968C155.103 52.652 155.007 52.392 154.823 52.188C154.635 51.98 154.383 51.876 154.071 51.876ZM154.071 52.224C154.267 52.224 154.419 52.3 154.531 52.456C154.627 52.588 154.675 52.76 154.675 52.968C154.675 53.172 154.627 53.34 154.531 53.476C154.419 53.628 154.267 53.708 154.071 53.708C153.875 53.708 153.723 53.628 153.615 53.476C153.519 53.344 153.475 53.176 153.475 52.968C153.475 52.76 153.519 52.588 153.615 52.456C153.723 52.3 153.875 52.224 154.071 52.224ZM156.542 51.876C156.262 51.876 156.046 51.976 155.902 52.18V51.932H155.506V54.792H155.93V53.696C156.098 53.936 156.306 54.056 156.562 54.056C156.858 54.056 157.094 53.948 157.262 53.732C157.418 53.532 157.498 53.28 157.498 52.976C157.498 52.656 157.418 52.4 157.258 52.2C157.082 51.984 156.846 51.876 156.542 51.876ZM156.478 52.22C156.686 52.22 156.838 52.292 156.938 52.444C157.018 52.572 157.062 52.748 157.062 52.976C157.062 53.204 157.014 53.38 156.926 53.508C156.826 53.644 156.674 53.712 156.466 53.712C156.306 53.712 156.178 53.648 156.082 53.524C155.97 53.388 155.918 53.208 155.918 52.988V52.952C155.918 52.74 155.962 52.568 156.05 52.44C156.15 52.292 156.294 52.22 156.478 52.22ZM158.772 51.876C158.468 51.876 158.224 51.98 158.048 52.192C157.864 52.4 157.776 52.656 157.776 52.964C157.776 53.304 157.872 53.572 158.064 53.772C158.24 53.96 158.484 54.056 158.788 54.056C159.064 54.056 159.292 53.976 159.472 53.82C159.616 53.692 159.708 53.528 159.756 53.336H159.332C159.276 53.456 159.216 53.548 159.144 53.604C159.052 53.672 158.932 53.708 158.784 53.708C158.616 53.708 158.484 53.652 158.388 53.548C158.292 53.44 158.24 53.284 158.224 53.084H159.792C159.788 52.716 159.704 52.428 159.544 52.22C159.368 51.988 159.108 51.876 158.772 51.876ZM158.784 52.224C159.12 52.224 159.308 52.404 159.348 52.764H158.232C158.256 52.588 158.316 52.456 158.404 52.364C158.5 52.268 158.624 52.224 158.784 52.224ZM161.114 51.876C160.986 51.876 160.874 51.912 160.778 51.992C160.698 52.048 160.63 52.132 160.578 52.244V51.932H160.154V54H160.578V52.904C160.578 52.724 160.63 52.576 160.738 52.464C160.838 52.36 160.954 52.308 161.082 52.308C161.178 52.308 161.278 52.32 161.382 52.352V51.928C161.31 51.892 161.218 51.876 161.114 51.876ZM162.27 51.264L161.846 51.44V51.932H161.462V52.284H161.846V53.484C161.846 53.648 161.882 53.772 161.962 53.86C162.042 53.952 162.174 54 162.35 54H162.69V53.648H162.418C162.366 53.648 162.33 53.632 162.306 53.608C162.282 53.58 162.27 53.54 162.27 53.484V52.284H162.742V51.932H162.27V51.264ZM162.864 51.932L163.684 53.952L163.324 54.792H163.776L164.9 51.932H164.436L163.892 53.44L163.324 51.932H162.864ZM167.178 51.144C167.082 51.248 166.962 51.34 166.818 51.428C166.674 51.508 166.542 51.564 166.414 51.596V52.028C166.678 51.952 166.898 51.832 167.07 51.668V54H167.506V51.144H167.178Z" fill="#999999"/>
<path d="M241.178 51.876C240.898 51.876 240.682 51.976 240.538 52.18V51.932H240.142V54.792H240.566V53.696C240.734 53.936 240.942 54.056 241.198 54.056C241.494 54.056 241.73 53.948 241.898 53.732C242.054 53.532 242.134 53.28 242.134 52.976C242.134 52.656 242.054 52.4 241.894 52.2C241.718 51.984 241.482 51.876 241.178 51.876ZM241.114 52.22C241.322 52.22 241.474 52.292 241.574 52.444C241.654 52.572 241.698 52.748 241.698 52.976C241.698 53.204 241.65 53.38 241.562 53.508C241.462 53.644 241.31 53.712 241.102 53.712C240.942 53.712 240.814 53.648 240.718 53.524C240.606 53.388 240.554 53.208 240.554 52.988V52.952C240.554 52.74 240.598 52.568 240.686 52.44C240.786 52.292 240.93 52.22 241.114 52.22ZM243.492 51.876C243.364 51.876 243.252 51.912 243.156 51.992C243.076 52.048 243.008 52.132 242.956 52.244V51.932H242.532V54H242.956V52.904C242.956 52.724 243.008 52.576 243.116 52.464C243.216 52.36 243.332 52.308 243.46 52.308C243.556 52.308 243.656 52.32 243.76 52.352V51.928C243.688 51.892 243.596 51.876 243.492 51.876ZM244.973 51.876C244.661 51.876 244.409 51.98 244.221 52.188C244.033 52.392 243.941 52.652 243.941 52.968C243.941 53.28 244.033 53.54 244.217 53.74C244.409 53.948 244.661 54.056 244.973 54.056C245.285 54.056 245.537 53.948 245.729 53.74C245.913 53.54 246.005 53.28 246.005 52.968C246.005 52.652 245.909 52.392 245.725 52.188C245.537 51.98 245.285 51.876 244.973 51.876ZM244.973 52.224C245.169 52.224 245.321 52.3 245.433 52.456C245.529 52.588 245.577 52.76 245.577 52.968C245.577 53.172 245.529 53.34 245.433 53.476C245.321 53.628 245.169 53.708 244.973 53.708C244.777 53.708 244.625 53.628 244.517 53.476C244.421 53.344 244.377 53.176 244.377 52.968C244.377 52.76 244.421 52.588 244.517 52.456C244.625 52.3 244.777 52.224 244.973 52.224ZM247.443 51.876C247.163 51.876 246.947 51.976 246.803 52.18V51.932H246.407V54.792H246.831V53.696C246.999 53.936 247.207 54.056 247.463 54.056C247.759 54.056 247.995 53.948 248.163 53.732C248.319 53.532 248.399 53.28 248.399 52.976C248.399 52.656 248.319 52.4 248.159 52.2C247.983 51.984 247.747 51.876 247.443 51.876ZM247.379 52.22C247.587 52.22 247.739 52.292 247.839 52.444C247.919 52.572 247.963 52.748 247.963 52.976C247.963 53.204 247.915 53.38 247.827 53.508C247.727 53.644 247.575 53.712 247.367 53.712C247.207 53.712 247.079 53.648 246.983 53.524C246.871 53.388 246.819 53.208 246.819 52.988V52.952C246.819 52.74 246.863 52.568 246.951 52.44C247.051 52.292 247.195 52.22 247.379 52.22ZM249.674 51.876C249.37 51.876 249.126 51.98 248.95 52.192C248.766 52.4 248.678 52.656 248.678 52.964C248.678 53.304 248.774 53.572 248.966 53.772C249.142 53.96 249.386 54.056 249.69 54.056C249.966 54.056 250.194 53.976 250.374 53.82C250.518 53.692 250.61 53.528 250.658 53.336H250.234C250.178 53.456 250.118 53.548 250.046 53.604C249.954 53.672 249.834 53.708 249.686 53.708C249.518 53.708 249.386 53.652 249.29 53.548C249.194 53.44 249.142 53.284 249.126 53.084H250.694C250.69 52.716 250.606 52.428 250.446 52.22C250.27 51.988 250.01 51.876 249.674 51.876ZM249.686 52.224C250.022 52.224 250.21 52.404 250.25 52.764H249.134C249.158 52.588 249.218 52.456 249.306 52.364C249.402 52.268 249.526 52.224 249.686 52.224ZM252.016 51.876C251.888 51.876 251.776 51.912 251.68 51.992C251.6 52.048 251.532 52.132 251.48 52.244V51.932H251.056V54H251.48V52.904C251.48 52.724 251.532 52.576 251.64 52.464C251.74 52.36 251.856 52.308 251.984 52.308C252.08 52.308 252.18 52.32 252.284 52.352V51.928C252.212 51.892 252.12 51.876 252.016 51.876ZM253.172 51.264L252.748 51.44V51.932H252.364V52.284H252.748V53.484C252.748 53.648 252.784 53.772 252.864 53.86C252.944 53.952 253.076 54 253.252 54H253.592V53.648H253.32C253.268 53.648 253.232 53.632 253.208 53.608C253.184 53.58 253.172 53.54 253.172 53.484V52.284H253.644V51.932H253.172V51.264ZM253.765 51.932L254.585 53.952L254.225 54.792H254.677L255.801 51.932H255.337L254.793 53.44L254.225 51.932H253.765ZM258.38 51.088C258.1 51.088 257.872 51.164 257.696 51.324C257.508 51.484 257.404 51.704 257.38 51.988H257.808C257.824 51.812 257.884 51.68 257.98 51.592C258.076 51.504 258.212 51.46 258.384 51.46C258.552 51.46 258.684 51.496 258.772 51.576C258.852 51.652 258.896 51.76 258.896 51.904C258.896 52.048 258.848 52.16 258.76 52.236C258.672 52.312 258.54 52.352 258.364 52.352H258.16V52.68H258.368C258.556 52.68 258.7 52.72 258.796 52.8C258.9 52.88 258.952 53.004 258.952 53.172C258.952 53.316 258.9 53.432 258.804 53.528C258.692 53.632 258.544 53.688 258.36 53.688C258.192 53.688 258.056 53.64 257.952 53.544C257.832 53.44 257.772 53.292 257.764 53.1H257.324C257.348 53.42 257.46 53.664 257.66 53.832C257.836 53.98 258.072 54.056 258.364 54.056C258.668 54.056 258.92 53.968 259.112 53.8C259.292 53.632 259.384 53.416 259.384 53.152C259.384 52.984 259.336 52.844 259.24 52.736C259.152 52.632 259.024 52.552 258.856 52.5C259.168 52.396 259.328 52.184 259.328 51.872C259.328 51.628 259.24 51.436 259.072 51.296C258.896 51.156 258.668 51.088 258.38 51.088Z" fill="#999999"/>
</svg>
