<svg width="290" height="160" viewBox="0 0 290 160" fill="none" xmlns="http://www.w3.org/2000/svg">
<path d="M43.596 73.562V74.472H40.208V75.298H43.596V76.236H40.768V77.048H43.596V78H39.816V78.84H48.384V78H44.562V77.048H47.53V76.236H44.562V75.298H48.034V74.472H44.562V73.562H43.596ZM41.846 82.368H46.368V83.39H41.846V82.368ZM46.368 81.584H41.846V80.548H46.368V81.584ZM41.846 84.174H46.368V84.972C46.368 85.294 46.186 85.462 45.85 85.462L44.73 85.42L44.968 86.316H46.144C46.928 86.316 47.334 85.938 47.334 85.182V79.722H40.88V86.4H41.846V84.174ZM37.282 73.716L36.568 74.402C37.576 75.158 38.374 75.872 38.962 76.544L39.648 75.844C39.004 75.13 38.22 74.416 37.282 73.716ZM35.588 77.846V78.812H37.59V84.37C37.59 84.608 37.478 84.818 37.268 85.014L37.66 85.91C38.528 85.28 39.368 84.552 40.152 83.74L39.886 82.676C39.41 83.166 38.976 83.6 38.556 83.992V77.846H35.588ZM50.764 73.786L50.078 74.444C51.072 75.228 51.856 75.97 52.43 76.67L53.13 75.97C52.486 75.242 51.702 74.514 50.764 73.786ZM58.898 86.148H62.146L62.398 85.14C62.02 85.168 61.488 85.182 60.816 85.196C60.116 85.21 59.43 85.224 58.758 85.224C57.666 85.224 56.742 85.21 56.014 85.196C55.174 85.168 54.544 85.056 54.11 84.86C53.718 84.678 53.354 84.384 53.018 83.978C52.906 83.852 52.794 83.74 52.682 83.656V78.42H49.756V79.344H51.744V83.6C51.156 83.852 50.498 84.58 49.742 85.77L50.498 86.456C51.282 85.14 51.842 84.496 52.192 84.496C52.36 84.496 52.542 84.608 52.738 84.846C53.172 85.35 53.662 85.7 54.208 85.868C54.768 86.022 55.51 86.106 56.406 86.12C57.302 86.134 58.142 86.148 58.898 86.148ZM57.694 73.52V75.312H55.846C56.014 74.864 56.168 74.402 56.308 73.912L55.342 73.716C55.006 74.976 54.46 76.138 53.704 77.188L54.586 77.734C54.894 77.286 55.174 76.81 55.426 76.278H57.694V78.28H54.054V79.26H56.308C56.266 80.128 56.126 80.884 55.888 81.5C55.524 82.34 54.782 83.04 53.648 83.6L54.306 84.398C55.622 83.712 56.476 82.83 56.84 81.766C57.078 81.066 57.218 80.226 57.26 79.26H58.674V83.236C58.674 83.544 58.758 83.796 58.954 83.992C59.136 84.188 59.402 84.286 59.766 84.286H60.774C61.25 84.272 61.586 84.16 61.782 83.964C61.992 83.74 62.146 83.054 62.23 81.892L61.348 81.598C61.292 82.592 61.18 83.152 61.012 83.278C60.9 83.362 60.76 83.404 60.564 83.404H60.06C59.752 83.404 59.612 83.264 59.612 83.012V79.26H61.964V78.28H58.674V76.278H61.474V75.312H58.674V73.52H57.694ZM68.782 74.122V75.032H69.482C69.874 76.096 70.504 76.978 71.386 77.692C70.518 78.112 69.482 78.448 68.292 78.728L68.768 79.582C70.126 79.246 71.302 78.826 72.282 78.294C73.29 78.882 74.578 79.288 76.118 79.498L76.482 78.602C75.208 78.434 74.116 78.14 73.22 77.72C74.284 76.964 75.012 76.054 75.418 74.962V74.122H68.782ZM70.476 75.032H74.354C73.92 75.872 73.234 76.586 72.282 77.188C71.456 76.628 70.854 75.9 70.476 75.032ZM65.268 86.274C66.094 86.274 66.514 85.868 66.514 85.056V81.038C67.06 80.814 67.592 80.576 68.11 80.324V79.302C67.578 79.568 67.046 79.82 66.514 80.044V77.216H68.082V76.25H66.514V73.604H65.478V76.25H63.77V77.216H65.478V80.422C64.848 80.632 64.204 80.814 63.546 80.968L63.798 81.976C64.358 81.808 64.918 81.626 65.478 81.43V84.79C65.478 85.154 65.282 85.35 64.918 85.35C64.568 85.35 64.204 85.322 63.84 85.294L64.05 86.274H65.268ZM69.02 80.59V81.514H71.82V83.11H68.306V84.048H71.82V86.26H72.8V84.048H76.272V83.11H72.8V81.514H75.558V80.59H72.8V79.358H71.82V80.59H69.02Z" fill="#999999"/>
<rect x="25.5" y="62.5" width="239" height="35" rx="1.5" stroke="#DFE5EC"/>
<g opacity="0.6">
<path d="M251.028 77L252 77.9767L247 83L242 77.9767L242.972 77L247 81.0465L251.028 77Z" fill="#666666"/>
</g>
</svg>
