<svg width="290" height="160" viewBox="0 0 290 160" fill="none" xmlns="http://www.w3.org/2000/svg">
<path d="M50.6009 27.69C49.8209 27.69 49.2509 28.02 48.8809 28.68V27.83H48.1309V34.98H48.9309V32.06C49.3309 32.78 49.9009 33.14 50.6409 33.14C51.3809 33.14 51.9509 32.86 52.3709 32.32C52.7509 31.82 52.9509 31.19 52.9509 30.43C52.9509 29.65 52.7509 29.02 52.3609 28.52C51.9309 27.96 51.3409 27.69 50.6009 27.69ZM50.5009 28.35C51.0509 28.35 51.4709 28.55 51.7609 28.97C52.0009 29.33 52.1309 29.82 52.1309 30.43C52.1309 31.05 52.0009 31.54 51.7409 31.9C51.4509 32.28 51.0309 32.48 50.4709 32.48C49.9909 32.48 49.6209 32.29 49.3409 31.93C49.0409 31.56 48.9009 31.08 48.9009 30.48V30.38C48.9009 29.8 49.0309 29.32 49.2909 28.96C49.5709 28.55 49.9809 28.35 50.5009 28.35ZM56.2602 27.69C55.9002 27.69 55.5902 27.8 55.3202 28.02C55.1002 28.19 54.9202 28.43 54.7802 28.73V27.83H53.9902V33H54.7802V30.26C54.7802 29.78 54.9102 29.37 55.1902 29.03C55.4602 28.67 55.8002 28.5 56.2002 28.5C56.4502 28.5 56.7102 28.53 56.9702 28.61V27.81C56.7802 27.73 56.5402 27.69 56.2602 27.69ZM59.9526 27.69C59.1726 27.69 58.5626 27.95 58.1026 28.49C57.6626 29 57.4426 29.64 57.4426 30.42C57.4426 31.19 57.6626 31.83 58.1026 32.33C58.5626 32.87 59.1726 33.14 59.9526 33.14C60.7226 33.14 61.3426 32.87 61.8126 32.33C62.2426 31.83 62.4626 31.19 62.4626 30.42C62.4626 29.64 62.2426 29 61.8026 28.49C61.3426 27.95 60.7226 27.69 59.9526 27.69ZM59.9526 28.36C60.4926 28.36 60.9226 28.57 61.2426 28.99C61.5126 29.37 61.6526 29.84 61.6526 30.42C61.6526 30.98 61.5126 31.46 61.2426 31.84C60.9226 32.26 60.4926 32.47 59.9526 32.47C59.4026 32.47 58.9726 32.26 58.6726 31.84C58.3926 31.46 58.2626 30.99 58.2626 30.42C58.2626 29.84 58.3926 29.37 58.6726 28.99C58.9726 28.57 59.4026 28.36 59.9526 28.36ZM65.972 27.69C65.192 27.69 64.622 28.02 64.252 28.68V27.83H63.502V34.98H64.302V32.06C64.702 32.78 65.272 33.14 66.012 33.14C66.752 33.14 67.322 32.86 67.742 32.32C68.122 31.82 68.322 31.19 68.322 30.43C68.322 29.65 68.122 29.02 67.732 28.52C67.302 27.96 66.712 27.69 65.972 27.69ZM65.872 28.35C66.422 28.35 66.842 28.55 67.132 28.97C67.372 29.33 67.502 29.82 67.502 30.43C67.502 31.05 67.372 31.54 67.112 31.9C66.822 32.28 66.402 32.48 65.842 32.48C65.362 32.48 64.992 32.29 64.712 31.93C64.412 31.56 64.272 31.08 64.272 30.48V30.38C64.272 29.8 64.402 29.32 64.662 28.96C64.942 28.55 65.352 28.35 65.872 28.35ZM71.4913 27.69C70.7413 27.69 70.1513 27.96 69.7113 28.5C69.2713 29.01 69.0613 29.65 69.0613 30.41C69.0613 31.25 69.2813 31.91 69.7413 32.41C70.1813 32.89 70.7813 33.14 71.5213 33.14C72.1913 33.14 72.7413 32.94 73.1713 32.56C73.5213 32.24 73.7513 31.84 73.8713 31.34H73.0713C72.9413 31.7 72.7713 31.97 72.5513 32.15C72.2913 32.36 71.9413 32.47 71.5213 32.47C71.0313 32.47 70.6413 32.31 70.3613 31.99C70.0813 31.67 69.9313 31.22 69.8913 30.64H73.9713C73.9513 29.74 73.7513 29.03 73.3713 28.53C72.9513 27.97 72.3213 27.69 71.4913 27.69ZM71.5113 28.36C72.4913 28.36 73.0413 28.91 73.1413 30.02H69.9113C69.9613 29.51 70.1213 29.11 70.4013 28.81C70.6813 28.51 71.0513 28.36 71.5113 28.36ZM77.1782 27.69C76.8182 27.69 76.5082 27.8 76.2382 28.02C76.0182 28.19 75.8382 28.43 75.6982 28.73V27.83H74.9082V33H75.6982V30.26C75.6982 29.78 75.8282 29.37 76.1082 29.03C76.3782 28.67 76.7182 28.5 77.1182 28.5C77.3682 28.5 77.6282 28.53 77.8882 28.61V27.81C77.6982 27.73 77.4582 27.69 77.1782 27.69ZM79.9406 26.16L79.1506 26.49V27.83H78.1106V28.5H79.1506V31.79C79.1506 32.18 79.2306 32.47 79.4006 32.67C79.5806 32.89 79.8906 33 80.3106 33H81.0906V32.33H80.4306C80.2506 32.33 80.1206 32.28 80.0506 32.2C79.9706 32.12 79.9406 31.98 79.9406 31.79V28.5H81.2206V27.83H79.9406V26.16ZM81.5452 27.83L83.5952 32.88L82.7052 34.98H83.5752L86.4052 27.83H85.5252L83.9952 31.91L82.4152 27.83H81.5452ZM92.0863 25.86C91.8463 26.13 91.5663 26.37 91.2263 26.59C90.8863 26.79 90.5463 26.93 90.2263 27.02V27.84C90.8963 27.64 91.4563 27.32 91.9063 26.86V33H92.7263V25.86H92.0863Z" fill="#999999"/>
<path d="M113.14 24.83V25.48H110.72V26.07H113.14V26.74H111.12V27.32H113.14V28H110.44V28.6H116.56V28H113.83V27.32H115.95V26.74H113.83V26.07H116.31V25.48H113.83V24.83H113.14ZM111.89 31.12H115.12V31.85H111.89V31.12ZM115.12 30.56H111.89V29.82H115.12V30.56ZM111.89 32.41H115.12V32.98C115.12 33.21 114.99 33.33 114.75 33.33L113.95 33.3L114.12 33.94H114.96C115.52 33.94 115.81 33.67 115.81 33.13V29.23H111.2V34H111.89V32.41ZM108.63 24.94L108.12 25.43C108.84 25.97 109.41 26.48 109.83 26.96L110.32 26.46C109.86 25.95 109.3 25.44 108.63 24.94ZM107.42 27.89V28.58H108.85V32.55C108.85 32.72 108.77 32.87 108.62 33.01L108.9 33.65C109.52 33.2 110.12 32.68 110.68 32.1L110.49 31.34C110.15 31.69 109.84 32 109.54 32.28V27.89H107.42ZM119.29 27.61V29.1H118.3C118.55 28.46 118.78 27.73 119 26.91H120.93V26.23H119.17C119.26 25.83 119.35 25.4 119.44 24.95L118.78 24.8C118.69 25.3 118.6 25.77 118.5 26.23H117.51V26.91H118.34C118.11 27.8 117.86 28.55 117.58 29.15L117.73 29.75H119.29V31.24C118.71 31.35 118.09 31.45 117.43 31.53L117.52 32.23C118.13 32.14 118.72 32.04 119.29 31.93V34H119.96V31.78L120.91 31.54V30.86C120.61 30.94 120.3 31.02 119.96 31.1V29.75H120.88V29.1H119.96V27.61H119.29ZM122.24 27.1V27.69H125.11V27.09H122.25C122.75 26.61 123.23 26.08 123.71 25.5C124.47 26.48 125.32 27.31 126.26 27.99L126.64 27.42C125.73 26.78 124.84 25.93 123.97 24.85H123.45C122.64 25.85 121.72 26.73 120.7 27.48L121.09 28.08C121.48 27.78 121.86 27.45 122.24 27.1ZM122.94 33.93C123.43 33.93 123.68 33.67 123.68 33.16V28.49H121.32V34H121.95V32.13H123.07V33.03C123.07 33.25 122.96 33.36 122.74 33.36L122.3 33.34L122.46 33.93H122.94ZM121.95 31.57V30.62H123.07V31.57H121.95ZM121.95 30.06V29.07H123.07V30.06H121.95ZM124.28 28.77V32.36H124.84V28.77H124.28ZM125.37 33.95C125.85 33.95 126.1 33.66 126.1 33.09V28.32H125.47V32.93C125.47 33.21 125.36 33.36 125.15 33.36C124.9 33.36 124.64 33.34 124.37 33.32L124.52 33.95H125.37ZM131.56 27.15C130.92 29.81 129.53 31.85 127.39 33.25L127.82 33.86C129.92 32.5 131.3 30.54 131.96 27.99C132.01 28.11 132.06 28.25 132.12 28.41C133.15 31.05 134.47 32.87 136.09 33.85L136.54 33.27C134.96 32.28 133.71 30.59 132.77 28.2C132.15 26.58 131.4 25.45 130.51 24.83L129.91 25.21C130.55 25.67 131.1 26.31 131.56 27.15ZM140.09 27.69C139.31 27.69 138.74 28.02 138.37 28.68V27.83H137.62V34.98H138.42V32.06C138.82 32.78 139.39 33.14 140.13 33.14C140.87 33.14 141.44 32.86 141.86 32.32C142.24 31.82 142.44 31.19 142.44 30.43C142.44 29.65 142.24 29.02 141.85 28.52C141.42 27.96 140.83 27.69 140.09 27.69ZM139.99 28.35C140.54 28.35 140.96 28.55 141.25 28.97C141.49 29.33 141.62 29.82 141.62 30.43C141.62 31.05 141.49 31.54 141.23 31.9C140.94 32.28 140.52 32.48 139.96 32.48C139.48 32.48 139.11 32.29 138.83 31.93C138.53 31.56 138.39 31.08 138.39 30.48V30.38C138.39 29.8 138.52 29.32 138.78 28.96C139.06 28.55 139.47 28.35 139.99 28.35ZM145.749 27.69C145.389 27.69 145.079 27.8 144.809 28.02C144.589 28.19 144.409 28.43 144.269 28.73V27.83H143.479V33H144.269V30.26C144.269 29.78 144.399 29.37 144.679 29.03C144.949 28.67 145.289 28.5 145.689 28.5C145.939 28.5 146.199 28.53 146.459 28.61V27.81C146.269 27.73 146.029 27.69 145.749 27.69ZM149.442 27.69C148.662 27.69 148.052 27.95 147.592 28.49C147.152 29 146.932 29.64 146.932 30.42C146.932 31.19 147.152 31.83 147.592 32.33C148.052 32.87 148.662 33.14 149.442 33.14C150.212 33.14 150.832 32.87 151.302 32.33C151.732 31.83 151.952 31.19 151.952 30.42C151.952 29.64 151.732 29 151.292 28.49C150.832 27.95 150.212 27.69 149.442 27.69ZM149.442 28.36C149.982 28.36 150.412 28.57 150.732 28.99C151.002 29.37 151.142 29.84 151.142 30.42C151.142 30.98 151.002 31.46 150.732 31.84C150.412 32.26 149.982 32.47 149.442 32.47C148.892 32.47 148.462 32.26 148.162 31.84C147.882 31.46 147.752 30.99 147.752 30.42C147.752 29.84 147.882 29.37 148.162 28.99C148.462 28.57 148.892 28.36 149.442 28.36ZM155.461 27.69C154.681 27.69 154.111 28.02 153.741 28.68V27.83H152.991V34.98H153.791V32.06C154.191 32.78 154.761 33.14 155.501 33.14C156.241 33.14 156.811 32.86 157.231 32.32C157.611 31.82 157.811 31.19 157.811 30.43C157.811 29.65 157.611 29.02 157.221 28.52C156.791 27.96 156.201 27.69 155.461 27.69ZM155.361 28.35C155.911 28.35 156.331 28.55 156.621 28.97C156.861 29.33 156.991 29.82 156.991 30.43C156.991 31.05 156.861 31.54 156.601 31.9C156.311 32.28 155.891 32.48 155.331 32.48C154.851 32.48 154.481 32.29 154.201 31.93C153.901 31.56 153.761 31.08 153.761 30.48V30.38C153.761 29.8 153.891 29.32 154.151 28.96C154.431 28.55 154.841 28.35 155.361 28.35ZM160.98 27.69C160.23 27.69 159.64 27.96 159.2 28.5C158.76 29.01 158.55 29.65 158.55 30.41C158.55 31.25 158.77 31.91 159.23 32.41C159.67 32.89 160.27 33.14 161.01 33.14C161.68 33.14 162.23 32.94 162.66 32.56C163.01 32.24 163.24 31.84 163.36 31.34H162.56C162.43 31.7 162.26 31.97 162.04 32.15C161.78 32.36 161.43 32.47 161.01 32.47C160.52 32.47 160.13 32.31 159.85 31.99C159.57 31.67 159.42 31.22 159.38 30.64H163.46C163.44 29.74 163.24 29.03 162.86 28.53C162.44 27.97 161.81 27.69 160.98 27.69ZM161 28.36C161.98 28.36 162.53 28.91 162.63 30.02H159.4C159.45 29.51 159.61 29.11 159.89 28.81C160.17 28.51 160.54 28.36 161 28.36ZM166.667 27.69C166.307 27.69 165.997 27.8 165.727 28.02C165.507 28.19 165.327 28.43 165.187 28.73V27.83H164.397V33H165.187V30.26C165.187 29.78 165.317 29.37 165.597 29.03C165.867 28.67 166.207 28.5 166.607 28.5C166.857 28.5 167.117 28.53 167.377 28.61V27.81C167.187 27.73 166.947 27.69 166.667 27.69ZM169.43 26.16L168.64 26.49V27.83H167.6V28.5H168.64V31.79C168.64 32.18 168.72 32.47 168.89 32.67C169.07 32.89 169.38 33 169.8 33H170.58V32.33H169.92C169.74 32.33 169.61 32.28 169.54 32.2C169.46 32.12 169.43 31.98 169.43 31.79V28.5H170.71V27.83H169.43V26.16ZM171.034 27.83L173.084 32.88L172.194 34.98H173.064L175.894 27.83H175.014L173.484 31.91L171.904 27.83H171.034ZM181.575 25.86C181.335 26.13 181.055 26.37 180.715 26.59C180.375 26.79 180.035 26.93 179.715 27.02V27.84C180.385 27.64 180.945 27.32 181.395 26.86V33H182.215V25.86H181.575Z" fill="#999999"/>
<rect x="101.5" y="17.5" width="143" height="23" rx="1.5" stroke="#DFE5EC"/>
<path d="M47.8185 61.69C47.0385 61.69 46.4685 62.02 46.0985 62.68V61.83H45.3485V68.98H46.1485V66.06C46.5485 66.78 47.1185 67.14 47.8585 67.14C48.5985 67.14 49.1685 66.86 49.5885 66.32C49.9685 65.82 50.1685 65.19 50.1685 64.43C50.1685 63.65 49.9685 63.02 49.5785 62.52C49.1485 61.96 48.5585 61.69 47.8185 61.69ZM47.7185 62.35C48.2685 62.35 48.6885 62.55 48.9785 62.97C49.2185 63.33 49.3485 63.82 49.3485 64.43C49.3485 65.05 49.2185 65.54 48.9585 65.9C48.6685 66.28 48.2485 66.48 47.6885 66.48C47.2085 66.48 46.8385 66.29 46.5585 65.93C46.2585 65.56 46.1185 65.08 46.1185 64.48V64.38C46.1185 63.8 46.2485 63.32 46.5085 62.96C46.7885 62.55 47.1985 62.35 47.7185 62.35ZM53.4779 61.69C53.1179 61.69 52.8079 61.8 52.5379 62.02C52.3179 62.19 52.1379 62.43 51.9979 62.73V61.83H51.2079V67H51.9979V64.26C51.9979 63.78 52.1279 63.37 52.4079 63.03C52.6779 62.67 53.0179 62.5 53.4179 62.5C53.6679 62.5 53.9279 62.53 54.1879 62.61V61.81C53.9979 61.73 53.7579 61.69 53.4779 61.69ZM57.1702 61.69C56.3902 61.69 55.7802 61.95 55.3202 62.49C54.8802 63 54.6602 63.64 54.6602 64.42C54.6602 65.19 54.8802 65.83 55.3202 66.33C55.7802 66.87 56.3902 67.14 57.1702 67.14C57.9402 67.14 58.5602 66.87 59.0302 66.33C59.4602 65.83 59.6802 65.19 59.6802 64.42C59.6802 63.64 59.4602 63 59.0202 62.49C58.5602 61.95 57.9402 61.69 57.1702 61.69ZM57.1702 62.36C57.7102 62.36 58.1402 62.57 58.4602 62.99C58.7302 63.37 58.8702 63.84 58.8702 64.42C58.8702 64.98 58.7302 65.46 58.4602 65.84C58.1402 66.26 57.7102 66.47 57.1702 66.47C56.6202 66.47 56.1902 66.26 55.8902 65.84C55.6102 65.46 55.4802 64.99 55.4802 64.42C55.4802 63.84 55.6102 63.37 55.8902 62.99C56.1902 62.57 56.6202 62.36 57.1702 62.36ZM63.1896 61.69C62.4096 61.69 61.8396 62.02 61.4696 62.68V61.83H60.7196V68.98H61.5196V66.06C61.9196 66.78 62.4896 67.14 63.2296 67.14C63.9696 67.14 64.5396 66.86 64.9596 66.32C65.3396 65.82 65.5396 65.19 65.5396 64.43C65.5396 63.65 65.3396 63.02 64.9496 62.52C64.5196 61.96 63.9296 61.69 63.1896 61.69ZM63.0896 62.35C63.6396 62.35 64.0596 62.55 64.3496 62.97C64.5896 63.33 64.7196 63.82 64.7196 64.43C64.7196 65.05 64.5896 65.54 64.3296 65.9C64.0396 66.28 63.6196 66.48 63.0596 66.48C62.5796 66.48 62.2096 66.29 61.9296 65.93C61.6296 65.56 61.4896 65.08 61.4896 64.48V64.38C61.4896 63.8 61.6196 63.32 61.8796 62.96C62.1596 62.55 62.5696 62.35 63.0896 62.35ZM68.709 61.69C67.959 61.69 67.369 61.96 66.929 62.5C66.489 63.01 66.279 63.65 66.279 64.41C66.279 65.25 66.499 65.91 66.959 66.41C67.399 66.89 67.999 67.14 68.739 67.14C69.409 67.14 69.959 66.94 70.389 66.56C70.739 66.24 70.969 65.84 71.089 65.34H70.289C70.159 65.7 69.989 65.97 69.769 66.15C69.509 66.36 69.159 66.47 68.739 66.47C68.249 66.47 67.859 66.31 67.579 65.99C67.299 65.67 67.149 65.22 67.109 64.64H71.189C71.169 63.74 70.969 63.03 70.589 62.53C70.169 61.97 69.539 61.69 68.709 61.69ZM68.729 62.36C69.709 62.36 70.259 62.91 70.359 64.02H67.129C67.179 63.51 67.339 63.11 67.619 62.81C67.899 62.51 68.269 62.36 68.729 62.36ZM74.3959 61.69C74.0359 61.69 73.7259 61.8 73.4559 62.02C73.2359 62.19 73.0559 62.43 72.9159 62.73V61.83H72.1259V67H72.9159V64.26C72.9159 63.78 73.0459 63.37 73.3259 63.03C73.5959 62.67 73.9359 62.5 74.3359 62.5C74.5859 62.5 74.8459 62.53 75.1059 62.61V61.81C74.9159 61.73 74.6759 61.69 74.3959 61.69ZM77.1582 60.16L76.3682 60.49V61.83H75.3282V62.5H76.3682V65.79C76.3682 66.18 76.4482 66.47 76.6182 66.67C76.7982 66.89 77.1082 67 77.5282 67H78.3082V66.33H77.6482C77.4682 66.33 77.3382 66.28 77.2682 66.2C77.1882 66.12 77.1582 65.98 77.1582 65.79V62.5H78.4382V61.83H77.1582V60.16ZM78.7629 61.83L80.8129 66.88L79.9229 68.98H80.7929L83.6229 61.83H82.7429L81.2129 65.91L79.6329 61.83H78.7629ZM90.1039 59.72C89.3839 59.72 88.7939 59.96 88.3539 60.44C87.9139 60.91 87.6839 61.55 87.6839 62.35H88.5039C88.5139 61.72 88.6639 61.24 88.9439 60.92C89.2039 60.58 89.5839 60.42 90.0739 60.42C90.5339 60.42 90.9039 60.54 91.1639 60.78C91.4239 61.02 91.5539 61.35 91.5539 61.79C91.5539 62.25 91.3639 62.68 91.0039 63.07C90.8139 63.27 90.4439 63.56 89.8839 63.96C89.1239 64.48 88.6139 64.91 88.3339 65.23C87.8539 65.76 87.6239 66.35 87.6239 67H92.3839V66.27H88.6339C88.7639 65.79 89.2839 65.24 90.1939 64.63C90.9339 64.13 91.4239 63.74 91.6739 63.48C92.1339 62.98 92.3739 62.42 92.3739 61.8C92.3739 61.18 92.1539 60.67 91.7339 60.29C91.3039 59.91 90.7639 59.72 90.1039 59.72Z" fill="#999999"/>
<path d="M113.14 58.83V59.48H110.72V60.07H113.14V60.74H111.12V61.32H113.14V62H110.44V62.6H116.56V62H113.83V61.32H115.95V60.74H113.83V60.07H116.31V59.48H113.83V58.83H113.14ZM111.89 65.12H115.12V65.85H111.89V65.12ZM115.12 64.56H111.89V63.82H115.12V64.56ZM111.89 66.41H115.12V66.98C115.12 67.21 114.99 67.33 114.75 67.33L113.95 67.3L114.12 67.94H114.96C115.52 67.94 115.81 67.67 115.81 67.13V63.23H111.2V68H111.89V66.41ZM108.63 58.94L108.12 59.43C108.84 59.97 109.41 60.48 109.83 60.96L110.32 60.46C109.86 59.95 109.3 59.44 108.63 58.94ZM107.42 61.89V62.58H108.85V66.55C108.85 66.72 108.77 66.87 108.62 67.01L108.9 67.65C109.52 67.2 110.12 66.68 110.68 66.1L110.49 65.34C110.15 65.69 109.84 66 109.54 66.28V61.89H107.42ZM119.29 61.61V63.1H118.3C118.55 62.46 118.78 61.73 119 60.91H120.93V60.23H119.17C119.26 59.83 119.35 59.4 119.44 58.95L118.78 58.8C118.69 59.3 118.6 59.77 118.5 60.23H117.51V60.91H118.34C118.11 61.8 117.86 62.55 117.58 63.15L117.73 63.75H119.29V65.24C118.71 65.35 118.09 65.45 117.43 65.53L117.52 66.23C118.13 66.14 118.72 66.04 119.29 65.93V68H119.96V65.78L120.91 65.54V64.86C120.61 64.94 120.3 65.02 119.96 65.1V63.75H120.88V63.1H119.96V61.61H119.29ZM122.24 61.1V61.69H125.11V61.09H122.25C122.75 60.61 123.23 60.08 123.71 59.5C124.47 60.48 125.32 61.31 126.26 61.99L126.64 61.42C125.73 60.78 124.84 59.93 123.97 58.85H123.45C122.64 59.85 121.72 60.73 120.7 61.48L121.09 62.08C121.48 61.78 121.86 61.45 122.24 61.1ZM122.94 67.93C123.43 67.93 123.68 67.67 123.68 67.16V62.49H121.32V68H121.95V66.13H123.07V67.03C123.07 67.25 122.96 67.36 122.74 67.36L122.3 67.34L122.46 67.93H122.94ZM121.95 65.57V64.62H123.07V65.57H121.95ZM121.95 64.06V63.07H123.07V64.06H121.95ZM124.28 62.77V66.36H124.84V62.77H124.28ZM125.37 67.95C125.85 67.95 126.1 67.66 126.1 67.09V62.32H125.47V66.93C125.47 67.21 125.36 67.36 125.15 67.36C124.9 67.36 124.64 67.34 124.37 67.32L124.52 67.95H125.37ZM131.56 61.15C130.92 63.81 129.53 65.85 127.39 67.25L127.82 67.86C129.92 66.5 131.3 64.54 131.96 61.99C132.01 62.11 132.06 62.25 132.12 62.41C133.15 65.05 134.47 66.87 136.09 67.85L136.54 67.27C134.96 66.28 133.71 64.59 132.77 62.2C132.15 60.58 131.4 59.45 130.51 58.83L129.91 59.21C130.55 59.67 131.1 60.31 131.56 61.15ZM140.09 61.69C139.31 61.69 138.74 62.02 138.37 62.68V61.83H137.62V68.98H138.42V66.06C138.82 66.78 139.39 67.14 140.13 67.14C140.87 67.14 141.44 66.86 141.86 66.32C142.24 65.82 142.44 65.19 142.44 64.43C142.44 63.65 142.24 63.02 141.85 62.52C141.42 61.96 140.83 61.69 140.09 61.69ZM139.99 62.35C140.54 62.35 140.96 62.55 141.25 62.97C141.49 63.33 141.62 63.82 141.62 64.43C141.62 65.05 141.49 65.54 141.23 65.9C140.94 66.28 140.52 66.48 139.96 66.48C139.48 66.48 139.11 66.29 138.83 65.93C138.53 65.56 138.39 65.08 138.39 64.48V64.38C138.39 63.8 138.52 63.32 138.78 62.96C139.06 62.55 139.47 62.35 139.99 62.35ZM145.749 61.69C145.389 61.69 145.079 61.8 144.809 62.02C144.589 62.19 144.409 62.43 144.269 62.73V61.83H143.479V67H144.269V64.26C144.269 63.78 144.399 63.37 144.679 63.03C144.949 62.67 145.289 62.5 145.689 62.5C145.939 62.5 146.199 62.53 146.459 62.61V61.81C146.269 61.73 146.029 61.69 145.749 61.69ZM149.442 61.69C148.662 61.69 148.052 61.95 147.592 62.49C147.152 63 146.932 63.64 146.932 64.42C146.932 65.19 147.152 65.83 147.592 66.33C148.052 66.87 148.662 67.14 149.442 67.14C150.212 67.14 150.832 66.87 151.302 66.33C151.732 65.83 151.952 65.19 151.952 64.42C151.952 63.64 151.732 63 151.292 62.49C150.832 61.95 150.212 61.69 149.442 61.69ZM149.442 62.36C149.982 62.36 150.412 62.57 150.732 62.99C151.002 63.37 151.142 63.84 151.142 64.42C151.142 64.98 151.002 65.46 150.732 65.84C150.412 66.26 149.982 66.47 149.442 66.47C148.892 66.47 148.462 66.26 148.162 65.84C147.882 65.46 147.752 64.99 147.752 64.42C147.752 63.84 147.882 63.37 148.162 62.99C148.462 62.57 148.892 62.36 149.442 62.36ZM155.461 61.69C154.681 61.69 154.111 62.02 153.741 62.68V61.83H152.991V68.98H153.791V66.06C154.191 66.78 154.761 67.14 155.501 67.14C156.241 67.14 156.811 66.86 157.231 66.32C157.611 65.82 157.811 65.19 157.811 64.43C157.811 63.65 157.611 63.02 157.221 62.52C156.791 61.96 156.201 61.69 155.461 61.69ZM155.361 62.35C155.911 62.35 156.331 62.55 156.621 62.97C156.861 63.33 156.991 63.82 156.991 64.43C156.991 65.05 156.861 65.54 156.601 65.9C156.311 66.28 155.891 66.48 155.331 66.48C154.851 66.48 154.481 66.29 154.201 65.93C153.901 65.56 153.761 65.08 153.761 64.48V64.38C153.761 63.8 153.891 63.32 154.151 62.96C154.431 62.55 154.841 62.35 155.361 62.35ZM160.98 61.69C160.23 61.69 159.64 61.96 159.2 62.5C158.76 63.01 158.55 63.65 158.55 64.41C158.55 65.25 158.77 65.91 159.23 66.41C159.67 66.89 160.27 67.14 161.01 67.14C161.68 67.14 162.23 66.94 162.66 66.56C163.01 66.24 163.24 65.84 163.36 65.34H162.56C162.43 65.7 162.26 65.97 162.04 66.15C161.78 66.36 161.43 66.47 161.01 66.47C160.52 66.47 160.13 66.31 159.85 65.99C159.57 65.67 159.42 65.22 159.38 64.64H163.46C163.44 63.74 163.24 63.03 162.86 62.53C162.44 61.97 161.81 61.69 160.98 61.69ZM161 62.36C161.98 62.36 162.53 62.91 162.63 64.02H159.4C159.45 63.51 159.61 63.11 159.89 62.81C160.17 62.51 160.54 62.36 161 62.36ZM166.667 61.69C166.307 61.69 165.997 61.8 165.727 62.02C165.507 62.19 165.327 62.43 165.187 62.73V61.83H164.397V67H165.187V64.26C165.187 63.78 165.317 63.37 165.597 63.03C165.867 62.67 166.207 62.5 166.607 62.5C166.857 62.5 167.117 62.53 167.377 62.61V61.81C167.187 61.73 166.947 61.69 166.667 61.69ZM169.43 60.16L168.64 60.49V61.83H167.6V62.5H168.64V65.79C168.64 66.18 168.72 66.47 168.89 66.67C169.07 66.89 169.38 67 169.8 67H170.58V66.33H169.92C169.74 66.33 169.61 66.28 169.54 66.2C169.46 66.12 169.43 65.98 169.43 65.79V62.5H170.71V61.83H169.43V60.16ZM171.034 61.83L173.084 66.88L172.194 68.98H173.064L175.894 61.83H175.014L173.484 65.91L171.904 61.83H171.034ZM182.375 59.72C181.655 59.72 181.065 59.96 180.625 60.44C180.185 60.91 179.955 61.55 179.955 62.35H180.775C180.785 61.72 180.935 61.24 181.215 60.92C181.475 60.58 181.855 60.42 182.345 60.42C182.805 60.42 183.175 60.54 183.435 60.78C183.695 61.02 183.825 61.35 183.825 61.79C183.825 62.25 183.635 62.68 183.275 63.07C183.085 63.27 182.715 63.56 182.155 63.96C181.395 64.48 180.885 64.91 180.605 65.23C180.125 65.76 179.895 66.35 179.895 67H184.655V66.27H180.905C181.035 65.79 181.555 65.24 182.465 64.63C183.205 64.13 183.695 63.74 183.945 63.48C184.405 62.98 184.645 62.42 184.645 61.8C184.645 61.18 184.425 60.67 184.005 60.29C183.575 59.91 183.035 59.72 182.375 59.72Z" fill="#999999"/>
<rect x="101.5" y="51.5" width="143" height="23" rx="1.5" stroke="#DFE5EC"/>
<path d="M47.8185 94.69C47.0385 94.69 46.4685 95.02 46.0985 95.68V94.83H45.3485V101.98H46.1485V99.06C46.5485 99.78 47.1185 100.14 47.8585 100.14C48.5985 100.14 49.1685 99.86 49.5885 99.32C49.9685 98.82 50.1685 98.19 50.1685 97.43C50.1685 96.65 49.9685 96.02 49.5785 95.52C49.1485 94.96 48.5585 94.69 47.8185 94.69ZM47.7185 95.35C48.2685 95.35 48.6885 95.55 48.9785 95.97C49.2185 96.33 49.3485 96.82 49.3485 97.43C49.3485 98.05 49.2185 98.54 48.9585 98.9C48.6685 99.28 48.2485 99.48 47.6885 99.48C47.2085 99.48 46.8385 99.29 46.5585 98.93C46.2585 98.56 46.1185 98.08 46.1185 97.48V97.38C46.1185 96.8 46.2485 96.32 46.5085 95.96C46.7885 95.55 47.1985 95.35 47.7185 95.35ZM53.4779 94.69C53.1179 94.69 52.8079 94.8 52.5379 95.02C52.3179 95.19 52.1379 95.43 51.9979 95.73V94.83H51.2079V100H51.9979V97.26C51.9979 96.78 52.1279 96.37 52.4079 96.03C52.6779 95.67 53.0179 95.5 53.4179 95.5C53.6679 95.5 53.9279 95.53 54.1879 95.61V94.81C53.9979 94.73 53.7579 94.69 53.4779 94.69ZM57.1702 94.69C56.3902 94.69 55.7802 94.95 55.3202 95.49C54.8802 96 54.6602 96.64 54.6602 97.42C54.6602 98.19 54.8802 98.83 55.3202 99.33C55.7802 99.87 56.3902 100.14 57.1702 100.14C57.9402 100.14 58.5602 99.87 59.0302 99.33C59.4602 98.83 59.6802 98.19 59.6802 97.42C59.6802 96.64 59.4602 96 59.0202 95.49C58.5602 94.95 57.9402 94.69 57.1702 94.69ZM57.1702 95.36C57.7102 95.36 58.1402 95.57 58.4602 95.99C58.7302 96.37 58.8702 96.84 58.8702 97.42C58.8702 97.98 58.7302 98.46 58.4602 98.84C58.1402 99.26 57.7102 99.47 57.1702 99.47C56.6202 99.47 56.1902 99.26 55.8902 98.84C55.6102 98.46 55.4802 97.99 55.4802 97.42C55.4802 96.84 55.6102 96.37 55.8902 95.99C56.1902 95.57 56.6202 95.36 57.1702 95.36ZM63.1896 94.69C62.4096 94.69 61.8396 95.02 61.4696 95.68V94.83H60.7196V101.98H61.5196V99.06C61.9196 99.78 62.4896 100.14 63.2296 100.14C63.9696 100.14 64.5396 99.86 64.9596 99.32C65.3396 98.82 65.5396 98.19 65.5396 97.43C65.5396 96.65 65.3396 96.02 64.9496 95.52C64.5196 94.96 63.9296 94.69 63.1896 94.69ZM63.0896 95.35C63.6396 95.35 64.0596 95.55 64.3496 95.97C64.5896 96.33 64.7196 96.82 64.7196 97.43C64.7196 98.05 64.5896 98.54 64.3296 98.9C64.0396 99.28 63.6196 99.48 63.0596 99.48C62.5796 99.48 62.2096 99.29 61.9296 98.93C61.6296 98.56 61.4896 98.08 61.4896 97.48V97.38C61.4896 96.8 61.6196 96.32 61.8796 95.96C62.1596 95.55 62.5696 95.35 63.0896 95.35ZM68.709 94.69C67.959 94.69 67.369 94.96 66.929 95.5C66.489 96.01 66.279 96.65 66.279 97.41C66.279 98.25 66.499 98.91 66.959 99.41C67.399 99.89 67.999 100.14 68.739 100.14C69.409 100.14 69.959 99.94 70.389 99.56C70.739 99.24 70.969 98.84 71.089 98.34H70.289C70.159 98.7 69.989 98.97 69.769 99.15C69.509 99.36 69.159 99.47 68.739 99.47C68.249 99.47 67.859 99.31 67.579 98.99C67.299 98.67 67.149 98.22 67.109 97.64H71.189C71.169 96.74 70.969 96.03 70.589 95.53C70.169 94.97 69.539 94.69 68.709 94.69ZM68.729 95.36C69.709 95.36 70.259 95.91 70.359 97.02H67.129C67.179 96.51 67.339 96.11 67.619 95.81C67.899 95.51 68.269 95.36 68.729 95.36ZM74.3959 94.69C74.0359 94.69 73.7259 94.8 73.4559 95.02C73.2359 95.19 73.0559 95.43 72.9159 95.73V94.83H72.1259V100H72.9159V97.26C72.9159 96.78 73.0459 96.37 73.3259 96.03C73.5959 95.67 73.9359 95.5 74.3359 95.5C74.5859 95.5 74.8459 95.53 75.1059 95.61V94.81C74.9159 94.73 74.6759 94.69 74.3959 94.69ZM77.1582 93.16L76.3682 93.49V94.83H75.3282V95.5H76.3682V98.79C76.3682 99.18 76.4482 99.47 76.6182 99.67C76.7982 99.89 77.1082 100 77.5282 100H78.3082V99.33H77.6482C77.4682 99.33 77.3382 99.28 77.2682 99.2C77.1882 99.12 77.1582 98.98 77.1582 98.79V95.5H78.4382V94.83H77.1582V93.16ZM78.7629 94.83L80.8129 99.88L79.9229 101.98H80.7929L83.6229 94.83H82.7429L81.2129 98.91L79.6329 94.83H78.7629ZM90.0739 92.72C89.3939 92.72 88.8439 92.91 88.4239 93.3C87.9839 93.69 87.7239 94.23 87.6639 94.92H88.4739C88.5239 94.44 88.6839 94.07 88.9639 93.81C89.2339 93.55 89.6039 93.43 90.0839 93.43C90.5439 93.43 90.9139 93.54 91.1739 93.78C91.4139 94 91.5439 94.31 91.5439 94.71C91.5439 95.11 91.4139 95.42 91.1639 95.64C90.9139 95.85 90.5539 95.96 90.0739 95.96H89.5239V96.6H90.1039C90.6039 96.6 90.9839 96.71 91.2639 96.95C91.5439 97.19 91.6839 97.52 91.6839 97.95C91.6839 98.37 91.5339 98.72 91.2539 99C90.9439 99.29 90.5339 99.44 90.0239 99.44C89.5739 99.44 89.2039 99.31 88.9039 99.07C88.5539 98.78 88.3639 98.35 88.3439 97.79H87.5139C87.5739 98.59 87.8539 99.2 88.3639 99.62C88.7939 99.96 89.3439 100.14 90.0239 100.14C90.7639 100.14 91.3639 99.93 91.8239 99.51C92.2739 99.1 92.5039 98.57 92.5039 97.92C92.5039 97.5 92.3839 97.15 92.1439 96.87C91.9239 96.59 91.6039 96.39 91.1839 96.26C91.9639 96 92.3539 95.46 92.3539 94.66C92.3539 94.06 92.1439 93.59 91.7339 93.24C91.3139 92.89 90.7539 92.72 90.0739 92.72Z" fill="#999999"/>
<path d="M113.14 91.83V92.48H110.72V93.07H113.14V93.74H111.12V94.32H113.14V95H110.44V95.6H116.56V95H113.83V94.32H115.95V93.74H113.83V93.07H116.31V92.48H113.83V91.83H113.14ZM111.89 98.12H115.12V98.85H111.89V98.12ZM115.12 97.56H111.89V96.82H115.12V97.56ZM111.89 99.41H115.12V99.98C115.12 100.21 114.99 100.33 114.75 100.33L113.95 100.3L114.12 100.94H114.96C115.52 100.94 115.81 100.67 115.81 100.13V96.23H111.2V101H111.89V99.41ZM108.63 91.94L108.12 92.43C108.84 92.97 109.41 93.48 109.83 93.96L110.32 93.46C109.86 92.95 109.3 92.44 108.63 91.94ZM107.42 94.89V95.58H108.85V99.55C108.85 99.72 108.77 99.87 108.62 100.01L108.9 100.65C109.52 100.2 110.12 99.68 110.68 99.1L110.49 98.34C110.15 98.69 109.84 99 109.54 99.28V94.89H107.42ZM119.29 94.61V96.1H118.3C118.55 95.46 118.78 94.73 119 93.91H120.93V93.23H119.17C119.26 92.83 119.35 92.4 119.44 91.95L118.78 91.8C118.69 92.3 118.6 92.77 118.5 93.23H117.51V93.91H118.34C118.11 94.8 117.86 95.55 117.58 96.15L117.73 96.75H119.29V98.24C118.71 98.35 118.09 98.45 117.43 98.53L117.52 99.23C118.13 99.14 118.72 99.04 119.29 98.93V101H119.96V98.78L120.91 98.54V97.86C120.61 97.94 120.3 98.02 119.96 98.1V96.75H120.88V96.1H119.96V94.61H119.29ZM122.24 94.1V94.69H125.11V94.09H122.25C122.75 93.61 123.23 93.08 123.71 92.5C124.47 93.48 125.32 94.31 126.26 94.99L126.64 94.42C125.73 93.78 124.84 92.93 123.97 91.85H123.45C122.64 92.85 121.72 93.73 120.7 94.48L121.09 95.08C121.48 94.78 121.86 94.45 122.24 94.1ZM122.94 100.93C123.43 100.93 123.68 100.67 123.68 100.16V95.49H121.32V101H121.95V99.13H123.07V100.03C123.07 100.25 122.96 100.36 122.74 100.36L122.3 100.34L122.46 100.93H122.94ZM121.95 98.57V97.62H123.07V98.57H121.95ZM121.95 97.06V96.07H123.07V97.06H121.95ZM124.28 95.77V99.36H124.84V95.77H124.28ZM125.37 100.95C125.85 100.95 126.1 100.66 126.1 100.09V95.32H125.47V99.93C125.47 100.21 125.36 100.36 125.15 100.36C124.9 100.36 124.64 100.34 124.37 100.32L124.52 100.95H125.37ZM131.56 94.15C130.92 96.81 129.53 98.85 127.39 100.25L127.82 100.86C129.92 99.5 131.3 97.54 131.96 94.99C132.01 95.11 132.06 95.25 132.12 95.41C133.15 98.05 134.47 99.87 136.09 100.85L136.54 100.27C134.96 99.28 133.71 97.59 132.77 95.2C132.15 93.58 131.4 92.45 130.51 91.83L129.91 92.21C130.55 92.67 131.1 93.31 131.56 94.15ZM140.09 94.69C139.31 94.69 138.74 95.02 138.37 95.68V94.83H137.62V101.98H138.42V99.06C138.82 99.78 139.39 100.14 140.13 100.14C140.87 100.14 141.44 99.86 141.86 99.32C142.24 98.82 142.44 98.19 142.44 97.43C142.44 96.65 142.24 96.02 141.85 95.52C141.42 94.96 140.83 94.69 140.09 94.69ZM139.99 95.35C140.54 95.35 140.96 95.55 141.25 95.97C141.49 96.33 141.62 96.82 141.62 97.43C141.62 98.05 141.49 98.54 141.23 98.9C140.94 99.28 140.52 99.48 139.96 99.48C139.48 99.48 139.11 99.29 138.83 98.93C138.53 98.56 138.39 98.08 138.39 97.48V97.38C138.39 96.8 138.52 96.32 138.78 95.96C139.06 95.55 139.47 95.35 139.99 95.35ZM145.749 94.69C145.389 94.69 145.079 94.8 144.809 95.02C144.589 95.19 144.409 95.43 144.269 95.73V94.83H143.479V100H144.269V97.26C144.269 96.78 144.399 96.37 144.679 96.03C144.949 95.67 145.289 95.5 145.689 95.5C145.939 95.5 146.199 95.53 146.459 95.61V94.81C146.269 94.73 146.029 94.69 145.749 94.69ZM149.442 94.69C148.662 94.69 148.052 94.95 147.592 95.49C147.152 96 146.932 96.64 146.932 97.42C146.932 98.19 147.152 98.83 147.592 99.33C148.052 99.87 148.662 100.14 149.442 100.14C150.212 100.14 150.832 99.87 151.302 99.33C151.732 98.83 151.952 98.19 151.952 97.42C151.952 96.64 151.732 96 151.292 95.49C150.832 94.95 150.212 94.69 149.442 94.69ZM149.442 95.36C149.982 95.36 150.412 95.57 150.732 95.99C151.002 96.37 151.142 96.84 151.142 97.42C151.142 97.98 151.002 98.46 150.732 98.84C150.412 99.26 149.982 99.47 149.442 99.47C148.892 99.47 148.462 99.26 148.162 98.84C147.882 98.46 147.752 97.99 147.752 97.42C147.752 96.84 147.882 96.37 148.162 95.99C148.462 95.57 148.892 95.36 149.442 95.36ZM155.461 94.69C154.681 94.69 154.111 95.02 153.741 95.68V94.83H152.991V101.98H153.791V99.06C154.191 99.78 154.761 100.14 155.501 100.14C156.241 100.14 156.811 99.86 157.231 99.32C157.611 98.82 157.811 98.19 157.811 97.43C157.811 96.65 157.611 96.02 157.221 95.52C156.791 94.96 156.201 94.69 155.461 94.69ZM155.361 95.35C155.911 95.35 156.331 95.55 156.621 95.97C156.861 96.33 156.991 96.82 156.991 97.43C156.991 98.05 156.861 98.54 156.601 98.9C156.311 99.28 155.891 99.48 155.331 99.48C154.851 99.48 154.481 99.29 154.201 98.93C153.901 98.56 153.761 98.08 153.761 97.48V97.38C153.761 96.8 153.891 96.32 154.151 95.96C154.431 95.55 154.841 95.35 155.361 95.35ZM160.98 94.69C160.23 94.69 159.64 94.96 159.2 95.5C158.76 96.01 158.55 96.65 158.55 97.41C158.55 98.25 158.77 98.91 159.23 99.41C159.67 99.89 160.27 100.14 161.01 100.14C161.68 100.14 162.23 99.94 162.66 99.56C163.01 99.24 163.24 98.84 163.36 98.34H162.56C162.43 98.7 162.26 98.97 162.04 99.15C161.78 99.36 161.43 99.47 161.01 99.47C160.52 99.47 160.13 99.31 159.85 98.99C159.57 98.67 159.42 98.22 159.38 97.64H163.46C163.44 96.74 163.24 96.03 162.86 95.53C162.44 94.97 161.81 94.69 160.98 94.69ZM161 95.36C161.98 95.36 162.53 95.91 162.63 97.02H159.4C159.45 96.51 159.61 96.11 159.89 95.81C160.17 95.51 160.54 95.36 161 95.36ZM166.667 94.69C166.307 94.69 165.997 94.8 165.727 95.02C165.507 95.19 165.327 95.43 165.187 95.73V94.83H164.397V100H165.187V97.26C165.187 96.78 165.317 96.37 165.597 96.03C165.867 95.67 166.207 95.5 166.607 95.5C166.857 95.5 167.117 95.53 167.377 95.61V94.81C167.187 94.73 166.947 94.69 166.667 94.69ZM169.43 93.16L168.64 93.49V94.83H167.6V95.5H168.64V98.79C168.64 99.18 168.72 99.47 168.89 99.67C169.07 99.89 169.38 100 169.8 100H170.58V99.33H169.92C169.74 99.33 169.61 99.28 169.54 99.2C169.46 99.12 169.43 98.98 169.43 98.79V95.5H170.71V94.83H169.43V93.16ZM171.034 94.83L173.084 99.88L172.194 101.98H173.064L175.894 94.83H175.014L173.484 98.91L171.904 94.83H171.034ZM182.345 92.72C181.665 92.72 181.115 92.91 180.695 93.3C180.255 93.69 179.995 94.23 179.935 94.92H180.745C180.795 94.44 180.955 94.07 181.235 93.81C181.505 93.55 181.875 93.43 182.355 93.43C182.815 93.43 183.185 93.54 183.445 93.78C183.685 94 183.815 94.31 183.815 94.71C183.815 95.11 183.685 95.42 183.435 95.64C183.185 95.85 182.825 95.96 182.345 95.96H181.795V96.6H182.375C182.875 96.6 183.255 96.71 183.535 96.95C183.815 97.19 183.955 97.52 183.955 97.95C183.955 98.37 183.805 98.72 183.525 99C183.215 99.29 182.805 99.44 182.295 99.44C181.845 99.44 181.475 99.31 181.175 99.07C180.825 98.78 180.635 98.35 180.615 97.79H179.785C179.845 98.59 180.125 99.2 180.635 99.62C181.065 99.96 181.615 100.14 182.295 100.14C183.035 100.14 183.635 99.93 184.095 99.51C184.545 99.1 184.775 98.57 184.775 97.92C184.775 97.5 184.655 97.15 184.415 96.87C184.195 96.59 183.875 96.39 183.455 96.26C184.235 96 184.625 95.46 184.625 94.66C184.625 94.06 184.415 93.59 184.005 93.24C183.585 92.89 183.025 92.72 182.345 92.72Z" fill="#999999"/>
<rect x="101.5" y="84.5" width="143" height="23" rx="1.5" stroke="#DFE5EC"/>
<rect x="101" y="118" width="57.6" height="24" rx="2" fill="#337EFF"/>
<path d="M110.65 134.91C111.22 134.91 111.51 134.62 111.51 134.06V131.11C111.8 130.97 112.09 130.83 112.37 130.68V129.95C112.09 130.11 111.8 130.25 111.51 130.39V128.44H112.52V127.75H111.51V125.86H110.77V127.75H109.56V128.44H110.77V130.7C110.33 130.87 109.89 131.01 109.44 131.12L109.61 131.84C110 131.72 110.39 131.58 110.77 131.43V133.87C110.77 134.12 110.64 134.25 110.4 134.25C110.14 134.25 109.88 134.23 109.6 134.21L109.75 134.91H110.65ZM113.3 126.18V129.65H117.66V126.18H113.3ZM116.96 129.06H114V128.2H116.96V129.06ZM114 127.64V126.77H116.96V127.64H114ZM112.6 130.35V130.99H115.13V133.91C115.04 133.88 114.96 133.85 114.89 133.82C114.47 133.63 114.1 133.2 113.78 132.53C113.86 132.19 113.91 131.85 113.93 131.49L113.29 131.42C113.21 132.56 112.79 133.6 112.03 134.52L112.56 134.98C112.99 134.46 113.32 133.89 113.56 133.27C113.86 133.83 114.21 134.21 114.59 134.41C115.07 134.65 115.97 134.78 117.29 134.79C117.61 134.79 117.98 134.8 118.38 134.8L118.58 134.1C118.21 134.13 117.76 134.15 117.24 134.15C116.69 134.15 116.22 134.12 115.82 134.06V132.77H117.91V132.12H115.82V130.99H118.32V130.35H112.6ZM119.58 127.02V127.71H128.43V127.02H124.49C124.31 126.56 124.11 126.14 123.91 125.76L123.11 125.9C123.33 126.24 123.53 126.61 123.71 127.02H119.58ZM125.58 128.01L125.09 128.48C126.26 129.44 127.18 130.33 127.84 131.17L128.37 130.64C127.62 129.76 126.69 128.89 125.58 128.01ZM125.68 129.88C125.25 130.72 124.69 131.45 124.01 132.09C123.3 131.48 122.72 130.77 122.28 129.95L121.66 130.3C122.13 131.14 122.73 131.9 123.46 132.56C122.41 133.36 121.1 133.96 119.52 134.36L119.96 135.02C121.56 134.6 122.92 133.94 124.04 133.04C125.12 133.88 126.47 134.52 128.09 134.98L128.54 134.31C126.98 133.91 125.67 133.33 124.59 132.55C125.28 131.88 125.86 131.09 126.34 130.17L125.68 129.88ZM122.36 128.02C121.61 128.96 120.69 129.77 119.6 130.47L120.06 131.08C121.18 130.34 122.12 129.47 122.88 128.48L122.36 128.02ZM134.79 125.8C134.49 126.64 133.93 127.35 133.11 127.93L133.52 128.47C133.76 128.29 133.98 128.11 134.19 127.91C134.43 128.29 134.77 128.65 135.19 128.97C134.59 129.25 133.88 129.49 133.07 129.68L133.34 130.33C134.31 130.09 135.14 129.78 135.84 129.4C136.49 129.76 137.3 130.06 138.27 130.3L138.55 129.63C137.78 129.45 137.11 129.23 136.53 128.97C137.2 128.49 137.7 127.92 138.03 127.26V126.64H135.17C135.29 126.4 135.4 126.15 135.49 125.89L134.79 125.8ZM134.64 127.43C134.67 127.39 134.7 127.34 134.74 127.3H137.25C136.91 127.8 136.45 128.23 135.85 128.61C135.32 128.27 134.92 127.88 134.64 127.43ZM131.52 125.82C131.07 127.37 130.35 128.74 129.36 129.94L129.57 130.66C129.94 130.26 130.28 129.83 130.59 129.38V135.01H131.28V128.24C131.63 127.58 131.92 126.87 132.16 126.12L131.52 125.82ZM132.17 127.59V133.25H132.82V127.59H132.17ZM136.17 130.05C135.83 130.31 135.47 130.54 135.07 130.74C134.61 130.95 134.1 131.12 133.54 131.26L133.89 131.83C134.57 131.61 135.12 131.39 135.54 131.17C135.93 130.96 136.31 130.7 136.69 130.38L136.17 130.05ZM137.12 130.79C136.38 131.67 135.27 132.31 133.79 132.7L134.08 133.31C135.63 132.87 136.8 132.16 137.6 131.16L137.12 130.79ZM133.68 135.07C134.64 134.81 135.57 134.42 136.47 133.92C137.37 133.4 138.04 132.79 138.48 132.1L137.97 131.72C137.47 132.38 136.86 132.92 136.15 133.33C135.44 133.75 134.52 134.11 133.38 134.41L133.68 135.07ZM144.96 128H146.88C146.86 129.44 146.56 130.68 145.99 131.71C145.47 130.85 145.04 129.83 144.72 128.67C144.8 128.46 144.88 128.24 144.96 128ZM147.57 128H148.35V127.31H145.16C145.26 126.89 145.36 126.43 145.44 125.94L144.74 125.82C144.48 127.57 143.99 128.96 143.26 129.98L143.7 130.54C143.93 130.24 144.14 129.9 144.34 129.52C144.67 130.59 145.09 131.53 145.59 132.34C144.94 133.22 144.05 133.9 142.92 134.4L143.37 134.99C144.45 134.48 145.33 133.8 145.99 132.95C146.62 133.83 147.38 134.52 148.26 135.02L148.67 134.42C147.79 133.92 147.04 133.23 146.41 132.35C147.14 131.18 147.53 129.73 147.57 128ZM140.77 133.48V130.26H143.01V126.54H139.57V127.23H142.31V129.6H140.07V133.33C140.07 133.59 139.97 133.75 139.79 133.83L140 134.45C141.28 134.03 142.43 133.56 143.47 133.06L143.36 132.4C142.48 132.84 141.61 133.2 140.77 133.48Z" fill="white"/>
</svg>
