<svg width="33" height="32" viewBox="0 0 33 32" fill="none" xmlns="http://www.w3.org/2000/svg">
<path fill-rule="evenodd" clip-rule="evenodd" d="M16.254 32C25.0906 32 32.254 24.8366 32.254 16C32.254 7.16344 25.0906 0 16.254 0C7.41747 0 0.254028 7.16344 0.254028 16C0.254028 24.8366 7.41747 32 16.254 32Z" fill="#C2C4CC"/>
<path fill-rule="evenodd" clip-rule="evenodd" d="M16.2411 15.9963C14.0357 15.9963 12.2479 14.2086 12.2479 12.0032C12.2479 9.7978 14.0357 8.01001 16.2411 8.01001C18.4464 8.01001 20.2343 9.7978 20.2343 12.0032C20.2343 14.2086 18.4465 15.9963 16.2411 15.9963ZM19.2519 12.0032C19.2519 11.199 18.9387 10.4429 18.37 9.87423C17.8014 9.30556 17.0453 8.99238 16.2411 8.99238C15.4369 8.99238 14.6808 9.30556 14.1121 9.87423C13.5435 10.4429 13.2303 11.199 13.2303 12.0032C13.2303 12.8074 13.5435 13.5635 14.1121 14.1321C14.6808 14.7008 15.4369 15.014 16.2411 15.014C17.0453 15.014 17.8014 14.7008 18.37 14.1321C18.9387 13.5635 19.2519 12.8074 19.2519 12.0032Z" fill="white"/>
<path d="M23.5062 22.6567C23.2584 22.6567 23.0454 22.4698 23.0184 22.2178C22.6477 18.7624 19.7433 16.1567 16.2626 16.1567C12.7818 16.1567 9.87745 18.7624 9.50671 22.2178C9.47779 22.4875 9.23563 22.6828 8.96593 22.6538C8.6962 22.6249 8.50102 22.3828 8.52994 22.113C8.7334 20.2168 9.62791 18.4651 11.0487 17.1807C12.4799 15.8869 14.3316 15.1743 16.2626 15.1743C18.1935 15.1743 20.0452 15.8869 21.4764 17.1807C22.8972 18.4652 23.7917 20.2168 23.9951 22.1131C24.0241 22.3828 23.8289 22.6249 23.5592 22.6538C23.5414 22.6557 23.5237 22.6567 23.5062 22.6567Z" fill="white"/>
</svg>
