<svg width="28" height="28" viewBox="0 0 28 28" fill="none" xmlns="http://www.w3.org/2000/svg">
<path opacity="0.01" d="M0 0H28V28H0V0Z" fill="#C4C4C4"/>
<path fill-rule="evenodd" clip-rule="evenodd" d="M22.8705 5.12315C23.1428 5.28043 23.1355 5.67596 22.8576 5.82307L19.5192 7.58995C19.3975 7.65436 19.2513 7.65165 19.1321 7.5828L14.2001 4.73431C14.0763 4.66283 13.9238 4.66282 13.8 4.73428L8.86611 7.58288C8.74691 7.6517 8.6007 7.6544 8.47905 7.59003L5.13945 5.82311C4.86144 5.67602 4.85413 5.2804 5.12651 5.12313L13.8 0.115479C13.9238 0.0440154 14.0763 0.0440271 14.2001 0.11551L22.8705 5.12315ZM21.9215 18.806C22.0453 18.7346 22.1215 18.6025 22.1215 18.4597V9.54026C22.1215 9.39738 22.1977 9.26534 22.3214 9.19388L25.52 7.34652C25.7867 7.19251 26.1201 7.38495 26.1201 7.6929V20.7691C26.1201 20.9119 26.0438 21.044 25.9201 21.1154L14.2001 27.8844C14.0763 27.9559 13.9238 27.9559 13.8 27.8845L2.07573 21.1154C1.95197 21.044 1.87573 20.9119 1.87573 20.769V7.69279C1.87573 7.38487 2.20907 7.19242 2.47573 7.34638L5.67573 9.1939C5.79949 9.26536 5.87573 9.39741 5.87573 9.54031V18.4596C5.87573 18.6025 5.95197 18.7346 6.07573 18.806L13.8 23.2656C13.9238 23.3371 14.0763 23.3371 14.2001 23.2656L21.9215 18.806ZM10.8012 9.75698C10.922 9.69158 11.0679 9.69274 11.1876 9.76004L13.8211 11.2403C13.9435 11.3091 14.093 11.3087 14.215 11.2392L16.8989 9.71151C17.0223 9.64125 17.1737 9.64171 17.2967 9.71273L18.8559 10.6129C18.983 10.6863 19.0597 10.8235 19.0557 10.9703L19.0061 12.7794C19.0023 12.9167 18.9284 13.0425 18.8102 13.1125L16.1838 14.6696C16.063 14.7411 15.9886 14.8708 15.9878 15.0112L15.9656 18.6367C15.9647 18.7787 15.8886 18.9097 15.7656 18.9807L14.2064 19.8808C14.0793 19.9543 13.9221 19.9521 13.797 19.8752L12.2551 18.9277C12.138 18.8558 12.0661 18.7289 12.0645 18.5915L12.0231 14.9948C12.0214 14.8544 11.9463 14.7251 11.8252 14.6542L9.19796 13.1159C9.0754 13.0441 9.00008 12.9127 9.00008 12.7707L9.00008 10.9703C9.00008 10.8235 9.08052 10.6885 9.20965 10.6186L10.8012 9.75698Z" fill="white"/>
</svg>
